<svg version="1.1" id="Layer_1" xmlns="http://www.w3.org/2000/svg" xmlns:xlink="http://www.w3.org/1999/xlink" x="0px" y="0px"
	 width="100%" viewBox="0 0 409 409" enable-background="new 0 0 409 409" xml:space="preserve">
<path fill="#274EE4" opacity="1.000000" stroke="none" 
	d="
M216.000000,410.000000 
	C209.312363,410.000000 202.624710,410.000000 195.792526,409.849640 
	C195.202316,409.281464 194.819489,408.612915 194.301620,408.483124 
	C185.523773,406.283051 176.695038,404.277191 167.956039,401.935394 
	C164.736481,401.072662 161.817093,399.066925 158.591568,398.253784 
	C150.684280,396.260376 142.629837,394.849762 134.724762,392.848602 
	C125.090858,390.409729 115.528236,387.679718 105.972610,384.943604 
	C91.519554,380.805145 77.077942,376.623505 62.675640,372.312653 
	C57.127064,370.651886 55.569778,367.557953 55.728764,361.537262 
	C55.850967,356.909302 55.405903,352.251038 54.978428,347.627930 
	C54.483856,342.279083 53.653946,336.962006 53.110828,331.616760 
	C52.324814,323.880981 51.435432,316.145020 51.008339,308.386108 
	C50.424274,297.775604 47.844711,287.450623 48.593414,276.553955 
	C49.252464,266.962219 46.736404,257.169769 45.814457,247.447754 
	C44.433788,232.888412 43.197617,218.315140 41.953796,203.743210 
	C41.645515,200.131592 41.726772,196.481140 41.310097,192.885498 
	C40.404972,185.074844 39.099186,177.307388 38.322895,169.485977 
	C37.563305,161.832855 37.330650,154.128967 36.732929,146.457809 
	C36.097263,138.299667 35.364380,130.147751 34.546329,122.005943 
	C34.277508,119.330421 33.433308,116.713127 33.158020,114.037750 
	C32.283070,105.534492 31.542454,97.017288 30.770838,88.503586 
	C30.488733,85.390961 30.239801,82.274811 30.019957,79.157158 
	C29.422020,70.677704 28.930143,62.189857 28.239805,53.718090 
	C27.607046,45.952904 26.723938,38.208420 26.041553,30.446865 
	C25.665236,26.166531 25.492693,21.868614 25.196354,17.580830 
	C24.814291,12.052732 24.400261,6.526842 24.000000,1.000000 
	C144.687561,1.000000 265.375122,1.000000 386.552429,1.386544 
	C387.127014,3.312319 387.467743,4.888268 387.252991,6.384493 
	C386.271301,13.224481 383.891998,20.126732 384.349945,26.847509 
	C385.000305,36.392120 383.911621,45.512680 382.201294,54.763695 
	C381.422272,58.977303 381.551819,63.359398 381.276764,67.665550 
	C380.764618,75.682373 380.302399,83.702721 379.729858,91.715195 
	C379.454742,95.564896 379.057709,99.410439 378.571564,103.239540 
	C377.606628,110.839645 376.509003,118.422844 375.532196,126.021515 
	C375.072327,129.598648 374.620789,133.187881 374.432770,136.785583 
	C374.271851,139.865372 374.675934,142.975616 374.499146,146.053391 
	C374.256409,150.278748 373.623047,154.480103 373.295837,158.702484 
	C372.551208,168.310364 372.045135,177.939041 371.157471,187.532928 
	C370.061401,199.379547 368.564667,211.188904 367.446411,223.033737 
	C366.185913,236.384918 365.225128,249.764297 363.980957,263.117157 
	C363.585968,267.355865 362.416992,271.527863 362.102570,275.767487 
	C361.556946,283.126099 361.403442,290.513733 361.081146,297.889008 
	C360.528900,310.526520 357.640106,322.889587 357.732910,335.691071 
	C357.813202,346.764984 355.375031,357.861237 353.948608,368.934540 
	C353.829407,369.859833 353.098816,371.271484 352.379486,371.470306 
	C339.760498,374.958191 327.063416,378.165710 314.458893,381.703369 
	C305.858368,384.117249 297.453918,387.249481 288.819000,389.516418 
	C276.277344,392.809021 263.547668,395.386017 251.008926,398.688629 
	C239.595306,401.694885 228.325912,405.250366 217.011337,408.625427 
	C216.576248,408.755188 216.332764,409.527252 216.000000,410.000000 
M205.120010,213.830811 
	C205.405075,217.131805 205.915695,220.431259 205.938324,223.734055 
	C206.077225,244.007095 206.105728,264.280914 205.826935,284.810577 
	C205.548370,284.880249 205.280182,284.978271 204.325333,284.810120 
	C189.390015,280.728119 174.474442,276.571228 159.503418,272.624664 
	C156.350342,271.793427 154.827713,270.571960 154.612930,267.014984 
	C154.071198,258.042969 152.777069,249.115753 152.260300,240.143204 
	C152.030716,236.156677 150.572983,235.159927 146.804108,235.231094 
	C135.312790,235.448074 123.814758,235.297958 112.319405,235.322739 
	C110.573601,235.326508 108.828163,235.500381 107.031372,235.598373 
	C106.947052,236.842514 106.815857,237.502655 106.871162,238.146774 
	C108.709572,259.554474 110.628494,280.955658 112.354576,302.372314 
	C112.625885,305.738708 114.410172,306.767670 117.234528,307.534027 
	C135.071060,312.373962 152.867996,317.359589 170.697220,322.226715 
	C182.084213,325.335266 193.504242,328.322723 205.405731,331.612305 
	C205.586121,331.571625 205.766510,331.530975 205.929245,332.366150 
	C205.944641,345.360291 205.946930,358.354492 205.980789,371.348602 
	C205.998535,378.164215 206.355698,378.392578 212.714310,376.633453 
	C230.044327,371.839050 247.393158,367.112610 264.718719,362.302216 
	C283.171814,357.178711 301.591614,351.934387 320.063538,346.880249 
	C323.411896,345.964111 324.957275,344.407898 325.250977,340.760376 
	C326.678070,323.036987 328.410339,305.338379 329.988098,287.626831 
	C331.138458,274.713135 332.177734,261.789551 333.335907,248.876556 
	C335.191772,228.185486 337.124634,207.501343 338.987854,186.810928 
	C340.448822,170.587540 341.834045,154.357361 343.288849,138.133408 
	C344.832489,120.918747 346.435028,103.709389 347.981384,86.494972 
	C349.423859,70.436646 350.717377,54.364014 352.295898,38.319267 
	C353.006592,31.095474 353.175812,31.010006 345.856689,31.008484 
	C303.208496,30.999607 260.560272,30.975439 217.912125,31.020426 
	C204.453781,31.034622 206.181076,29.503632 205.949127,43.087811 
	C205.761826,54.055851 205.347946,65.020020 205.098740,76.181007 
	C205.098740,76.181007 205.118668,76.385414 204.180969,76.209091 
	C167.108704,76.209091 130.036438,76.209091 92.496452,76.209091 
	C92.602356,78.324013 92.625587,79.934555 92.772346,81.533768 
	C93.775993,92.471436 94.836662,103.403954 95.816132,114.343750 
	C96.500648,121.989197 95.324150,121.337242 103.656586,121.342537 
	C131.787399,121.360413 159.918228,121.365082 188.049011,121.336136 
	C193.699234,121.330322 199.349274,121.154701 205.460724,121.348724 
	C205.610535,121.451828 205.760361,121.554932 205.938065,122.510979 
	C205.927353,137.457306 205.916641,152.403641 205.458130,167.657822 
	C205.305267,167.754990 205.152405,167.852158 204.084244,167.727692 
	C169.678116,167.727692 135.271988,167.727692 100.397385,167.727692 
	C101.809219,183.213654 103.147522,197.892975 104.508041,212.816040 
	C111.043961,212.816040 116.863243,212.829041 122.682465,212.813812 
	C150.164124,212.741913 177.645782,212.662292 205.109070,212.793716 
	C205.109070,212.793716 205.047821,212.993668 205.120010,213.830811 
z"/>
<path fill="#000000" opacity="1.000000" stroke="none" 
	d="
M216.468658,410.000000 
	C216.332764,409.527252 216.576248,408.755188 217.011337,408.625427 
	C228.325912,405.250366 239.595306,401.694885 251.008926,398.688629 
	C263.547668,395.386017 276.277344,392.809021 288.819000,389.516418 
	C297.453918,387.249481 305.858368,384.117249 314.458893,381.703369 
	C327.063416,378.165710 339.760498,374.958191 352.379486,371.470306 
	C353.098816,371.271484 353.829407,369.859833 353.948608,368.934540 
	C355.375031,357.861237 357.813202,346.764984 357.732910,335.691071 
	C357.640106,322.889587 360.528900,310.526520 361.081146,297.889008 
	C361.403442,290.513733 361.556946,283.126099 362.102570,275.767487 
	C362.416992,271.527863 363.585968,267.355865 363.980957,263.117157 
	C365.225128,249.764297 366.185913,236.384918 367.446411,223.033737 
	C368.564667,211.188904 370.061401,199.379547 371.157471,187.532928 
	C372.045135,177.939041 372.551208,168.310364 373.295837,158.702484 
	C373.623047,154.480103 374.256409,150.278748 374.499146,146.053391 
	C374.675934,142.975616 374.271851,139.865372 374.432770,136.785583 
	C374.620789,133.187881 375.072327,129.598648 375.532196,126.021515 
	C376.509003,118.422844 377.606628,110.839645 378.571564,103.239540 
	C379.057709,99.410439 379.454742,95.564896 379.729858,91.715195 
	C380.302399,83.702721 380.764618,75.682373 381.276764,67.665550 
	C381.551819,63.359398 381.422272,58.977303 382.201294,54.763695 
	C383.911621,45.512680 385.000305,36.392120 384.349945,26.847509 
	C383.891998,20.126732 386.271301,13.224481 387.252991,6.384493 
	C387.467743,4.888268 387.127014,3.312319 387.021057,1.386544 
	C394.661316,1.000000 402.322601,1.000000 409.987915,1.000000 
	C409.991943,137.232651 409.991943,273.465302 409.991943,410.000000 
	C345.646088,410.000000 281.291687,410.000000 216.468658,410.000000 
z"/>
<path fill="#000000" opacity="1.000000" stroke="none" 
	d="
M23.531263,1.000000 
	C24.400261,6.526842 24.814291,12.052732 25.196354,17.580830 
	C25.492693,21.868614 25.665236,26.166531 26.041553,30.446865 
	C26.723938,38.208420 27.607046,45.952904 28.239805,53.718090 
	C28.930143,62.189857 29.422020,70.677704 30.019957,79.157158 
	C30.239801,82.274811 30.488733,85.390961 30.770838,88.503586 
	C31.542454,97.017288 32.283070,105.534492 33.158020,114.037750 
	C33.433308,116.713127 34.277508,119.330421 34.546329,122.005943 
	C35.364380,130.147751 36.097263,138.299667 36.732929,146.457809 
	C37.330650,154.128967 37.563305,161.832855 38.322895,169.485977 
	C39.099186,177.307388 40.404972,185.074844 41.310097,192.885498 
	C41.726772,196.481140 41.645515,200.131592 41.953796,203.743210 
	C43.197617,218.315140 44.433788,232.888412 45.814457,247.447754 
	C46.736404,257.169769 49.252464,266.962219 48.593414,276.553955 
	C47.844711,287.450623 50.424274,297.775604 51.008339,308.386108 
	C51.435432,316.145020 52.324814,323.880981 53.110828,331.616760 
	C53.653946,336.962006 54.483856,342.279083 54.978428,347.627930 
	C55.405903,352.251038 55.850967,356.909302 55.728764,361.537262 
	C55.569778,367.557953 57.127064,370.651886 62.675640,372.312653 
	C77.077942,376.623505 91.519554,380.805145 105.972610,384.943604 
	C115.528236,387.679718 125.090858,390.409729 134.724762,392.848602 
	C142.629837,394.849762 150.684280,396.260376 158.591568,398.253784 
	C161.817093,399.066925 164.736481,401.072662 167.956039,401.935394 
	C176.695038,404.277191 185.523773,406.283051 194.301620,408.483124 
	C194.819489,408.612915 195.202316,409.281464 195.323990,409.849640 
	C130.378571,410.000000 65.757156,410.000000 1.067865,410.000000 
	C1.067865,273.666687 1.067865,137.333344 1.072816,1.000005 
	C8.406021,1.000000 15.734274,1.000000 23.531263,1.000000 
z"/>
<path fill="#2A65F1" opacity="1.000000" stroke="none" 
	d="
M205.034576,75.985909 
	C205.347946,65.020020 205.761826,54.055851 205.949127,43.087811 
	C206.181076,29.503632 204.453781,31.034622 217.912125,31.020426 
	C260.560272,30.975439 303.208496,30.999607 345.856689,31.008484 
	C353.175812,31.010006 353.006592,31.095474 352.295898,38.319267 
	C350.717377,54.364014 349.423859,70.436646 347.981384,86.494972 
	C346.435028,103.709389 344.832489,120.918747 343.288849,138.133408 
	C341.834045,154.357361 340.448822,170.587540 338.987854,186.810928 
	C337.124634,207.501343 335.191772,228.185486 333.335907,248.876556 
	C332.177734,261.789551 331.138458,274.713135 329.988098,287.626831 
	C328.410339,305.338379 326.678070,323.036987 325.250977,340.760376 
	C324.957275,344.407898 323.411896,345.964111 320.063538,346.880249 
	C301.591614,351.934387 283.171814,357.178711 264.718719,362.302216 
	C247.393158,367.112610 230.044327,371.839050 212.714310,376.633453 
	C206.355698,378.392578 205.998535,378.164215 205.980789,371.348602 
	C205.946930,358.354492 205.944641,345.360291 206.352173,331.884583 
	C235.651993,323.444885 264.512207,315.425049 293.427429,307.608765 
	C296.941711,306.658783 298.071930,305.009674 298.356171,301.493744 
	C299.724426,284.569183 301.427521,267.672028 302.935852,250.758377 
	C307.165039,203.333572 311.355377,155.905304 315.564514,108.478714 
	C316.501923,97.916397 317.453735,87.355354 318.455322,76.163216 
	C315.826904,76.163216 313.875854,76.166000 311.924805,76.162796 
	C276.294739,76.104256 240.664658,76.045013 205.034576,75.985909 
z"/>
<path fill="#FEFEFF" opacity="1.000000" stroke="none" 
	d="
M205.066650,76.083458 
	C240.664658,76.045013 276.294739,76.104256 311.924805,76.162796 
	C313.875854,76.166000 315.826904,76.163216 318.455322,76.163216 
	C317.453735,87.355354 316.501923,97.916397 315.564514,108.478714 
	C311.355377,155.905304 307.165039,203.333572 302.935852,250.758377 
	C301.427521,267.672028 299.724426,284.569183 298.356171,301.493744 
	C298.071930,305.009674 296.941711,306.658783 293.427429,307.608765 
	C264.512207,315.425049 235.651993,323.444885 206.360992,331.446655 
	C205.766510,331.530975 205.586121,331.571625 205.180328,330.995148 
	C204.977402,315.286865 204.999893,300.195770 205.022369,285.104645 
	C205.280182,284.978271 205.548370,284.880249 206.407974,284.660980 
	C221.756912,280.517975 236.505783,276.451630 251.307846,272.589172 
	C254.483017,271.760651 255.948395,270.463257 256.161316,266.933044 
	C256.701691,257.972137 257.793091,249.045593 258.590668,240.098770 
	C259.383026,231.210770 260.086182,222.314835 260.864258,212.993668 
	C241.884689,212.993668 223.466248,212.993668 205.047821,212.993668 
	C205.047821,212.993668 205.109070,212.793716 205.108368,212.247406 
	C205.071625,197.117172 205.035583,182.533249 204.999542,167.949326 
	C205.152405,167.852158 205.305267,167.754990 206.141617,167.634796 
	C226.056976,167.611755 245.288834,167.611755 264.842590,167.611755 
	C266.268158,152.062607 267.643433,137.062057 269.011597,122.138939 
	C268.097931,121.772011 267.645630,121.430763 267.194244,121.432014 
	C246.766174,121.488518 226.338196,121.575043 205.910202,121.658035 
	C205.760361,121.554932 205.610535,121.451828 205.236115,120.730644 
	C205.047226,105.536850 205.082947,90.961128 205.118668,76.385414 
	C205.118668,76.385414 205.098740,76.181007 205.066650,76.083458 
z"/>
<path fill="#E9E9EB" opacity="1.000000" stroke="none" 
	d="
M204.673859,284.957397 
	C204.999893,300.195770 204.977402,315.286865 204.932190,330.871216 
	C193.504242,328.322723 182.084213,325.335266 170.697220,322.226715 
	C152.867996,317.359589 135.071060,312.373962 117.234528,307.534027 
	C114.410172,306.767670 112.625885,305.738708 112.354576,302.372314 
	C110.628494,280.955658 108.709572,259.554474 106.871162,238.146774 
	C106.815857,237.502655 106.947052,236.842514 107.031372,235.598373 
	C108.828163,235.500381 110.573601,235.326508 112.319405,235.322739 
	C123.814758,235.297958 135.312790,235.448074 146.804108,235.231094 
	C150.572983,235.159927 152.030716,236.156677 152.260300,240.143204 
	C152.777069,249.115753 154.071198,258.042969 154.612930,267.014984 
	C154.827713,270.571960 156.350342,271.793427 159.503418,272.624664 
	C174.474442,276.571228 189.390015,280.728119 204.673859,284.957397 
z"/>
<path fill="#E9EAEB" opacity="1.000000" stroke="none" 
	d="
M204.649811,76.297256 
	C205.082947,90.961128 205.047226,105.536850 205.005463,120.584969 
	C199.349274,121.154701 193.699234,121.330322 188.049011,121.336136 
	C159.918228,121.365082 131.787399,121.360413 103.656586,121.342537 
	C95.324150,121.337242 96.500648,121.989197 95.816132,114.343750 
	C94.836662,103.403954 93.775993,92.471436 92.772346,81.533768 
	C92.625587,79.934555 92.602356,78.324013 92.496452,76.209091 
	C130.036438,76.209091 167.108704,76.209091 204.649811,76.297256 
z"/>
<path fill="#E9E9EB" opacity="1.000000" stroke="none" 
	d="
M204.541901,167.838501 
	C205.035583,182.533249 205.071625,197.117172 205.117554,212.143250 
	C177.645782,212.662292 150.164124,212.741913 122.682465,212.813812 
	C116.863243,212.829041 111.043961,212.816040 104.508041,212.816040 
	C103.147522,197.892975 101.809219,183.213654 100.397385,167.727692 
	C135.271988,167.727692 169.678116,167.727692 204.541901,167.838501 
z"/>
<path fill="#2A66F1" opacity="1.000000" stroke="none" 
	d="
M205.083923,213.412231 
	C223.466248,212.993668 241.884689,212.993668 260.864258,212.993668 
	C260.086182,222.314835 259.383026,231.210770 258.590668,240.098770 
	C257.793091,249.045593 256.701691,257.972137 256.161316,266.933044 
	C255.948395,270.463257 254.483017,271.760651 251.307846,272.589172 
	C236.505783,276.451630 221.756912,280.517975 206.580017,284.532928 
	C206.105728,264.280914 206.077225,244.007095 205.938324,223.734055 
	C205.915695,220.431259 205.405075,217.131805 205.083923,213.412231 
z"/>
<path fill="#326AF0" opacity="1.000000" stroke="none" 
	d="
M205.924133,122.084503 
	C226.338196,121.575043 246.766174,121.488518 267.194244,121.432014 
	C267.645630,121.430763 268.097931,121.772011 269.011597,122.138939 
	C267.643433,137.062057 266.268158,152.062607 264.842590,167.611755 
	C245.288834,167.611755 226.056976,167.611755 206.365509,167.480865 
	C205.916641,152.403641 205.927353,137.457306 205.924133,122.084503 
z"/>
</svg>
