<svg version="1.1" id="Layer_1" xmlns="http://www.w3.org/2000/svg" xmlns:xlink="http://www.w3.org/1999/xlink" x="0px" y="0px"
	 width="100%" viewBox="0 0 404 409" enable-background="new 0 0 404 409" xml:space="preserve">
<path fill="#000000" opacity="1.000000" stroke="none" 
	d="
M239.000000,410.000000 
	C159.333328,410.000000 80.166664,410.000000 1.000000,410.000000 
	C1.000000,273.666656 1.000000,137.333328 1.000000,1.000000 
	C135.666672,1.000000 270.333344,1.000000 405.000000,1.000000 
	C405.000000,137.333328 405.000000,273.666656 405.000000,410.000000 
	C349.833344,410.000000 294.666656,410.000000 239.000000,410.000000 
M176.795792,6.952816 
	C175.685165,7.276899 174.594315,7.760270 173.460922,7.900946 
	C158.687210,9.734646 144.383804,13.437097 130.562866,18.914204 
	C111.986679,26.275776 94.506119,35.731548 79.472389,48.952305 
	C70.054977,57.234035 61.337917,66.390038 52.903450,75.694771 
	C37.323921,92.881790 26.288935,112.887672 18.583176,134.684708 
	C12.642857,151.487885 8.175282,168.672974 7.994126,186.666443 
	C7.862515,199.738876 6.922948,212.914078 8.196231,225.861237 
	C9.734403,241.501923 13.307327,256.872925 18.686060,271.830536 
	C27.080383,295.174103 39.628937,315.984131 56.010574,334.376099 
	C76.960152,357.896545 102.105606,375.646698 131.682724,386.944366 
	C150.643188,394.186768 170.200653,399.095245 190.432983,399.769379 
	C204.632935,400.242523 219.052780,399.708923 233.107498,397.729523 
	C258.690582,394.126617 282.747070,385.233887 304.716095,371.596252 
	C330.381134,355.664276 351.637909,334.989746 367.866577,309.358948 
	C385.753326,281.109375 395.974609,250.221466 397.760071,216.912003 
	C398.501434,203.080887 397.165527,189.075195 395.969360,175.218384 
	C394.212982,154.872650 388.079651,135.612076 379.135681,117.331032 
	C366.885956,92.293205 350.400940,70.482635 328.998016,52.404438 
	C309.789948,36.180115 288.555847,23.848097 264.625214,15.906748 
	C243.764816,8.984265 222.480087,5.606814 200.562714,6.027430 
	C192.940125,6.173716 185.323181,6.614587 176.795792,6.952816 
z"/>
<path fill="#237547" opacity="1.000000" stroke="none" 
	d="
M177.249725,6.936866 
	C185.323181,6.614587 192.940125,6.173716 200.562714,6.027430 
	C222.480087,5.606814 243.764816,8.984265 264.625214,15.906748 
	C288.555847,23.848097 309.789948,36.180115 328.998016,52.404438 
	C350.400940,70.482635 366.885956,92.293205 379.135681,117.331032 
	C388.079651,135.612076 394.212982,154.872650 395.969360,175.218384 
	C397.165527,189.075195 398.501434,203.080887 397.760071,216.912003 
	C395.974609,250.221466 385.753326,281.109375 367.866577,309.358948 
	C351.637909,334.989746 330.381134,355.664276 304.716095,371.596252 
	C282.747070,385.233887 258.690582,394.126617 233.107498,397.729523 
	C219.052780,399.708923 204.632935,400.242523 190.432983,399.769379 
	C170.200653,399.095245 150.643188,394.186768 131.682724,386.944366 
	C102.105606,375.646698 76.960152,357.896545 56.010574,334.376099 
	C39.628937,315.984131 27.080383,295.174103 18.686060,271.830536 
	C13.307327,256.872925 9.734403,241.501923 8.196231,225.861237 
	C6.922948,212.914078 7.862515,199.738876 7.994126,186.666443 
	C8.175282,168.672974 12.642857,151.487885 18.583176,134.684708 
	C26.288935,112.887672 37.323921,92.881790 52.903450,75.694771 
	C61.337917,66.390038 70.054977,57.234035 79.472389,48.952305 
	C94.506119,35.731548 111.986679,26.275776 130.562866,18.914204 
	C144.383804,13.437097 158.687210,9.734646 173.460922,7.900946 
	C174.594315,7.760270 175.685165,7.276899 177.249725,6.936866 
M225.511337,119.684654 
	C224.762009,119.401459 224.012665,119.118271 223.253540,117.919182 
	C223.253540,112.140182 223.253540,106.361176 223.253540,100.020309 
	C202.172318,99.237595 182.694092,105.660645 162.804474,108.908104 
	C142.852417,112.165771 123.046448,116.318214 103.436386,120.029312 
	C103.217506,121.007393 103.082664,121.328842 103.082512,121.650352 
	C103.055626,178.415695 103.028030,235.181076 103.089485,291.946350 
	C103.090813,293.169037 104.118431,294.390594 105.107666,296.122101 
	C106.183365,296.226288 107.259071,296.330475 108.994263,296.577179 
	C109.662605,296.668793 110.330940,296.760376 111.293243,297.218872 
	C111.863930,297.202484 112.434616,297.186096 113.564102,297.294586 
	C113.932137,297.395782 114.300163,297.496948 114.864334,298.027802 
	C115.576653,298.028778 116.288963,298.029785 117.689606,298.106171 
	C118.375626,298.198425 119.061646,298.290680 120.143906,298.933807 
	C121.222641,299.044067 122.301384,299.154327 124.101662,299.387085 
	C125.067917,299.524506 126.034172,299.661957 127.265625,300.208405 
	C127.845268,300.212585 128.424911,300.216766 129.557907,300.351685 
	C129.924881,300.446625 130.291840,300.541565 130.976044,301.062469 
	C131.985657,301.079559 132.995285,301.096619 134.574860,301.222107 
	C134.952286,301.306641 135.329697,301.391174 135.960632,301.962494 
	C136.975616,302.025940 137.990616,302.089386 139.674332,302.257843 
	C140.343521,302.359528 141.012711,302.461212 141.987045,303.019104 
	C142.993103,303.098358 143.999161,303.177643 145.665833,303.393005 
	C146.328827,303.516388 146.991837,303.639771 147.931320,304.120850 
	C148.622345,304.120178 149.313370,304.119476 150.565765,304.253815 
	C150.939468,304.346008 151.313171,304.438202 151.961029,304.997070 
	C152.975708,305.035156 153.990402,305.073273 155.678314,305.200867 
	C156.348083,305.311951 157.017868,305.423035 158.108963,306.064850 
	C159.190430,306.163635 160.271881,306.262421 162.012344,306.480164 
	C162.675323,306.574341 163.338303,306.668518 164.538940,307.252014 
	C165.463989,307.333679 166.389038,307.415344 167.873703,307.619843 
	C168.249054,307.690491 168.624420,307.761139 169.281754,308.197540 
	C169.855789,308.160431 170.429810,308.123352 171.584061,308.174713 
	C171.967331,308.253357 172.350601,308.332031 172.975357,308.904419 
	C173.984833,308.970917 174.994308,309.037415 176.734009,309.217438 
	C177.705002,309.382416 178.676010,309.547394 180.032913,310.196777 
	C180.808899,310.246857 181.584869,310.296906 183.012100,310.506897 
	C183.674408,310.609833 184.336716,310.712769 185.293503,311.174133 
	C185.863586,311.151642 186.433655,311.129120 187.573395,311.223480 
	C187.951599,311.308624 188.329788,311.393799 188.874954,311.921356 
	C189.583282,311.946838 190.291611,311.972351 191.735748,312.111420 
	C192.716309,312.262329 193.696884,312.413208 195.093979,313.099854 
	C196.175095,313.204407 197.256195,313.308960 198.999756,313.533539 
	C199.666458,313.626953 200.333176,313.720337 201.483658,314.261078 
	C202.112030,314.286224 202.740417,314.311340 204.240356,314.550537 
	C209.507324,314.761719 214.776672,314.927246 220.040268,315.202728 
	C222.807190,315.347534 223.307205,313.837799 223.279144,311.505676 
	C223.205673,305.398712 223.265701,299.290100 224.001373,293.076874 
	C224.442841,292.865112 224.884293,292.653381 226.200333,292.644531 
	C249.680222,292.677551 273.160248,292.763519 296.639954,292.711456 
	C303.709686,292.695770 305.647369,290.699585 306.290863,283.494934 
	C306.512634,281.011932 306.628510,278.510864 306.629547,276.018005 
	C306.649048,229.388733 306.649506,182.759460 306.628571,136.130188 
	C306.627441,133.637833 306.358948,131.146744 306.292511,128.653000 
	C306.169495,124.037529 304.104004,121.087013 299.127960,119.941193 
	C298.419098,119.968872 297.710236,119.996544 296.065826,119.958801 
	C272.710510,119.984657 249.355209,120.010521 225.511337,119.684654 
z"/>
<path fill="#FDFEFD" opacity="1.000000" stroke="none" 
	d="
M130.658813,300.636536 
	C130.291840,300.541565 129.924881,300.446625 129.167297,300.069336 
	C128.184586,299.791138 127.592506,299.795288 127.000427,299.799408 
	C126.034172,299.661957 125.067917,299.524506 123.521111,299.075684 
	C121.876259,298.637146 120.811966,298.510010 119.747665,298.382904 
	C119.061646,298.290680 118.375626,298.198425 117.100708,297.857544 
	C115.897278,297.605286 115.282738,297.601715 114.668198,297.598145 
	C114.300163,297.496948 113.932137,297.395782 113.157166,297.032471 
	C112.166588,296.797607 111.582932,296.824799 110.999283,296.851990 
	C110.330940,296.760376 109.662605,296.668793 108.453918,296.239868 
	C106.831482,295.805969 105.749390,295.709351 104.667297,295.612701 
	C104.118431,294.390594 103.090813,293.169037 103.089485,291.946350 
	C103.028030,235.181076 103.055626,178.415695 103.082512,121.650352 
	C103.082664,121.328842 103.217506,121.007393 103.436386,120.029312 
	C123.046448,116.318214 142.852417,112.165771 162.804474,108.908104 
	C182.694092,105.660645 202.172318,99.237595 223.253540,100.020309 
	C223.253540,106.361176 223.253540,112.140182 223.057922,118.723633 
	C222.990555,122.410385 223.118820,125.292686 223.233246,128.626678 
	C223.226685,133.334778 223.233917,137.591202 223.042053,142.222534 
	C222.974945,148.782181 223.106949,154.966934 223.228638,161.590698 
	C223.231567,164.675049 223.244812,167.320374 223.033356,170.308502 
	C222.953430,176.486496 223.098206,182.321686 223.231964,188.584961 
	C223.239197,191.865295 223.257431,194.717560 223.060501,197.805420 
	C222.992554,203.706329 223.139771,209.371613 223.261566,215.487030 
	C223.246628,218.945801 223.257126,221.954437 223.040619,225.305237 
	C222.965973,231.441650 223.118347,237.235916 223.250046,243.456207 
	C223.241501,246.844650 223.253616,249.807022 223.044495,253.054260 
	C222.974731,258.903931 223.126175,264.468750 223.254089,270.496185 
	C223.233810,275.582092 223.237061,280.205353 223.044144,285.166412 
	C222.989502,288.063507 223.131012,290.622833 223.272522,293.182159 
	C223.265701,299.290100 223.205673,305.398712 223.279144,311.505676 
	C223.307205,313.837799 222.807190,315.347534 220.040268,315.202728 
	C214.776672,314.927246 209.507324,314.761719 203.704071,314.224487 
	C202.445145,313.870209 201.722504,313.841980 200.999878,313.813721 
	C200.333176,313.720337 199.666458,313.626953 198.446716,313.220520 
	C196.821594,312.793030 195.749512,312.678558 194.677444,312.564087 
	C193.696884,312.413208 192.716309,312.262329 191.139587,311.823975 
	C189.931625,311.517334 189.319809,311.498138 188.707993,311.478943 
	C188.329788,311.393799 187.951599,311.308624 187.154999,310.970581 
	C186.157410,310.750336 185.578217,310.783020 184.999023,310.815704 
	C184.336716,310.712769 183.674408,310.609833 182.502029,310.175903 
	C181.210312,309.800720 180.428650,309.756561 179.647003,309.712372 
	C178.676010,309.547394 177.705002,309.382416 176.107788,308.915527 
	C174.565674,308.545990 173.649765,308.478333 172.733871,308.410706 
	C172.350601,308.332031 171.967331,308.253357 171.144547,307.955811 
	C170.136612,307.768555 169.568192,307.800201 168.999771,307.831818 
	C168.624420,307.761139 168.249054,307.690491 167.466644,307.313446 
	C166.040131,306.925598 165.020706,306.844177 164.001266,306.762695 
	C163.338303,306.668518 162.675323,306.574341 161.456085,306.173706 
	C159.829102,305.756195 158.758362,305.645142 157.687637,305.534088 
	C157.017868,305.423035 156.348083,305.311951 155.059586,304.933868 
	C153.522858,304.621368 152.604874,304.575897 151.686874,304.530396 
	C151.313171,304.438202 150.939468,304.346008 150.044647,303.969543 
	C148.900635,303.711182 148.277725,303.737152 147.654831,303.763123 
	C146.991837,303.639771 146.328827,303.516388 145.078568,303.065430 
	C143.554840,302.679504 142.618362,302.621185 141.681900,302.562897 
	C141.012711,302.461212 140.343521,302.359528 139.075195,301.958344 
	C137.553085,301.597778 136.630112,301.536743 135.707123,301.475708 
	C135.329697,301.391174 134.952286,301.306641 134.003387,300.955963 
	C132.507538,300.672058 131.583176,300.654297 130.658813,300.636536 
M185.469910,247.929230 
	C185.648758,246.542389 186.403488,244.899078 185.917709,243.808212 
	C180.836105,232.397293 175.410324,221.137619 170.462570,209.670929 
	C169.558334,207.575256 169.624741,204.415909 170.527756,202.294403 
	C174.962524,191.875687 179.854996,181.652405 184.524048,171.332169 
	C185.356354,169.492477 185.897400,167.520996 186.698792,165.254425 
	C185.230286,165.159882 184.581070,165.053543 183.938950,165.086304 
	C171.612228,165.715042 171.595444,165.711731 167.108505,177.089264 
	C164.835831,182.852066 162.637238,188.644058 159.969086,195.551865 
	C156.753830,186.492218 154.068787,178.680252 151.155563,170.954330 
	C150.655319,169.627701 149.209671,167.732620 148.155121,167.702606 
	C143.941086,167.582642 139.709061,168.095032 134.976761,168.406845 
	C135.642899,170.405701 135.925995,171.498016 136.361908,172.525513 
	C140.654373,182.643494 145.156311,192.679047 149.140320,202.916428 
	C150.024887,205.189392 149.871506,208.494385 148.889679,210.757416 
	C144.516388,220.837433 139.655716,230.705566 135.011734,240.669174 
	C134.493225,241.781616 134.232635,243.014297 133.725204,244.585068 
	C137.277771,244.782013 140.268784,244.756897 143.201843,245.156830 
	C147.229919,245.706039 149.071579,244.079620 150.381927,240.236755 
	C153.004379,232.545731 156.269577,225.073853 159.539276,216.831177 
	C161.862656,223.057648 164.528473,228.484573 165.887695,234.221100 
	C168.315170,244.466125 173.907150,249.525848 185.469910,247.929230 
z"/>
<path fill="#F2F7F4" opacity="1.000000" stroke="none" 
	d="
M299.361969,120.347450 
	C304.104004,121.087013 306.169495,124.037529 306.292511,128.653000 
	C306.358948,131.146744 306.627441,133.637833 306.628571,136.130188 
	C306.649506,182.759460 306.649048,229.388733 306.629547,276.018005 
	C306.628510,278.510864 306.512634,281.011932 306.290863,283.494934 
	C305.647369,290.699585 303.709686,292.695770 296.639954,292.711456 
	C273.160248,292.763519 249.680222,292.677551 225.715302,292.163940 
	C225.180649,289.633209 225.131042,287.583099 225.545685,285.512695 
	C250.400970,285.492462 274.792023,285.492462 299.260223,285.492462 
	C299.260223,232.455872 299.260223,180.380386 299.260223,127.741203 
	C296.975403,127.741203 295.015564,127.748520 293.055786,127.740089 
	C270.404358,127.642662 247.752945,127.542854 225.159668,127.064880 
	C225.478500,124.469513 225.739212,122.252945 225.999908,120.036377 
	C249.355209,120.010521 272.710510,119.984657 296.783600,120.199493 
	C298.121582,120.409279 298.741760,120.378365 299.361969,120.347450 
z"/>
<path fill="#90B9A2" opacity="1.000000" stroke="none" 
	d="
M225.755630,119.860519 
	C225.739212,122.252945 225.478500,124.469513 224.872803,127.240540 
	C224.100891,127.921669 223.673996,128.048340 223.247070,128.174988 
	C223.118820,125.292686 222.990555,122.410385 223.062805,119.181580 
	C224.012665,119.118271 224.762009,119.401459 225.755630,119.860519 
z"/>
<path fill="#90B9A2" opacity="1.000000" stroke="none" 
	d="
M225.081436,285.532959 
	C225.131042,287.583099 225.180649,289.633209 225.278015,292.062500 
	C224.884293,292.653381 224.442841,292.865112 223.636948,293.129517 
	C223.131012,290.622833 222.989502,288.063507 223.366669,285.237762 
	C224.284042,285.158539 224.682739,285.345734 225.081436,285.532959 
z"/>
<path fill="#90B9A2" opacity="1.000000" stroke="none" 
	d="
M194.885712,312.831970 
	C195.749512,312.678558 196.821594,312.793030 198.115479,313.160522 
	C197.256195,313.308960 196.175095,313.204407 194.885712,312.831970 
z"/>
<path fill="#90B9A2" opacity="1.000000" stroke="none" 
	d="
M172.854614,308.657532 
	C173.649765,308.478333 174.565674,308.545990 175.742676,308.858765 
	C174.994308,309.037415 173.984833,308.970917 172.854614,308.657532 
z"/>
<path fill="#90B9A2" opacity="1.000000" stroke="none" 
	d="
M164.270111,307.007385 
	C165.020706,306.844177 166.040131,306.925598 167.186829,307.252014 
	C166.389038,307.415344 165.463989,307.333679 164.270111,307.007385 
z"/>
<path fill="#90B9A2" opacity="1.000000" stroke="none" 
	d="
M119.945786,298.658356 
	C120.811966,298.510010 121.876259,298.637146 123.160339,299.014435 
	C122.301384,299.154327 121.222641,299.044067 119.945786,298.658356 
z"/>
<path fill="#90B9A2" opacity="1.000000" stroke="none" 
	d="
M157.898300,305.799469 
	C158.758362,305.645142 159.829102,305.756195 161.126587,306.114258 
	C160.271881,306.262421 159.190430,306.163635 157.898300,305.799469 
z"/>
<path fill="#90B9A2" opacity="1.000000" stroke="none" 
	d="
M151.823944,304.763733 
	C152.604874,304.575897 153.522858,304.621368 154.722961,304.889099 
	C153.990402,305.073273 152.975708,305.035156 151.823944,304.763733 
z"/>
<path fill="#90B9A2" opacity="1.000000" stroke="none" 
	d="
M141.834473,302.791016 
	C142.618362,302.621185 143.554840,302.679504 144.748260,302.997375 
	C143.999161,303.177643 142.993103,303.098358 141.834473,302.791016 
z"/>
<path fill="#90B9A2" opacity="1.000000" stroke="none" 
	d="
M135.833878,301.719116 
	C136.630112,301.536743 137.553085,301.597778 138.740845,301.905823 
	C137.990616,302.089386 136.975616,302.025940 135.833878,301.719116 
z"/>
<path fill="#90B9A2" opacity="1.000000" stroke="none" 
	d="
M130.817429,300.849487 
	C131.583176,300.654297 132.507538,300.672058 133.718399,300.901764 
	C132.995285,301.096619 131.985657,301.079559 130.817429,300.849487 
z"/>
<path fill="#90B9A2" opacity="1.000000" stroke="none" 
	d="
M104.887482,295.867401 
	C105.749390,295.709351 106.831482,295.805969 108.124176,296.168610 
	C107.259071,296.330475 106.183365,296.226288 104.887482,295.867401 
z"/>
<path fill="#90B9A2" opacity="1.000000" stroke="none" 
	d="
M147.793076,303.941986 
	C148.277725,303.737152 148.900635,303.711182 149.763962,303.902008 
	C149.313370,304.119476 148.622345,304.120178 147.793076,303.941986 
z"/>
<path fill="#90B9A2" opacity="1.000000" stroke="none" 
	d="
M127.133026,300.003906 
	C127.592506,299.795288 128.184586,299.791138 128.890625,300.003967 
	C128.424911,300.216766 127.845268,300.212585 127.133026,300.003906 
z"/>
<path fill="#90B9A2" opacity="1.000000" stroke="none" 
	d="
M114.766266,297.812988 
	C115.282738,297.601715 115.897278,297.605286 116.756546,297.819824 
	C116.288963,298.029785 115.576653,298.028778 114.766266,297.812988 
z"/>
<path fill="#90B9A2" opacity="1.000000" stroke="none" 
	d="
M169.140762,308.014679 
	C169.568192,307.800201 170.136612,307.768555 170.854431,307.911621 
	C170.429810,308.123352 169.855789,308.160431 169.140762,308.014679 
z"/>
<path fill="#90B9A2" opacity="1.000000" stroke="none" 
	d="
M111.146263,297.035431 
	C111.582932,296.824799 112.166588,296.797607 112.877769,296.970032 
	C112.434616,297.186096 111.863930,297.202484 111.146263,297.035431 
z"/>
<path fill="#90B9A2" opacity="1.000000" stroke="none" 
	d="
M179.839966,309.954590 
	C180.428650,309.756561 181.210312,309.800720 182.176407,310.095947 
	C181.584869,310.296906 180.808899,310.246857 179.839966,309.954590 
z"/>
<path fill="#90B9A2" opacity="1.000000" stroke="none" 
	d="
M185.146271,310.994934 
	C185.578217,310.783020 186.157410,310.750336 186.870178,310.912109 
	C186.433655,311.129120 185.863586,311.151642 185.146271,310.994934 
z"/>
<path fill="#90B9A2" opacity="1.000000" stroke="none" 
	d="
M188.791473,311.700134 
	C189.319809,311.498138 189.931625,311.517334 190.771698,311.767181 
	C190.291611,311.972351 189.583282,311.946838 188.791473,311.700134 
z"/>
<path fill="#90B9A2" opacity="1.000000" stroke="none" 
	d="
M299.244965,120.144318 
	C298.741760,120.378365 298.121582,120.409279 297.251373,120.232208 
	C297.710236,119.996544 298.419098,119.968872 299.244965,120.144318 
z"/>
<path fill="#90B9A2" opacity="1.000000" stroke="none" 
	d="
M201.241760,314.037415 
	C201.722504,313.841980 202.445145,313.870209 203.268280,314.117462 
	C202.740417,314.311340 202.112030,314.286224 201.241760,314.037415 
z"/>
<path fill="#2A7A4E" opacity="1.000000" stroke="none" 
	d="
M225.545685,285.512695 
	C224.682739,285.345734 224.284042,285.158539 223.562836,284.899994 
	C223.237061,280.205353 223.233810,275.582092 223.570496,270.559448 
	C224.319199,270.034119 224.727921,269.908203 225.586456,269.881836 
	C231.126846,269.981415 236.217422,269.981415 241.785248,269.981415 
	C241.785248,264.728058 241.907776,260.096985 241.680206,255.483185 
	C241.635544,254.577957 240.230362,252.985626 239.463730,252.992218 
	C234.348297,253.036285 229.235886,253.428223 223.983337,253.404175 
	C223.651382,252.990555 223.458542,252.879974 223.265717,252.769409 
	C223.253616,249.807022 223.241501,246.844650 223.599792,243.484070 
	C224.405594,242.923462 224.840988,242.761032 225.715408,242.703064 
	C230.284576,242.843033 234.434525,243.112427 238.532242,242.765137 
	C239.694656,242.666626 241.525009,240.863800 241.659897,239.683792 
	C243.324402,225.122940 243.083328,224.915741 228.702194,225.104584 
	C227.550629,225.119705 226.400757,225.263931 224.934143,225.215607 
	C224.167984,225.043060 223.717819,225.003082 223.267639,224.963089 
	C223.257126,221.954437 223.246628,218.945801 223.562592,215.577362 
	C224.290894,215.109802 224.692734,215.002060 225.547211,214.994049 
	C231.072968,215.093811 236.146103,215.093811 242.065750,215.093811 
	C241.717117,209.192291 241.401413,203.848007 240.955414,198.143951 
	C234.975296,197.712738 229.125488,197.641281 223.275665,197.569824 
	C223.257431,194.717560 223.239197,191.865295 223.619385,188.556122 
	C224.769241,187.921997 225.520660,187.744781 226.718246,187.586044 
	C230.957047,187.602463 234.776520,187.851425 238.526566,187.450714 
	C239.704285,187.324875 241.517426,185.543304 241.646790,184.366425 
	C243.214203,170.108704 243.072266,170.015671 228.755280,170.217010 
	C227.606659,170.233154 226.459900,170.382431 224.988220,170.317856 
	C224.195465,170.099136 223.726746,170.032410 223.258041,169.965698 
	C223.244812,167.320374 223.231567,164.675049 223.670319,161.478973 
	C226.550339,160.863388 228.989349,160.920563 231.403748,160.703751 
	C234.641373,160.413025 237.859970,159.910355 241.332382,159.120712 
	C241.651169,154.623550 241.606171,150.497711 241.835892,146.387253 
	C242.011215,143.249939 240.578110,142.364975 237.700089,142.488815 
	C233.911926,142.651840 230.112396,142.550430 225.951294,142.410614 
	C224.803619,142.121536 224.022385,141.984573 223.241150,141.847626 
	C223.233917,137.591202 223.226685,133.334778 223.233261,128.626678 
	C223.673996,128.048340 224.100891,127.921669 224.814667,127.619339 
	C247.752945,127.542854 270.404358,127.642662 293.055786,127.740089 
	C295.015564,127.748520 296.975403,127.741203 299.260223,127.741203 
	C299.260223,180.380386 299.260223,232.455872 299.260223,285.492462 
	C274.792023,285.492462 250.400970,285.492462 225.545685,285.512695 
M251.160110,176.626785 
	C251.159470,178.789780 251.328354,180.969299 251.119415,183.111984 
	C250.784912,186.542542 252.007309,187.913986 255.585693,187.731293 
	C260.564240,187.477142 265.565491,187.667496 270.557007,187.667496 
	C283.990936,187.667526 283.990631,187.667526 283.482941,174.115814 
	C283.464264,173.617233 283.666260,172.956863 283.419586,172.649338 
	C282.702759,171.755661 281.821442,170.314651 280.984222,170.300552 
	C271.228485,170.136322 261.468964,170.195404 251.159210,170.195404 
	C251.159210,172.457458 251.159210,174.074127 251.160110,176.626785 
M251.171707,236.348969 
	C251.842651,238.781448 249.197174,242.931259 254.557907,242.937805 
	C263.047180,242.948151 271.540131,243.057693 280.021454,242.797119 
	C281.186554,242.761337 283.143158,240.955872 283.298828,239.779861 
	C285.206604,225.364166 284.898743,225.079269 270.694366,225.079269 
	C267.531708,225.079269 264.369019,225.079269 261.206360,225.079269 
	C257.967865,225.079269 254.729385,225.079269 251.172104,225.079269 
	C251.172104,229.123169 251.172104,232.266525 251.171707,236.348969 
M281.318207,252.883743 
	C272.675629,252.863495 264.030975,252.742569 255.392624,252.924179 
	C253.986572,252.953735 251.473160,254.231796 251.405396,255.086227 
	C251.018707,259.961060 251.217697,264.882324 251.217697,270.083160 
	C261.504974,270.083160 270.965698,270.123840 280.424805,270.020355 
	C281.373596,270.009949 283.141327,269.104095 283.129761,268.649353 
	C282.998169,263.467499 282.594360,258.292603 281.318207,252.883743 
M251.185242,206.536133 
	C251.185242,209.298721 251.185242,212.061295 251.185242,214.768234 
	C262.330078,214.768234 272.716492,214.768234 283.429565,214.768234 
	C283.429565,210.184219 283.302094,206.030655 283.471985,201.889313 
	C283.596222,198.860779 282.426880,197.758835 279.408813,197.806549 
	C271.253906,197.935455 263.094543,197.926422 254.939301,197.808548 
	C252.142822,197.768127 250.919876,198.769608 251.163544,201.587830 
	C251.277832,202.909760 251.184464,204.249649 251.185242,206.536133 
M277.390198,160.083847 
	C282.127228,160.863953 284.155121,158.999390 283.475952,154.125641 
	C283.203979,152.173828 283.231781,150.128052 283.471954,148.167770 
	C283.991577,143.926880 282.597229,142.084564 278.031128,142.457153 
	C273.419159,142.833481 268.752594,142.541122 264.109924,142.541183 
	C250.693039,142.541351 250.807281,142.538773 251.100204,155.990524 
	C251.173752,159.368179 252.396866,160.221207 255.524612,160.141205 
	C262.484070,159.963211 269.451172,160.084122 277.390198,160.083847 
z"/>
<path fill="#2C7B4F" opacity="1.000000" stroke="none" 
	d="
M185.072861,247.924728 
	C173.907150,249.525848 168.315170,244.466125 165.887695,234.221100 
	C164.528473,228.484573 161.862656,223.057648 159.539276,216.831177 
	C156.269577,225.073853 153.004379,232.545731 150.381927,240.236755 
	C149.071579,244.079620 147.229919,245.706039 143.201843,245.156830 
	C140.268784,244.756897 137.277771,244.782013 133.725204,244.585068 
	C134.232635,243.014297 134.493225,241.781616 135.011734,240.669174 
	C139.655716,230.705566 144.516388,220.837433 148.889679,210.757416 
	C149.871506,208.494385 150.024887,205.189392 149.140320,202.916428 
	C145.156311,192.679047 140.654373,182.643494 136.361908,172.525513 
	C135.925995,171.498016 135.642899,170.405701 134.976761,168.406845 
	C139.709061,168.095032 143.941086,167.582642 148.155121,167.702606 
	C149.209671,167.732620 150.655319,169.627701 151.155563,170.954330 
	C154.068787,178.680252 156.753830,186.492218 159.969086,195.551865 
	C162.637238,188.644058 164.835831,182.852066 167.108505,177.089264 
	C171.595444,165.711731 171.612228,165.715042 183.938950,165.086304 
	C184.581070,165.053543 185.230286,165.159882 186.698792,165.254425 
	C185.897400,167.520996 185.356354,169.492477 184.524048,171.332169 
	C179.854996,181.652405 174.962524,191.875687 170.527756,202.294403 
	C169.624741,204.415909 169.558334,207.575256 170.462570,209.670929 
	C175.410324,221.137619 180.836105,232.397293 185.917709,243.808212 
	C186.403488,244.899078 185.648758,246.542389 185.072861,247.924728 
z"/>
<path fill="#90B9A2" opacity="1.000000" stroke="none" 
	d="
M223.042053,142.222534 
	C224.022385,141.984573 224.803619,142.121536 225.768158,142.755417 
	C225.700455,147.802658 225.261032,152.357285 225.364792,156.899506 
	C225.384445,157.760040 227.509079,159.191010 228.749191,159.291809 
	C232.840286,159.624298 236.971146,159.467575 241.086746,159.498672 
	C237.859970,159.910355 234.641373,160.413025 231.403748,160.703751 
	C228.989349,160.920563 226.550339,160.863388 223.680634,161.039948 
	C223.106949,154.966934 222.974945,148.782181 223.042053,142.222534 
z"/>
<path fill="#90B9A2" opacity="1.000000" stroke="none" 
	d="
M225.094589,214.894302 
	C224.692734,215.002060 224.290894,215.109802 223.588013,215.127228 
	C223.139771,209.371613 222.992554,203.706329 223.060501,197.805420 
	C229.125488,197.641281 234.975296,197.712738 240.485458,198.156235 
	C236.681320,198.536484 233.209442,198.688873 229.754486,198.511688 
	C226.418350,198.340576 224.885574,199.480606 225.071136,203.019211 
	C225.278168,206.967133 225.103256,210.935074 225.094589,214.894302 
z"/>
<path fill="#90B9A2" opacity="1.000000" stroke="none" 
	d="
M226.272079,187.567581 
	C225.520660,187.744781 224.769241,187.921997 223.630402,188.128021 
	C223.098206,182.321686 222.953430,176.486496 223.033356,170.308502 
	C223.726746,170.032410 224.195465,170.099136 224.949249,170.752106 
	C225.580261,176.748093 225.926163,182.157837 226.272079,187.567581 
z"/>
<path fill="#90B9A2" opacity="1.000000" stroke="none" 
	d="
M225.276382,242.598587 
	C224.840988,242.761032 224.405594,242.923462 223.620453,243.058029 
	C223.118347,237.235916 222.965973,231.441650 223.040619,225.305237 
	C223.717819,225.003082 224.167984,225.043060 224.911377,225.659821 
	C225.228531,231.690582 225.252457,237.144577 225.276382,242.598587 
z"/>
<path fill="#90B9A2" opacity="1.000000" stroke="none" 
	d="
M225.136658,269.782288 
	C224.727921,269.908203 224.319199,270.034119 223.594055,270.096802 
	C223.126175,264.468750 222.974731,258.903931 223.044495,253.054260 
	C223.458542,252.879974 223.651382,252.990555 224.004700,253.820282 
	C224.489014,259.620392 224.812836,264.701324 225.136658,269.782288 
z"/>
<path fill="#F2F7F4" opacity="1.000000" stroke="none" 
	d="
M251.159668,176.158783 
	C251.159210,174.074127 251.159210,172.457458 251.159210,170.195404 
	C261.468964,170.195404 271.228485,170.136322 280.984222,170.300552 
	C281.821442,170.314651 282.702759,171.755661 283.419586,172.649338 
	C283.666260,172.956863 283.464264,173.617233 283.482941,174.115814 
	C283.990631,187.667526 283.990936,187.667526 270.557007,187.667496 
	C265.565491,187.667496 260.564240,187.477142 255.585693,187.731293 
	C252.007309,187.913986 250.784912,186.542542 251.119415,183.111984 
	C251.328354,180.969299 251.159470,178.789780 251.159668,176.158783 
z"/>
<path fill="#F5F9F6" opacity="1.000000" stroke="none" 
	d="
M251.171906,235.879425 
	C251.172104,232.266525 251.172104,229.123169 251.172104,225.079269 
	C254.729385,225.079269 257.967865,225.079269 261.206360,225.079269 
	C264.369019,225.079269 267.531708,225.079269 270.694366,225.079269 
	C284.898743,225.079269 285.206604,225.364166 283.298828,239.779861 
	C283.143158,240.955872 281.186554,242.761337 280.021454,242.797119 
	C271.540131,243.057693 263.047180,242.948151 254.557907,242.937805 
	C249.197174,242.931259 251.842651,238.781448 251.171906,235.879425 
z"/>
<path fill="#F7FAF8" opacity="1.000000" stroke="none" 
	d="
M281.790771,252.999786 
	C282.594360,258.292603 282.998169,263.467499 283.129761,268.649353 
	C283.141327,269.104095 281.373596,270.009949 280.424805,270.020355 
	C270.965698,270.123840 261.504974,270.083160 251.217697,270.083160 
	C251.217697,264.882324 251.018707,259.961060 251.405396,255.086227 
	C251.473160,254.231796 253.986572,252.953735 255.392624,252.924179 
	C264.030975,252.742569 272.675629,252.863495 281.790771,252.999786 
z"/>
<path fill="#F8FAF9" opacity="1.000000" stroke="none" 
	d="
M251.185242,206.058762 
	C251.184464,204.249649 251.277832,202.909760 251.163544,201.587830 
	C250.919876,198.769608 252.142822,197.768127 254.939301,197.808548 
	C263.094543,197.926422 271.253906,197.935455 279.408813,197.806549 
	C282.426880,197.758835 283.596222,198.860779 283.471985,201.889313 
	C283.302094,206.030655 283.429565,210.184219 283.429565,214.768234 
	C272.716492,214.768234 262.330078,214.768234 251.185242,214.768234 
	C251.185242,212.061295 251.185242,209.298721 251.185242,206.058762 
z"/>
<path fill="#F7FAF8" opacity="1.000000" stroke="none" 
	d="
M276.902679,160.083527 
	C269.451172,160.084122 262.484070,159.963211 255.524612,160.141205 
	C252.396866,160.221207 251.173752,159.368179 251.100204,155.990524 
	C250.807281,142.538773 250.693039,142.541351 264.109924,142.541183 
	C268.752594,142.541122 273.419159,142.833481 278.031128,142.457153 
	C282.597229,142.084564 283.991577,143.926880 283.471954,148.167770 
	C283.231781,150.128052 283.203979,152.173828 283.475952,154.125641 
	C284.155121,158.999390 282.127228,160.863953 276.902679,160.083527 
z"/>
<path fill="#F9FBFA" opacity="1.000000" stroke="none" 
	d="
M225.715408,242.703064 
	C225.252457,237.144577 225.228531,231.690582 225.227356,225.792358 
	C226.400757,225.263931 227.550629,225.119705 228.702194,225.104584 
	C243.083328,224.915741 243.324402,225.122940 241.659897,239.683792 
	C241.525009,240.863800 239.694656,242.666626 238.532242,242.765137 
	C234.434525,243.112427 230.284576,242.843033 225.715408,242.703064 
z"/>
<path fill="#F7FAF8" opacity="1.000000" stroke="none" 
	d="
M225.586472,269.881836 
	C224.812836,264.701324 224.489014,259.620392 224.143829,254.123306 
	C229.235886,253.428223 234.348297,253.036285 239.463730,252.992218 
	C240.230362,252.985626 241.635544,254.577957 241.680206,255.483185 
	C241.907776,260.096985 241.785248,264.728058 241.785248,269.981415 
	C236.217422,269.981415 231.126846,269.981415 225.586472,269.881836 
z"/>
<path fill="#FBFDFC" opacity="1.000000" stroke="none" 
	d="
M226.718246,187.586044 
	C225.926163,182.157837 225.580261,176.748093 225.273315,170.904099 
	C226.459900,170.382431 227.606659,170.233154 228.755280,170.217010 
	C243.072266,170.015671 243.214203,170.108704 241.646790,184.366425 
	C241.517426,185.543304 239.704285,187.324875 238.526566,187.450714 
	C234.776520,187.851425 230.957047,187.602463 226.718246,187.586044 
z"/>
<path fill="#F8FAF9" opacity="1.000000" stroke="none" 
	d="
M241.332382,159.120728 
	C236.971146,159.467575 232.840286,159.624298 228.749191,159.291809 
	C227.509079,159.191010 225.384445,157.760040 225.364792,156.899506 
	C225.261032,152.357285 225.700455,147.802658 226.134613,142.907532 
	C230.112396,142.550430 233.911926,142.651840 237.700089,142.488815 
	C240.578110,142.364975 242.011215,143.249939 241.835892,146.387253 
	C241.606171,150.497711 241.651169,154.623550 241.332382,159.120728 
z"/>
<path fill="#F8FBF9" opacity="1.000000" stroke="none" 
	d="
M225.547211,214.994049 
	C225.103256,210.935074 225.278168,206.967133 225.071136,203.019211 
	C224.885574,199.480606 226.418350,198.340576 229.754486,198.511688 
	C233.209442,198.688873 236.681320,198.536484 240.615753,198.515991 
	C241.401413,203.848007 241.717117,209.192291 242.065750,215.093811 
	C236.146103,215.093811 231.072968,215.093811 225.547211,214.994049 
z"/>
</svg>

