<?xml version="1.0" encoding="UTF-8"?>
<!DOCTYPE svg PUBLIC "-//W3C//DTD SVG 1.1//EN" "http://www.w3.org/Graphics/SVG/1.1/DTD/svg11.dtd">
<svg xmlns="http://www.w3.org/2000/svg" version="1.1" width="404px" height="409px" style="shape-rendering:geometricPrecision; text-rendering:geometricPrecision; image-rendering:optimizeQuality; fill-rule:evenodd; clip-rule:evenodd" xmlns:xlink="http://www.w3.org/1999/xlink">
<g><path style="opacity:1" fill="#f2f2f2" d="M -0.5,-0.5 C 134.167,-0.5 268.833,-0.5 403.5,-0.5C 403.5,60.8333 403.5,122.167 403.5,183.5C 401.167,183.5 398.833,183.5 396.5,183.5C 396.5,184.833 396.5,186.167 396.5,187.5C 393.941,149.159 381.275,114.492 358.5,83.5C 364.167,83.5 369.833,83.5 375.5,83.5C 375.5,76.8333 375.5,70.1667 375.5,63.5C 382.167,63.5 388.833,63.5 395.5,63.5C 395.5,56.8333 395.5,50.1667 395.5,43.5C 388.833,43.5 382.167,43.5 375.5,43.5C 375.5,36.8333 375.5,30.1667 375.5,23.5C 382.167,23.5 388.833,23.5 395.5,23.5C 395.5,16.8333 395.5,10.1667 395.5,3.5C 388.833,3.5 382.167,3.5 375.5,3.5C 368.833,3.5 362.167,3.5 355.5,3.5C 348.833,3.5 342.167,3.5 335.5,3.5C 328.833,3.5 322.167,3.5 315.5,3.5C 308.833,3.5 302.167,3.5 295.5,3.5C 288.833,3.5 282.167,3.5 275.5,3.5C 276.103,8.6186 275.436,13.2853 273.5,17.5C 231.122,2.28373 188.122,0.450392 144.5,12C 134.527,15.1557 124.86,18.989 115.5,23.5C 115.5,16.8333 115.5,10.1667 115.5,3.5C 108.833,3.5 102.167,3.5 95.5,3.5C 95.5,10.1667 95.5,16.8333 95.5,23.5C 88.8333,23.5 82.1667,23.5 75.5,23.5C 75.5,16.8333 75.5,10.1667 75.5,3.5C 68.8333,3.5 62.1667,3.5 55.5,3.5C 55.5,10.1667 55.5,16.8333 55.5,23.5C 48.8333,23.5 42.1667,23.5 35.5,23.5C 35.5,16.8333 35.5,10.1667 35.5,3.5C 28.8333,3.5 22.1667,3.5 15.5,3.5C 15.5,10.1667 15.5,16.8333 15.5,23.5C 10.1667,23.5 4.83333,23.5 -0.5,23.5C -0.5,15.5 -0.5,7.5 -0.5,-0.5 Z"/></g>
<g><path style="opacity:1" fill="#fefffe" d="M 375.5,3.5 C 382.167,3.5 388.833,3.5 395.5,3.5C 395.5,10.1667 395.5,16.8333 395.5,23.5C 388.833,23.5 382.167,23.5 375.5,23.5C 375.5,16.8333 375.5,10.1667 375.5,3.5 Z"/></g>
<g><path style="opacity:1" fill="#edeeed" d="M 355.5,3.5 C 362.167,3.5 368.833,3.5 375.5,3.5C 375.5,10.1667 375.5,16.8333 375.5,23.5C 368.833,23.5 362.167,23.5 355.5,23.5C 355.5,16.8333 355.5,10.1667 355.5,3.5 Z"/></g>
<g><path style="opacity:1" fill="#fefffe" d="M 335.5,3.5 C 342.167,3.5 348.833,3.5 355.5,3.5C 355.5,10.1667 355.5,16.8333 355.5,23.5C 348.833,23.5 342.167,23.5 335.5,23.5C 335.5,16.8333 335.5,10.1667 335.5,3.5 Z"/></g>
<g><path style="opacity:1" fill="#edeeed" d="M 315.5,3.5 C 322.167,3.5 328.833,3.5 335.5,3.5C 335.5,10.1667 335.5,16.8333 335.5,23.5C 328.833,23.5 322.167,23.5 315.5,23.5C 315.5,16.8333 315.5,10.1667 315.5,3.5 Z"/></g>
<g><path style="opacity:1" fill="#fefffe" d="M 295.5,3.5 C 302.167,3.5 308.833,3.5 315.5,3.5C 315.5,10.1667 315.5,16.8333 315.5,23.5C 308.833,23.5 302.167,23.5 295.5,23.5C 295.5,16.8333 295.5,10.1667 295.5,3.5 Z"/></g>
<g><path style="opacity:1" fill="#fefefe" d="M 115.5,23.5 C 115.167,23.5 114.833,23.5 114.5,23.5C 108.167,23.5 101.833,23.5 95.5,23.5C 95.5,16.8333 95.5,10.1667 95.5,3.5C 102.167,3.5 108.833,3.5 115.5,3.5C 115.5,10.1667 115.5,16.8333 115.5,23.5 Z"/></g>
<g><path style="opacity:1" fill="#fefffe" d="M 75.5,23.5 C 68.8333,23.5 62.1667,23.5 55.5,23.5C 55.5,16.8333 55.5,10.1667 55.5,3.5C 62.1667,3.5 68.8333,3.5 75.5,3.5C 75.5,10.1667 75.5,16.8333 75.5,23.5 Z"/></g>
<g><path style="opacity:1" fill="#fefffe" d="M 35.5,23.5 C 28.8333,23.5 22.1667,23.5 15.5,23.5C 15.5,16.8333 15.5,10.1667 15.5,3.5C 22.1667,3.5 28.8333,3.5 35.5,3.5C 35.5,10.1667 35.5,16.8333 35.5,23.5 Z"/></g>
<g><path style="opacity:1" fill="#227547" d="M 273.5,17.5 C 288.07,24.1184 302.07,31.7851 315.5,40.5C 316.436,41.9744 317.77,42.9744 319.5,43.5C 324.793,48.1568 330.126,52.8235 335.5,57.5C 337.194,59.8606 339.194,61.8606 341.5,63.5C 346.568,68.5626 351.235,73.8959 355.5,79.5C 356.5,80.8333 357.5,82.1667 358.5,83.5C 381.275,114.492 393.941,149.159 396.5,187.5C 396.5,192.833 396.5,198.167 396.5,203.5C 396.287,210.174 395.954,216.841 395.5,223.5C 391.065,260.013 378.065,293.013 356.5,322.5C 349.563,330.774 342.23,338.774 334.5,346.5C 317.167,361.841 297.833,374.175 276.5,383.5C 243.979,396.193 210.313,400.86 175.5,397.5C 147.267,393.226 120.934,383.559 96.5,368.5C 70.0737,351.407 48.7403,329.407 32.5,302.5C 25.6608,289.826 19.6608,276.826 14.5,263.5C 9.07901,243.888 6.07901,223.888 5.5,203.5C 5.5,197.167 5.5,190.833 5.5,184.5C 6.56778,177.643 7.56778,170.643 8.5,163.5C 9.82568,157.528 11.159,151.528 12.5,145.5C 17.1247,130.975 23.1247,116.975 30.5,103.5C 47.067,75.6024 68.7337,52.6024 95.5,34.5C 102.032,31.0708 108.366,27.4041 114.5,23.5C 114.833,23.5 115.167,23.5 115.5,23.5C 124.86,18.989 134.527,15.1557 144.5,12C 188.122,0.450392 231.122,2.28373 273.5,17.5 Z"/></g>
<g><path style="opacity:1" fill="#fefffe" d="M -0.5,23.5 C 4.83333,23.5 10.1667,23.5 15.5,23.5C 15.5,30.1667 15.5,36.8333 15.5,43.5C 10.1667,43.5 4.83333,43.5 -0.5,43.5C -0.5,36.8333 -0.5,30.1667 -0.5,23.5 Z"/></g>
<g><path style="opacity:1" fill="#edeeed" d="M 15.5,23.5 C 22.1667,23.5 28.8333,23.5 35.5,23.5C 35.5,30.1667 35.5,36.8333 35.5,43.5C 28.8333,43.5 22.1667,43.5 15.5,43.5C 15.5,36.8333 15.5,30.1667 15.5,23.5 Z"/></g>
<g><path style="opacity:1" fill="#fefffe" d="M 35.5,23.5 C 42.1667,23.5 48.8333,23.5 55.5,23.5C 55.5,30.1667 55.5,36.8333 55.5,43.5C 48.8333,43.5 42.1667,43.5 35.5,43.5C 35.5,36.8333 35.5,30.1667 35.5,23.5 Z"/></g>
<g><path style="opacity:1" fill="#edeeed" d="M 55.5,23.5 C 62.1667,23.5 68.8333,23.5 75.5,23.5C 75.5,30.1667 75.5,36.8333 75.5,43.5C 68.8333,43.5 62.1667,43.5 55.5,43.5C 55.5,36.8333 55.5,30.1667 55.5,23.5 Z"/></g>
<g><path style="opacity:1" fill="#e9ebea" d="M 95.5,23.5 C 101.833,23.5 108.167,23.5 114.5,23.5C 108.366,27.4041 102.032,31.0708 95.5,34.5C 95.5,30.8333 95.5,27.1667 95.5,23.5 Z"/></g>
<g><path style="opacity:1" fill="#ebecec" d="M 295.5,3.5 C 295.5,10.1667 295.5,16.8333 295.5,23.5C 302.167,23.5 308.833,23.5 315.5,23.5C 315.5,29.1667 315.5,34.8333 315.5,40.5C 302.07,31.7851 288.07,24.1184 273.5,17.5C 275.436,13.2853 276.103,8.6186 275.5,3.5C 282.167,3.5 288.833,3.5 295.5,3.5 Z"/></g>
<g><path style="opacity:1" fill="#fefefe" d="M 315.5,23.5 C 322.167,23.5 328.833,23.5 335.5,23.5C 335.5,30.1667 335.5,36.8333 335.5,43.5C 330.167,43.5 324.833,43.5 319.5,43.5C 317.77,42.9744 316.436,41.9744 315.5,40.5C 315.5,34.8333 315.5,29.1667 315.5,23.5 Z"/></g>
<g><path style="opacity:1" fill="#edeeed" d="M 335.5,23.5 C 342.167,23.5 348.833,23.5 355.5,23.5C 355.5,30.1667 355.5,36.8333 355.5,43.5C 348.833,43.5 342.167,43.5 335.5,43.5C 335.5,36.8333 335.5,30.1667 335.5,23.5 Z"/></g>
<g><path style="opacity:1" fill="#fefffe" d="M 355.5,23.5 C 362.167,23.5 368.833,23.5 375.5,23.5C 375.5,30.1667 375.5,36.8333 375.5,43.5C 368.833,43.5 362.167,43.5 355.5,43.5C 355.5,36.8333 355.5,30.1667 355.5,23.5 Z"/></g>
<g><path style="opacity:1" fill="#edeeed" d="M -0.5,43.5 C 4.83333,43.5 10.1667,43.5 15.5,43.5C 15.5,50.1667 15.5,56.8333 15.5,63.5C 10.1667,63.5 4.83333,63.5 -0.5,63.5C -0.5,56.8333 -0.5,50.1667 -0.5,43.5 Z"/></g>
<g><path style="opacity:1" fill="#fefffe" d="M 15.5,43.5 C 22.1667,43.5 28.8333,43.5 35.5,43.5C 35.5,50.1667 35.5,56.8333 35.5,63.5C 28.8333,63.5 22.1667,63.5 15.5,63.5C 15.5,56.8333 15.5,50.1667 15.5,43.5 Z"/></g>
<g><path style="opacity:1" fill="#edeeed" d="M 35.5,43.5 C 42.1667,43.5 48.8333,43.5 55.5,43.5C 55.5,50.1667 55.5,56.8333 55.5,63.5C 48.8333,63.5 42.1667,63.5 35.5,63.5C 35.5,56.8333 35.5,50.1667 35.5,43.5 Z"/></g>
<g><path style="opacity:1" fill="#fbfcfb" d="M 75.5,23.5 C 82.1667,23.5 88.8333,23.5 95.5,23.5C 95.5,27.1667 95.5,30.8333 95.5,34.5C 68.7337,52.6024 47.067,75.6024 30.5,103.5C 25.5,103.5 20.5,103.5 15.5,103.5C 15.5,96.8333 15.5,90.1667 15.5,83.5C 22.1667,83.5 28.8333,83.5 35.5,83.5C 35.5,76.8333 35.5,70.1667 35.5,63.5C 42.1667,63.5 48.8333,63.5 55.5,63.5C 55.5,56.8333 55.5,50.1667 55.5,43.5C 62.1667,43.5 68.8333,43.5 75.5,43.5C 75.5,36.8333 75.5,30.1667 75.5,23.5 Z"/></g>
<g><path style="opacity:1" fill="#e7eae8" d="M 319.5,43.5 C 324.833,43.5 330.167,43.5 335.5,43.5C 335.5,48.1667 335.5,52.8333 335.5,57.5C 330.126,52.8235 324.793,48.1568 319.5,43.5 Z"/></g>
<g><path style="opacity:1" fill="#fdfefe" d="M 335.5,43.5 C 342.167,43.5 348.833,43.5 355.5,43.5C 355.5,50.1667 355.5,56.8333 355.5,63.5C 350.833,63.5 346.167,63.5 341.5,63.5C 339.194,61.8606 337.194,59.8606 335.5,57.5C 335.5,52.8333 335.5,48.1667 335.5,43.5 Z"/></g>
<g><path style="opacity:1" fill="#edeeed" d="M 355.5,43.5 C 362.167,43.5 368.833,43.5 375.5,43.5C 375.5,50.1667 375.5,56.8333 375.5,63.5C 368.833,63.5 362.167,63.5 355.5,63.5C 355.5,56.8333 355.5,50.1667 355.5,43.5 Z"/></g>
<g><path style="opacity:1" fill="#fefffe" d="M 375.5,43.5 C 382.167,43.5 388.833,43.5 395.5,43.5C 395.5,50.1667 395.5,56.8333 395.5,63.5C 388.833,63.5 382.167,63.5 375.5,63.5C 375.5,56.8333 375.5,50.1667 375.5,43.5 Z"/></g>
<g><path style="opacity:1" fill="#fefffe" d="M -0.5,63.5 C 4.83333,63.5 10.1667,63.5 15.5,63.5C 15.5,70.1667 15.5,76.8333 15.5,83.5C 10.1667,83.5 4.83333,83.5 -0.5,83.5C -0.5,76.8333 -0.5,70.1667 -0.5,63.5 Z"/></g>
<g><path style="opacity:1" fill="#edeeed" d="M 15.5,63.5 C 22.1667,63.5 28.8333,63.5 35.5,63.5C 35.5,70.1667 35.5,76.8333 35.5,83.5C 28.8333,83.5 22.1667,83.5 15.5,83.5C 15.5,76.8333 15.5,70.1667 15.5,63.5 Z"/></g>
<g><path style="opacity:1" fill="#e8eae9" d="M 341.5,63.5 C 346.167,63.5 350.833,63.5 355.5,63.5C 355.5,68.8333 355.5,74.1667 355.5,79.5C 351.235,73.8959 346.568,68.5626 341.5,63.5 Z"/></g>
<g><path style="opacity:1" fill="#fefefe" d="M 355.5,63.5 C 362.167,63.5 368.833,63.5 375.5,63.5C 375.5,70.1667 375.5,76.8333 375.5,83.5C 369.833,83.5 364.167,83.5 358.5,83.5C 357.5,82.1667 356.5,80.8333 355.5,79.5C 355.5,74.1667 355.5,68.8333 355.5,63.5 Z"/></g>
<g><path style="opacity:1" fill="#edeeed" d="M -0.5,83.5 C 4.83333,83.5 10.1667,83.5 15.5,83.5C 15.5,90.1667 15.5,96.8333 15.5,103.5C 10.1667,103.5 4.83333,103.5 -0.5,103.5C -0.5,96.8333 -0.5,90.1667 -0.5,83.5 Z"/></g>
<g><path style="opacity:1" fill="#fefffe" d="M 375.5,83.5 C 382.167,83.5 388.833,83.5 395.5,83.5C 395.5,90.1667 395.5,96.8333 395.5,103.5C 388.833,103.5 382.167,103.5 375.5,103.5C 375.5,96.8333 375.5,90.1667 375.5,83.5 Z"/></g>
<g><path style="opacity:1" fill="#a5c6b4" d="M 206.5,98.5 C 206.5,98.8333 206.5,99.1667 206.5,99.5C 202.546,100.381 198.546,101.048 194.5,101.5C 198.159,99.6578 202.159,98.6578 206.5,98.5 Z"/></g>
<g><path style="opacity:1" fill="#fdfefe" d="M 206.5,99.5 C 211.167,99.5 215.833,99.5 220.5,99.5C 220.5,170.5 220.5,241.5 220.5,312.5C 210.758,312.755 201.092,312.089 191.5,310.5C 183.944,309.962 176.61,308.629 169.5,306.5C 168.833,306.5 168.167,306.5 167.5,306.5C 167.082,305.778 166.416,305.278 165.5,305C 158.435,304.076 151.435,302.91 144.5,301.5C 143.167,301.5 141.833,301.5 140.5,301.5C 138.095,300.232 135.428,299.565 132.5,299.5C 131.5,299.5 130.5,299.5 129.5,299.5C 127.485,298.076 125.152,297.41 122.5,297.5C 119.833,297.167 117.167,296.833 114.5,296.5C 110.774,294.87 106.774,293.87 102.5,293.5C 102.171,235.095 102.504,176.762 103.5,118.5C 113.055,116.982 122.388,114.982 131.5,112.5C 136.795,112.322 141.795,111.322 146.5,109.5C 147.833,109.5 149.167,109.5 150.5,109.5C 157.461,108.989 164.127,107.656 170.5,105.5C 170.833,105.5 171.167,105.5 171.5,105.5C 175.36,105.192 179.026,104.525 182.5,103.5C 186.36,102.196 190.36,101.529 194.5,101.5C 198.546,101.048 202.546,100.381 206.5,99.5 Z"/></g>
<g><path style="opacity:1" fill="#fefffe" d="M -0.5,103.5 C 4.83333,103.5 10.1667,103.5 15.5,103.5C 15.5,110.167 15.5,116.833 15.5,123.5C 10.1667,123.5 4.83333,123.5 -0.5,123.5C -0.5,116.833 -0.5,110.167 -0.5,103.5 Z"/></g>
<g><path style="opacity:1" fill="#8eb8a0" d="M 182.5,103.5 C 179.026,104.525 175.36,105.192 171.5,105.5C 174.845,103.783 178.511,103.116 182.5,103.5 Z"/></g>
<g><path style="opacity:1" fill="#a2c5b1" d="M 170.5,105.5 C 164.127,107.656 157.461,108.989 150.5,109.5C 150.918,108.778 151.584,108.278 152.5,108C 158.504,107.118 164.504,106.285 170.5,105.5 Z"/></g>
<g><path style="opacity:1" fill="#5c9876" d="M 146.5,109.5 C 141.795,111.322 136.795,112.322 131.5,112.5C 131.167,112.5 130.833,112.5 130.5,112.5C 135.606,110.956 140.939,109.956 146.5,109.5 Z"/></g>
<g><path style="opacity:1" fill="#a2c4b1" d="M 130.5,112.5 C 130.833,112.5 131.167,112.5 131.5,112.5C 122.388,114.982 113.055,116.982 103.5,118.5C 102.833,118.5 102.167,118.5 101.5,118.5C 110.883,115.756 120.549,113.756 130.5,112.5 Z"/></g>
<g><path style="opacity:1" fill="#c8dcd1" d="M 223.5,119.5 C 248.328,118.502 273.328,118.169 298.5,118.5C 299.5,119.167 300.5,119.833 301.5,120.5C 275.521,119.546 249.521,119.213 223.5,119.5 Z"/></g>
<g><path style="opacity:1" fill="#e6efea" d="M 101.5,118.5 C 102.167,118.5 102.833,118.5 103.5,118.5C 102.504,176.762 102.171,235.095 102.5,293.5C 102.167,293.5 101.833,293.5 101.5,293.5C 101.5,235.167 101.5,176.833 101.5,118.5 Z"/></g>
<g><path style="opacity:1" fill="#fbfcfb" d="M 223.5,119.5 C 249.521,119.213 275.521,119.546 301.5,120.5C 303.262,121.262 304.262,122.596 304.5,124.5C 304.5,176.5 304.5,228.5 304.5,280.5C 304.662,282.527 304.495,284.527 304,286.5C 302.624,287.705 301.458,289.038 300.5,290.5C 274.833,290.5 249.167,290.5 223.5,290.5C 223.5,288.5 223.5,286.5 223.5,284.5C 248.5,284.5 273.5,284.5 298.5,284.5C 298.832,231.664 298.499,178.997 297.5,126.5C 273.006,125.502 248.339,125.169 223.5,125.5C 223.5,123.5 223.5,121.5 223.5,119.5 Z"/></g>
<g><path style="opacity:1" fill="#edeeed" d="M 15.5,103.5 C 20.5,103.5 25.5,103.5 30.5,103.5C 23.1247,116.975 17.1247,130.975 12.5,145.5C 8.62733,143.57 4.29399,142.903 -0.5,143.5C -0.5,136.833 -0.5,130.167 -0.5,123.5C 4.83333,123.5 10.1667,123.5 15.5,123.5C 15.5,116.833 15.5,110.167 15.5,103.5 Z"/></g>
<g><path style="opacity:1" fill="#5c9976" d="M 304.5,124.5 C 305.29,125.609 305.79,126.942 306,128.5C 306.167,153.833 306.333,179.167 306.5,204.5C 306.5,230.176 305.833,255.509 304.5,280.5C 304.5,228.5 304.5,176.5 304.5,124.5 Z"/></g>
<g><path style="opacity:1" fill="#fdfefd" d="M -0.5,143.5 C 4.29399,142.903 8.62733,143.57 12.5,145.5C 11.159,151.528 9.82568,157.528 8.5,163.5C 5.5,163.5 2.5,163.5 -0.5,163.5C -0.5,156.833 -0.5,150.167 -0.5,143.5 Z"/></g>
<g><path style="opacity:1" fill="#ebecec" d="M -0.5,163.5 C 2.5,163.5 5.5,163.5 8.5,163.5C 7.56778,170.643 6.56778,177.643 5.5,184.5C 3.73535,183.539 1.73535,183.205 -0.5,183.5C -0.5,176.833 -0.5,170.167 -0.5,163.5 Z"/></g>
<g><path style="opacity:1" fill="#93bba4" d="M 169.5,164.5 C 174.64,163.512 179.974,163.179 185.5,163.5C 185.737,164.791 185.404,165.791 184.5,166.5C 179.944,164.558 174.944,163.892 169.5,164.5 Z"/></g>
<g><path style="opacity:1" fill="#a9c9b7" d="M 148.5,166.5 C 143.807,166.54 139.141,166.873 134.5,167.5C 134.629,169.216 134.962,170.883 135.5,172.5C 134.883,172.389 134.383,172.056 134,171.5C 133.505,169.527 133.338,167.527 133.5,165.5C 138.695,165.179 143.695,165.513 148.5,166.5 Z"/></g>
<g><path style="opacity:1" fill="#29794c" d="M 169.5,164.5 C 174.944,163.892 179.944,164.558 184.5,166.5C 178.433,178.801 172.767,191.301 167.5,204C 169.05,207.317 170.217,210.817 171,214.5C 175.8,222.818 179.966,231.485 183.5,240.5C 184.038,242.117 184.371,243.784 184.5,245.5C 179.5,245.5 174.5,245.5 169.5,245.5C 168.956,241.534 167.623,237.867 165.5,234.5C 165.245,232.033 164.245,230.033 162.5,228.5C 161.762,223.871 160.262,219.538 158,215.5C 153.985,224.72 150.485,234.053 147.5,243.5C 142.5,243.5 137.5,243.5 132.5,243.5C 132.343,242.127 132.51,240.793 133,239.5C 138.135,229.575 142.968,219.575 147.5,209.5C 149.825,205.401 149.492,201.401 146.5,197.5C 143.085,189.009 139.419,180.675 135.5,172.5C 134.962,170.883 134.629,169.216 134.5,167.5C 139.141,166.873 143.807,166.54 148.5,166.5C 151.292,171.875 153.292,177.542 154.5,183.5C 155.463,187.101 156.13,190.767 156.5,194.5C 159.779,193.969 161.113,191.969 160.5,188.5C 161.583,183.914 163.25,179.581 165.5,175.5C 167.834,173.824 168.834,171.491 168.5,168.5C 169.234,167.292 169.567,165.959 169.5,164.5 Z"/></g>
<g><path style="opacity:1" fill="#72a688" d="M 168.5,168.5 C 168.834,171.491 167.834,173.824 165.5,175.5C 165.935,172.843 166.935,170.509 168.5,168.5 Z"/></g>
<g><path style="opacity:1" fill="#fefffe" d="M -0.5,183.5 C 1.73535,183.205 3.73535,183.539 5.5,184.5C 5.5,190.833 5.5,197.167 5.5,203.5C 3.5,203.5 1.5,203.5 -0.5,203.5C -0.5,196.833 -0.5,190.167 -0.5,183.5 Z"/></g>
<g><path style="opacity:1" fill="#fefefe" d="M 403.5,183.5 C 403.5,190.167 403.5,196.833 403.5,203.5C 401.167,203.5 398.833,203.5 396.5,203.5C 396.5,198.167 396.5,192.833 396.5,187.5C 396.5,186.167 396.5,184.833 396.5,183.5C 398.833,183.5 401.167,183.5 403.5,183.5 Z"/></g>
<g><path style="opacity:1" fill="#79ab8e" d="M 154.5,183.5 C 156.008,185.985 157.341,188.652 158.5,191.5C 159.176,190.398 159.842,189.398 160.5,188.5C 161.113,191.969 159.779,193.969 156.5,194.5C 156.13,190.767 155.463,187.101 154.5,183.5 Z"/></g>
<g><path style="opacity:1" fill="#d6e5dc" d="M 206.5,99.5 C 206.5,99.1667 206.5,98.8333 206.5,98.5C 211.5,98.5 216.5,98.5 221.5,98.5C 221.5,170.167 221.5,241.833 221.5,313.5C 211.416,313.829 201.416,313.163 191.5,311.5C 191.5,311.167 191.5,310.833 191.5,310.5C 201.092,312.089 210.758,312.755 220.5,312.5C 220.5,241.5 220.5,170.5 220.5,99.5C 215.833,99.5 211.167,99.5 206.5,99.5 Z"/></g>
<g><path style="opacity:1" fill="#ebeceb" d="M 396.5,203.5 C 398.833,203.5 401.167,203.5 403.5,203.5C 403.5,210.167 403.5,216.833 403.5,223.5C 400.833,223.5 398.167,223.5 395.5,223.5C 395.954,216.841 396.287,210.174 396.5,203.5 Z"/></g>
<g><path style="opacity:1" fill="#bbd4c5" d="M 146.5,197.5 C 149.492,201.401 149.825,205.401 147.5,209.5C 147.495,205.466 147.162,201.466 146.5,197.5 Z"/></g>
<g><path style="opacity:1" fill="#86b399" d="M 221.5,98.5 C 222.49,104.645 222.823,110.978 222.5,117.5C 248.005,117.169 273.339,117.502 298.5,118.5C 273.328,118.169 248.328,118.502 223.5,119.5C 223.5,121.5 223.5,123.5 223.5,125.5C 248.339,125.169 273.006,125.502 297.5,126.5C 298.499,178.997 298.832,231.664 298.5,284.5C 273.5,284.5 248.5,284.5 223.5,284.5C 223.5,286.5 223.5,288.5 223.5,290.5C 249.167,290.5 274.833,290.5 300.5,290.5C 274.672,291.498 248.672,291.831 222.5,291.5C 222.825,299.019 222.492,306.352 221.5,313.5C 221.5,241.833 221.5,170.167 221.5,98.5 Z"/></g>
<g><path style="opacity:1" fill="#f8fbf9" d="M 223.5,196.5 C 228.833,196.5 234.167,196.5 239.5,196.5C 239.5,202.167 239.5,207.833 239.5,213.5C 234.167,213.5 228.833,213.5 223.5,213.5C 223.5,207.833 223.5,202.167 223.5,196.5 Z"/></g>
<g><path style="opacity:1" fill="#aacab8" d="M 224.5,169.5 C 224.5,169.167 224.5,168.833 224.5,168.5C 229.833,168.5 235.167,168.5 240.5,168.5C 240.5,174.5 240.5,180.5 240.5,186.5C 235.167,186.5 229.833,186.5 224.5,186.5C 224.5,186.167 224.5,185.833 224.5,185.5C 229.5,185.5 234.5,185.5 239.5,185.5C 239.5,180.167 239.5,174.833 239.5,169.5C 234.5,169.5 229.5,169.5 224.5,169.5 Z"/></g>
<g><path style="opacity:1" fill="#fbfdfc" d="M 224.5,169.5 C 229.5,169.5 234.5,169.5 239.5,169.5C 239.5,174.833 239.5,180.167 239.5,185.5C 234.5,185.5 229.5,185.5 224.5,185.5C 223.167,180.167 223.167,174.833 224.5,169.5 Z"/></g>
<g><path style="opacity:1" fill="#c9ddd1" d="M 240.5,141.5 C 240.5,147.167 240.5,152.833 240.5,158.5C 234.833,158.5 229.167,158.5 223.5,158.5C 223.5,152.833 223.5,147.167 223.5,141.5C 229.167,141.5 234.833,141.5 240.5,141.5 Z"/></g>
<g><path style="opacity:1" fill="#fdfefe" d="M 224.5,142.5 C 229.5,142.5 234.5,142.5 239.5,142.5C 239.5,147.5 239.5,152.5 239.5,157.5C 234.5,157.5 229.5,157.5 224.5,157.5C 224.5,152.5 224.5,147.5 224.5,142.5 Z"/></g>
<g><path style="opacity:1" fill="#27774a" d="M 297.5,126.5 C 297.5,178.833 297.5,231.167 297.5,283.5C 272.5,283.5 247.5,283.5 222.5,283.5C 222.5,278.833 222.5,274.167 222.5,269.5C 228.5,269.5 234.5,269.5 240.5,269.5C 240.5,263.167 240.5,256.833 240.5,250.5C 234.5,250.5 228.5,250.5 222.5,250.5C 222.19,247.287 222.523,244.287 223.5,241.5C 229.167,241.5 234.833,241.5 240.5,241.5C 240.5,235.5 240.5,229.5 240.5,223.5C 234.833,223.5 229.167,223.5 223.5,223.5C 222.523,220.713 222.19,217.713 222.5,214.5C 228.509,214.666 234.509,214.499 240.5,214C 241.833,208 241.833,202 240.5,196C 234.509,195.501 228.509,195.334 222.5,195.5C 221.945,191.988 222.612,188.988 224.5,186.5C 229.833,186.5 235.167,186.5 240.5,186.5C 240.5,180.5 240.5,174.5 240.5,168.5C 235.167,168.5 229.833,168.5 224.5,168.5C 222.612,166.012 221.945,163.012 222.5,159.5C 228.69,159.823 234.69,159.49 240.5,158.5C 240.5,152.833 240.5,147.167 240.5,141.5C 234.69,140.51 228.69,140.177 222.5,140.5C 222.5,135.833 222.5,131.167 222.5,126.5C 247.5,126.5 272.5,126.5 297.5,126.5 Z"/></g>
<g><path style="opacity:1" fill="#d1e2d9" d="M 249.5,196.5 C 260.5,196.5 271.5,196.5 282.5,196.5C 282.5,202.167 282.5,207.833 282.5,213.5C 271.5,213.5 260.5,213.5 249.5,213.5C 249.5,207.833 249.5,202.167 249.5,196.5 Z"/></g>
<g><path style="opacity:1" fill="#fefefe" d="M 250.5,197.5 C 260.5,197.5 270.5,197.5 280.5,197.5C 280.5,202.5 280.5,207.5 280.5,212.5C 270.5,212.5 260.5,212.5 250.5,212.5C 250.5,207.5 250.5,202.5 250.5,197.5 Z"/></g>
<g><path style="opacity:1" fill="#a7c8b6" d="M 281.5,185.5 C 271.013,186.494 260.346,186.828 249.5,186.5C 249.5,180.5 249.5,174.5 249.5,168.5C 260.5,168.5 271.5,168.5 282.5,168.5C 282.822,174.358 282.489,180.025 281.5,185.5 Z"/></g>
<g><path style="opacity:1" fill="#fdfdfd" d="M 281.5,185.5 C 271.167,185.5 260.833,185.5 250.5,185.5C 250.5,180.167 250.5,174.833 250.5,169.5C 260.833,169.5 271.167,169.5 281.5,169.5C 281.5,174.833 281.5,180.167 281.5,185.5 Z"/></g>
<g><path style="opacity:1" fill="#c3d9cc" d="M 249.5,141.5 C 249.833,141.5 250.167,141.5 250.5,141.5C 250.5,146.833 250.5,152.167 250.5,157.5C 260.833,157.5 271.167,157.5 281.5,157.5C 281.5,157.833 281.5,158.167 281.5,158.5C 270.833,158.5 260.167,158.5 249.5,158.5C 249.5,152.833 249.5,147.167 249.5,141.5 Z"/></g>
<g><path style="opacity:1" fill="#fcfdfc" d="M 250.5,141.5 C 260.833,141.5 271.167,141.5 281.5,141.5C 281.5,146.833 281.5,152.167 281.5,157.5C 271.167,157.5 260.833,157.5 250.5,157.5C 250.5,152.167 250.5,146.833 250.5,141.5 Z"/></g>
<g><path style="opacity:1" fill="#8bb69f" d="M 249.5,141.5 C 260.321,140.505 271.321,140.172 282.5,140.5C 282.823,146.69 282.49,152.69 281.5,158.5C 281.5,158.167 281.5,157.833 281.5,157.5C 281.5,152.167 281.5,146.833 281.5,141.5C 271.167,141.5 260.833,141.5 250.5,141.5C 250.167,141.5 249.833,141.5 249.5,141.5 Z"/></g>
<g><path style="opacity:1" fill="#fcfdfc" d="M 223.5,224.5 C 228.833,224.5 234.167,224.5 239.5,224.5C 239.5,229.833 239.5,235.167 239.5,240.5C 234.167,240.5 228.833,240.5 223.5,240.5C 223.5,235.167 223.5,229.833 223.5,224.5 Z"/></g>
<g><path style="opacity:1" fill="#b5d0c1" d="M 223.5,224.5 C 223.5,224.167 223.5,223.833 223.5,223.5C 229.167,223.5 234.833,223.5 240.5,223.5C 240.5,229.5 240.5,235.5 240.5,241.5C 234.833,241.5 229.167,241.5 223.5,241.5C 223.5,241.167 223.5,240.833 223.5,240.5C 228.833,240.5 234.167,240.5 239.5,240.5C 239.5,235.167 239.5,229.833 239.5,224.5C 234.167,224.5 228.833,224.5 223.5,224.5 Z"/></g>
<g><path style="opacity:1" fill="#9cc1ac" d="M 162.5,228.5 C 164.245,230.033 165.245,232.033 165.5,234.5C 163.755,232.967 162.755,230.967 162.5,228.5 Z"/></g>
<g><path style="opacity:1" fill="#b3cfbf" d="M 249.5,223.5 C 260.5,223.5 271.5,223.5 282.5,223.5C 282.5,229.5 282.5,235.5 282.5,241.5C 271.5,241.5 260.5,241.5 249.5,241.5C 249.5,235.5 249.5,229.5 249.5,223.5 Z"/></g>
<g><path style="opacity:1" fill="#fdfefd" d="M 250.5,224.5 C 260.833,224.5 271.167,224.5 281.5,224.5C 281.5,229.833 281.5,235.167 281.5,240.5C 271.167,240.5 260.833,240.5 250.5,240.5C 250.5,235.167 250.5,229.833 250.5,224.5 Z"/></g>
<g><path style="opacity:1" fill="#eef0ef" d="M -0.5,203.5 C 1.5,203.5 3.5,203.5 5.5,203.5C 6.07901,223.888 9.07901,243.888 14.5,263.5C 9.5,263.5 4.5,263.5 -0.5,263.5C -0.5,243.5 -0.5,223.5 -0.5,203.5 Z"/></g>
<g><path style="opacity:1" fill="#f8f8f8" d="M 395.5,223.5 C 398.167,223.5 400.833,223.5 403.5,223.5C 403.5,285.167 403.5,346.833 403.5,408.5C 394.167,408.5 384.833,408.5 375.5,408.5C 375.5,406.833 375.5,405.167 375.5,403.5C 382.167,403.5 388.833,403.5 395.5,403.5C 395.5,396.833 395.5,390.167 395.5,383.5C 388.833,383.5 382.167,383.5 375.5,383.5C 375.5,376.833 375.5,370.167 375.5,363.5C 382.167,363.5 388.833,363.5 395.5,363.5C 395.5,356.833 395.5,350.167 395.5,343.5C 388.833,343.5 382.167,343.5 375.5,343.5C 375.5,336.833 375.5,330.167 375.5,323.5C 368.978,323.823 362.645,323.49 356.5,322.5C 378.065,293.013 391.065,260.013 395.5,223.5 Z"/></g>
<g><path style="opacity:1" fill="#81b096" d="M 183.5,240.5 C 185.28,241.99 185.946,243.99 185.5,246.5C 179.974,246.821 174.64,246.488 169.5,245.5C 174.5,245.5 179.5,245.5 184.5,245.5C 184.371,243.784 184.038,242.117 183.5,240.5 Z"/></g>
<g><path style="opacity:1" fill="#f8fbf9" d="M 223.5,251.5 C 228.833,251.5 234.167,251.5 239.5,251.5C 239.5,257.167 239.5,262.833 239.5,268.5C 234.167,268.5 228.833,268.5 223.5,268.5C 223.5,262.833 223.5,257.167 223.5,251.5 Z"/></g>
<g><path style="opacity:1" fill="#cddfd5" d="M 249.5,251.5 C 260.5,251.5 271.5,251.5 282.5,251.5C 282.5,257.167 282.5,262.833 282.5,268.5C 271.5,268.5 260.5,268.5 249.5,268.5C 249.5,262.833 249.5,257.167 249.5,251.5 Z"/></g>
<g><path style="opacity:1" fill="#fefefe" d="M 250.5,252.5 C 260.5,252.5 270.5,252.5 280.5,252.5C 280.5,257.5 280.5,262.5 280.5,267.5C 270.5,267.5 260.5,267.5 250.5,267.5C 250.5,262.5 250.5,257.5 250.5,252.5 Z"/></g>
<g><path style="opacity:1" fill="#edeeed" d="M -0.5,283.5 C 4.83333,283.5 10.1667,283.5 15.5,283.5C 15.5,290.167 15.5,296.833 15.5,303.5C 10.1667,303.5 4.83333,303.5 -0.5,303.5C -0.5,296.833 -0.5,290.167 -0.5,283.5 Z"/></g>
<g><path style="opacity:1" fill="#f9fbfa" d="M -0.5,263.5 C 4.5,263.5 9.5,263.5 14.5,263.5C 19.6608,276.826 25.6608,289.826 32.5,302.5C 27.0247,303.489 21.358,303.822 15.5,303.5C 15.5,296.833 15.5,290.167 15.5,283.5C 10.1667,283.5 4.83333,283.5 -0.5,283.5C -0.5,276.833 -0.5,270.167 -0.5,263.5 Z"/></g>
<g><path style="opacity:1" fill="#9abfaa" d="M 101.5,293.5 C 101.833,293.5 102.167,293.5 102.5,293.5C 106.774,293.87 110.774,294.87 114.5,296.5C 110.837,296.048 107.17,295.548 103.5,295C 102.584,294.722 101.918,294.222 101.5,293.5 Z"/></g>
<g><path style="opacity:1" fill="#8eb8a0" d="M 122.5,297.5 C 125.152,297.41 127.485,298.076 129.5,299.5C 126.848,299.59 124.515,298.924 122.5,297.5 Z"/></g>
<g><path style="opacity:1" fill="#72a689" d="M 132.5,299.5 C 135.428,299.565 138.095,300.232 140.5,301.5C 138.143,301.663 135.81,301.497 133.5,301C 132.944,300.617 132.611,300.117 132.5,299.5 Z"/></g>
<g><path style="opacity:1" fill="#96bda7" d="M 144.5,301.5 C 151.435,302.91 158.435,304.076 165.5,305C 166.416,305.278 167.082,305.778 167.5,306.5C 161.844,305.669 156.177,304.835 150.5,304C 148.277,303.434 146.277,302.6 144.5,301.5 Z"/></g>
<g><path style="opacity:1" fill="#fefffe" d="M -0.5,303.5 C 4.83333,303.5 10.1667,303.5 15.5,303.5C 15.5,310.167 15.5,316.833 15.5,323.5C 10.1667,323.5 4.83333,323.5 -0.5,323.5C -0.5,316.833 -0.5,310.167 -0.5,303.5 Z"/></g>
<g><path style="opacity:1" fill="#edeeed" d="M 375.5,323.5 C 375.5,316.833 375.5,310.167 375.5,303.5C 382.167,303.5 388.833,303.5 395.5,303.5C 395.5,310.167 395.5,316.833 395.5,323.5C 388.833,323.5 382.167,323.5 375.5,323.5 Z"/></g>
<g><path style="opacity:1" fill="#559470" d="M 169.5,306.5 C 176.61,308.629 183.944,309.962 191.5,310.5C 191.5,310.833 191.5,311.167 191.5,311.5C 184.309,311.02 177.309,309.853 170.5,308C 169.944,307.617 169.611,307.117 169.5,306.5 Z"/></g>
<g><path style="opacity:1" fill="#edeeed" d="M -0.5,323.5 C 4.83333,323.5 10.1667,323.5 15.5,323.5C 15.5,330.167 15.5,336.833 15.5,343.5C 10.1667,343.5 4.83333,343.5 -0.5,343.5C -0.5,336.833 -0.5,330.167 -0.5,323.5 Z"/></g>
<g><path style="opacity:1" fill="#fefffe" d="M 15.5,323.5 C 22.1667,323.5 28.8333,323.5 35.5,323.5C 35.5,330.167 35.5,336.833 35.5,343.5C 28.8333,343.5 22.1667,343.5 15.5,343.5C 15.5,336.833 15.5,330.167 15.5,323.5 Z"/></g>
<g><path style="opacity:1" fill="#fefffe" d="M -0.5,343.5 C 4.83333,343.5 10.1667,343.5 15.5,343.5C 15.5,350.167 15.5,356.833 15.5,363.5C 10.1667,363.5 4.83333,363.5 -0.5,363.5C -0.5,356.833 -0.5,350.167 -0.5,343.5 Z"/></g>
<g><path style="opacity:1" fill="#edeeed" d="M 15.5,343.5 C 22.1667,343.5 28.8333,343.5 35.5,343.5C 35.5,350.167 35.5,356.833 35.5,363.5C 28.8333,363.5 22.1667,363.5 15.5,363.5C 15.5,356.833 15.5,350.167 15.5,343.5 Z"/></g>
<g><path style="opacity:1" fill="#fefffe" d="M 35.5,343.5 C 42.1667,343.5 48.8333,343.5 55.5,343.5C 55.5,350.167 55.5,356.833 55.5,363.5C 48.8333,363.5 42.1667,363.5 35.5,363.5C 35.5,356.833 35.5,350.167 35.5,343.5 Z"/></g>
<g><path style="opacity:1" fill="#eeefef" d="M 32.5,302.5 C 48.7403,329.407 70.0737,351.407 96.5,368.5C 95.5128,373.305 95.1795,378.305 95.5,383.5C 88.8333,383.5 82.1667,383.5 75.5,383.5C 75.5,376.833 75.5,370.167 75.5,363.5C 68.8333,363.5 62.1667,363.5 55.5,363.5C 55.5,356.833 55.5,350.167 55.5,343.5C 48.8333,343.5 42.1667,343.5 35.5,343.5C 35.5,336.833 35.5,330.167 35.5,323.5C 28.8333,323.5 22.1667,323.5 15.5,323.5C 15.5,316.833 15.5,310.167 15.5,303.5C 21.358,303.822 27.0247,303.489 32.5,302.5 Z"/></g>
<g><path style="opacity:1" fill="#eeefef" d="M 356.5,322.5 C 362.645,323.49 368.978,323.823 375.5,323.5C 375.5,330.167 375.5,336.833 375.5,343.5C 368.833,343.5 362.167,343.5 355.5,343.5C 355.5,350.167 355.5,356.833 355.5,363.5C 348.833,363.5 342.167,363.5 335.5,363.5C 335.822,357.642 335.489,351.975 334.5,346.5C 342.23,338.774 349.563,330.774 356.5,322.5 Z"/></g>
<g><path style="opacity:1" fill="#fefffe" d="M 375.5,343.5 C 375.5,350.167 375.5,356.833 375.5,363.5C 368.833,363.5 362.167,363.5 355.5,363.5C 355.5,356.833 355.5,350.167 355.5,343.5C 362.167,343.5 368.833,343.5 375.5,343.5 Z"/></g>
<g><path style="opacity:1" fill="#edeeed" d="M 375.5,343.5 C 382.167,343.5 388.833,343.5 395.5,343.5C 395.5,350.167 395.5,356.833 395.5,363.5C 388.833,363.5 382.167,363.5 375.5,363.5C 375.5,356.833 375.5,350.167 375.5,343.5 Z"/></g>
<g><path style="opacity:1" fill="#fefffe" d="M 15.5,363.5 C 22.1667,363.5 28.8333,363.5 35.5,363.5C 35.5,370.167 35.5,376.833 35.5,383.5C 28.8333,383.5 22.1667,383.5 15.5,383.5C 15.5,376.833 15.5,370.167 15.5,363.5 Z"/></g>
<g><path style="opacity:1" fill="#edeeed" d="M 35.5,363.5 C 42.1667,363.5 48.8333,363.5 55.5,363.5C 55.5,370.167 55.5,376.833 55.5,383.5C 48.8333,383.5 42.1667,383.5 35.5,383.5C 35.5,376.833 35.5,370.167 35.5,363.5 Z"/></g>
<g><path style="opacity:1" fill="#fefffe" d="M 55.5,363.5 C 62.1667,363.5 68.8333,363.5 75.5,363.5C 75.5,370.167 75.5,376.833 75.5,383.5C 68.8333,383.5 62.1667,383.5 55.5,383.5C 55.5,376.833 55.5,370.167 55.5,363.5 Z"/></g>
<g><path style="opacity:1" fill="#edeeed" d="M 335.5,363.5 C 335.5,370.167 335.5,376.833 335.5,383.5C 328.833,383.5 322.167,383.5 315.5,383.5C 315.5,376.833 315.5,370.167 315.5,363.5C 322.167,363.5 328.833,363.5 335.5,363.5 Z"/></g>
<g><path style="opacity:1" fill="#fefffe" d="M 335.5,363.5 C 342.167,363.5 348.833,363.5 355.5,363.5C 355.5,370.167 355.5,376.833 355.5,383.5C 348.833,383.5 342.167,383.5 335.5,383.5C 335.5,376.833 335.5,370.167 335.5,363.5 Z"/></g>
<g><path style="opacity:1" fill="#edeeed" d="M 355.5,363.5 C 362.167,363.5 368.833,363.5 375.5,363.5C 375.5,370.167 375.5,376.833 375.5,383.5C 368.833,383.5 362.167,383.5 355.5,383.5C 355.5,376.833 355.5,370.167 355.5,363.5 Z"/></g>
<g><path style="opacity:1" fill="#f7f7f7" d="M -0.5,363.5 C 4.83333,363.5 10.1667,363.5 15.5,363.5C 15.5,370.167 15.5,376.833 15.5,383.5C 15.5,390.167 15.5,396.833 15.5,403.5C 22.1667,403.5 28.8333,403.5 35.5,403.5C 42.1667,403.5 48.8333,403.5 55.5,403.5C 62.1667,403.5 68.8333,403.5 75.5,403.5C 82.1667,403.5 88.8333,403.5 95.5,403.5C 102.167,403.5 108.833,403.5 115.5,403.5C 115.5,396.833 115.5,390.167 115.5,383.5C 108.833,383.5 102.167,383.5 95.5,383.5C 95.1795,378.305 95.5128,373.305 96.5,368.5C 120.934,383.559 147.267,393.226 175.5,397.5C 175.5,399.5 175.5,401.5 175.5,403.5C 182.167,403.5 188.833,403.5 195.5,403.5C 195.5,405.167 195.5,406.833 195.5,408.5C 130.167,408.5 64.8333,408.5 -0.5,408.5C -0.5,393.5 -0.5,378.5 -0.5,363.5 Z"/></g>
<g><path style="opacity:1" fill="#edeeed" d="M 15.5,383.5 C 22.1667,383.5 28.8333,383.5 35.5,383.5C 35.5,390.167 35.5,396.833 35.5,403.5C 28.8333,403.5 22.1667,403.5 15.5,403.5C 15.5,396.833 15.5,390.167 15.5,383.5 Z"/></g>
<g><path style="opacity:1" fill="#fefffe" d="M 35.5,383.5 C 42.1667,383.5 48.8333,383.5 55.5,383.5C 55.5,390.167 55.5,396.833 55.5,403.5C 48.8333,403.5 42.1667,403.5 35.5,403.5C 35.5,396.833 35.5,390.167 35.5,383.5 Z"/></g>
<g><path style="opacity:1" fill="#edeeed" d="M 55.5,383.5 C 62.1667,383.5 68.8333,383.5 75.5,383.5C 75.5,390.167 75.5,396.833 75.5,403.5C 68.8333,403.5 62.1667,403.5 55.5,403.5C 55.5,396.833 55.5,390.167 55.5,383.5 Z"/></g>
<g><path style="opacity:1" fill="#fefffe" d="M 75.5,383.5 C 82.1667,383.5 88.8333,383.5 95.5,383.5C 95.5,390.167 95.5,396.833 95.5,403.5C 88.8333,403.5 82.1667,403.5 75.5,403.5C 75.5,396.833 75.5,390.167 75.5,383.5 Z"/></g>
<g><path style="opacity:1" fill="#edeeed" d="M 95.5,383.5 C 102.167,383.5 108.833,383.5 115.5,383.5C 115.5,390.167 115.5,396.833 115.5,403.5C 108.833,403.5 102.167,403.5 95.5,403.5C 95.5,396.833 95.5,390.167 95.5,383.5 Z"/></g>
<g><path style="opacity:1" fill="#fcfdfd" d="M 334.5,346.5 C 335.489,351.975 335.822,357.642 335.5,363.5C 328.833,363.5 322.167,363.5 315.5,363.5C 315.5,370.167 315.5,376.833 315.5,383.5C 308.833,383.5 302.167,383.5 295.5,383.5C 295.5,390.167 295.5,396.833 295.5,403.5C 288.833,403.5 282.167,403.5 275.5,403.5C 275.207,396.745 275.54,390.078 276.5,383.5C 297.833,374.175 317.167,361.841 334.5,346.5 Z"/></g>
<g><path style="opacity:1" fill="#fefffe" d="M 355.5,383.5 C 362.167,383.5 368.833,383.5 375.5,383.5C 375.5,390.167 375.5,396.833 375.5,403.5C 368.833,403.5 362.167,403.5 355.5,403.5C 355.5,396.833 355.5,390.167 355.5,383.5 Z"/></g>
<g><path style="opacity:1" fill="#edeeed" d="M 375.5,383.5 C 382.167,383.5 388.833,383.5 395.5,383.5C 395.5,390.167 395.5,396.833 395.5,403.5C 388.833,403.5 382.167,403.5 375.5,403.5C 375.5,396.833 375.5,390.167 375.5,383.5 Z"/></g>
<g><path style="opacity:1" fill="#f1f2f1" d="M 276.5,383.5 C 275.54,390.078 275.207,396.745 275.5,403.5C 282.167,403.5 288.833,403.5 295.5,403.5C 295.5,396.833 295.5,390.167 295.5,383.5C 302.167,383.5 308.833,383.5 315.5,383.5C 315.5,390.167 315.5,396.833 315.5,403.5C 322.167,403.5 328.833,403.5 335.5,403.5C 335.5,396.833 335.5,390.167 335.5,383.5C 342.167,383.5 348.833,383.5 355.5,383.5C 355.5,390.167 355.5,396.833 355.5,403.5C 362.167,403.5 368.833,403.5 375.5,403.5C 375.5,405.167 375.5,406.833 375.5,408.5C 315.5,408.5 255.5,408.5 195.5,408.5C 195.5,406.833 195.5,405.167 195.5,403.5C 188.833,403.5 182.167,403.5 175.5,403.5C 175.5,401.5 175.5,399.5 175.5,397.5C 210.313,400.86 243.979,396.193 276.5,383.5 Z"/></g>
<g><path style="opacity:1" fill="#fefffe" d="M 315.5,383.5 C 322.167,383.5 328.833,383.5 335.5,383.5C 335.5,390.167 335.5,396.833 335.5,403.5C 328.833,403.5 322.167,403.5 315.5,403.5C 315.5,396.833 315.5,390.167 315.5,383.5 Z"/></g>
</svg>

