<svg version="1.1" id="Layer_1" xmlns="http://www.w3.org/2000/svg" xmlns:xlink="http://www.w3.org/1999/xlink" x="0px" y="0px"
	 width="100%" viewBox="0 0 409 409" enable-background="new 0 0 409 409" xml:space="preserve">
<path fill="#E35028" opacity="1.000000" stroke="none" 
	d="
M212.000000,410.000000 
	C209.629425,410.000000 207.258835,410.000000 204.212555,409.717041 
	C200.270905,408.951508 197.004959,408.468933 193.414185,407.804535 
	C190.726196,407.584076 188.261795,407.964935 186.019882,407.423920 
	C180.500031,406.091858 175.048706,404.442627 169.630829,402.728119 
	C158.943588,399.346161 148.445221,395.499176 137.296906,393.516174 
	C129.567001,392.141174 122.141579,389.054962 114.579788,386.734436 
	C105.047890,383.809326 95.546600,380.778625 85.972115,378.000244 
	C80.072105,376.288086 74.053291,374.988251 68.102005,373.448486 
	C65.858978,372.868103 63.661690,371.606079 61.433453,371.581818 
	C57.194904,371.535675 55.135117,369.456390 55.120613,365.398773 
	C55.103504,360.611542 54.347340,355.829895 53.988113,351.040100 
	C53.643341,346.443024 53.304230,341.842072 53.132317,337.236450 
	C52.958206,332.571960 53.390476,327.852386 52.842915,323.241760 
	C51.984394,316.012726 50.502193,308.858826 49.332775,301.665161 
	C48.856812,298.737335 48.252792,295.797302 48.154213,292.847870 
	C47.941982,286.498260 48.161682,280.133514 47.920227,273.785797 
	C47.794598,270.483154 46.987991,267.211945 46.622688,263.911743 
	C45.759941,256.117615 44.911549,248.320755 44.187630,240.512909 
	C43.775269,236.065399 43.656475,231.591446 43.339104,227.134140 
	C42.797192,219.523483 42.274597,211.910217 41.605740,204.310226 
	C41.159267,199.237106 40.305191,194.196915 39.947189,189.119873 
	C39.654594,184.970398 40.044380,180.771896 39.734379,176.624817 
	C39.379112,171.872162 38.624695,167.146866 37.970730,162.419769 
	C37.368118,158.063873 36.550652,153.734528 36.062813,149.367249 
	C35.825142,147.239532 36.123241,145.051987 36.473347,142.990356 
	C38.948891,137.177856 37.457806,131.611191 35.097137,125.702934 
	C34.921326,123.637360 35.029408,121.943001 34.683273,120.347160 
	C33.935314,116.898720 32.537518,113.544579 32.172779,110.071289 
	C31.701628,105.584656 32.136829,101.011185 31.902597,96.489563 
	C31.425976,87.288895 30.762230,78.097923 30.510548,68.815697 
	C31.080940,68.509468 31.536463,68.272316 31.520090,68.074142 
	C30.856649,60.044350 30.285049,52.003048 29.390266,43.998032 
	C28.976482,40.296204 27.921564,36.666035 27.090820,32.600044 
	C26.660320,28.857660 26.359570,25.510246 25.919247,22.181293 
	C24.984686,15.115767 23.977444,8.059855 23.000000,1.000000 
	C143.688095,1.000000 264.376190,1.000000 385.545898,1.426539 
	C385.732117,7.559365 385.594818,13.279191 385.107361,18.969019 
	C384.194122,29.628183 383.080200,40.270180 382.045319,50.918880 
	C381.712982,54.338181 381.266174,57.749771 381.049805,61.176140 
	C380.706665,66.610703 380.581818,72.059113 380.233582,77.493271 
	C379.981628,81.426193 379.452240,85.340759 379.165283,89.272179 
	C378.850342,93.586258 378.855286,97.930267 378.388123,102.225037 
	C377.774750,107.864136 376.836151,113.467857 375.663330,119.178604 
	C374.622528,124.160179 373.928375,129.046753 373.360016,133.947937 
	C373.327301,134.230118 374.319275,134.631119 375.002350,135.309479 
	C374.787842,140.081619 374.529327,144.536362 373.986298,148.956146 
	C373.491547,152.982925 372.100342,156.979019 372.149780,160.975723 
	C372.237518,168.075546 371.187531,175.078766 371.453766,182.263885 
	C371.792114,191.396042 368.939178,200.630920 367.633759,209.845825 
	C366.947388,214.690903 366.462799,219.578232 366.177368,224.463425 
	C365.691132,232.785065 365.597504,241.131546 365.013916,249.444778 
	C364.704620,253.850586 363.586578,258.193634 363.066833,262.592560 
	C362.664978,265.993652 362.569733,269.435455 362.438873,272.863007 
	C362.264435,277.430756 362.406616,282.021545 362.004944,286.566406 
	C361.632812,290.777557 360.627594,294.928741 360.081085,299.129761 
	C359.614990,302.712585 359.335785,306.324188 359.100586,309.931305 
	C358.865967,313.529510 358.918518,317.149109 358.611145,320.739258 
	C358.192566,325.628571 357.455505,330.490509 357.033691,335.379608 
	C356.606750,340.327850 356.551758,345.310608 356.048706,350.249176 
	C355.567627,354.972076 353.947540,359.705688 354.236237,364.346985 
	C354.568268,369.684540 351.782532,370.818573 347.741943,371.769440 
	C342.326538,373.043854 336.962952,374.544922 331.596069,376.017670 
	C323.053070,378.362000 314.538055,380.809326 305.985077,383.116089 
	C302.879639,383.953644 299.617798,384.262024 296.569153,385.249664 
	C289.387024,387.576447 282.390289,390.524780 275.131989,392.554321 
	C267.122345,394.793915 258.828552,396.009979 250.801041,398.195435 
	C244.353027,399.950867 238.185150,402.716156 231.768082,404.610046 
	C225.923203,406.335052 219.910294,407.490692 213.681427,408.926666 
	C212.927597,409.304047 212.463791,409.652008 212.000000,410.000000 
M205.989258,213.952011 
	C205.987366,237.275558 205.985458,260.599121 205.522903,284.273804 
	C205.371033,284.392975 205.219147,284.512177 204.269775,284.371399 
	C188.845535,280.244751 173.435760,276.062531 157.983231,272.044678 
	C155.327011,271.354034 154.066330,270.238251 153.973434,267.367889 
	C153.828354,262.885223 153.296005,258.413452 152.879257,253.941574 
	C152.300049,247.726593 151.676010,241.515793 151.075150,235.344269 
	C135.974701,235.344269 121.569054,235.344269 106.979935,235.344269 
	C106.886101,236.428436 106.703842,237.234192 106.764648,238.021164 
	C108.443596,259.749146 110.077263,281.481476 112.005165,303.187592 
	C112.132942,304.626251 114.313255,306.615784 115.907120,307.077301 
	C131.402756,311.564026 146.962372,315.833221 162.533188,320.055908 
	C176.639420,323.881378 190.782303,327.571777 205.432220,331.522919 
	C205.619049,331.525421 205.805878,331.527893 205.982117,332.401093 
	C205.985336,345.563354 205.970490,358.725616 206.000473,371.887817 
	C206.012848,377.314209 206.395676,377.665161 211.819595,376.204437 
	C228.023499,371.840637 244.203796,367.388824 260.384094,362.937836 
	C280.731232,357.340576 301.081604,351.753632 321.384155,345.998413 
	C322.773407,345.604614 324.666992,343.947327 324.812469,342.701019 
	C325.772339,334.476257 326.319885,326.203308 326.997131,317.945618 
	C328.053741,305.062439 329.055328,292.174530 330.174927,279.296814 
	C331.394257,265.272461 332.743378,251.259384 333.993927,237.237640 
	C334.774231,228.488266 335.428162,219.727493 336.225800,210.979767 
	C337.443848,197.621826 338.787231,184.275238 339.983887,170.915466 
	C341.107452,158.371567 342.076904,145.813904 343.173920,133.267548 
	C344.414612,119.078224 345.723083,104.894821 346.999969,90.708656 
	C347.787201,81.962479 348.561859,73.215157 349.357788,64.469772 
	C350.228424,54.903698 351.067383,45.334301 352.022583,35.776588 
	C352.395905,32.041073 350.904907,30.918415 347.206421,30.926699 
	C301.721863,31.028559 256.236877,31.029758 210.752319,30.925285 
	C207.006500,30.916681 205.876205,32.143246 205.922928,35.817352 
	C206.092377,49.143978 205.980209,62.474182 205.498093,76.030563 
	C205.339600,76.107109 205.181091,76.183647 204.097763,76.083267 
	C166.872162,76.083267 129.646576,76.083267 91.820358,76.083267 
	C95.933548,122.059746 99.975151,167.235901 104.048607,212.768204 
	C108.853027,212.768204 112.991287,212.776917 117.129501,212.766785 
	C146.430695,212.695099 175.731888,212.619568 205.509415,212.782761 
	C205.668732,212.860840 205.828064,212.938904 205.989258,213.952011 
z"/>
<path fill="#000000" opacity="1.000000" stroke="none" 
	d="
M213.971466,408.897278 
	C219.910294,407.490692 225.923203,406.335052 231.768082,404.610046 
	C238.185150,402.716156 244.353027,399.950867 250.801041,398.195435 
	C258.828552,396.009979 267.122345,394.793915 275.131989,392.554321 
	C282.390289,390.524780 289.387024,387.576447 296.569153,385.249664 
	C299.617798,384.262024 302.879639,383.953644 305.985077,383.116089 
	C314.538055,380.809326 323.053070,378.362000 331.596069,376.017670 
	C336.962952,374.544922 342.326538,373.043854 347.741943,371.769440 
	C351.782532,370.818573 354.568268,369.684540 354.236237,364.346985 
	C353.947540,359.705688 355.567627,354.972076 356.048706,350.249176 
	C356.551758,345.310608 356.606750,340.327850 357.033691,335.379608 
	C357.455505,330.490509 358.192566,325.628571 358.611145,320.739258 
	C358.918518,317.149109 358.865967,313.529510 359.100586,309.931305 
	C359.335785,306.324188 359.614990,302.712585 360.081085,299.129761 
	C360.627594,294.928741 361.632812,290.777557 362.004944,286.566406 
	C362.406616,282.021545 362.264435,277.430756 362.438873,272.863007 
	C362.569733,269.435455 362.664978,265.993652 363.066833,262.592560 
	C363.586578,258.193634 364.704620,253.850586 365.013916,249.444778 
	C365.597504,241.131546 365.691132,232.785065 366.177368,224.463425 
	C366.462799,219.578232 366.947388,214.690903 367.633759,209.845825 
	C368.939178,200.630920 371.792114,191.396042 371.453766,182.263885 
	C371.187531,175.078766 372.237518,168.075546 372.149780,160.975723 
	C372.100342,156.979019 373.491547,152.982925 373.986298,148.956146 
	C374.529327,144.536362 374.787842,140.081619 375.075958,134.909882 
	C375.333496,129.147354 375.685425,124.117073 376.037384,119.086784 
	C376.836151,113.467857 377.774750,107.864136 378.388123,102.225037 
	C378.855286,97.930267 378.850342,93.586258 379.165283,89.272179 
	C379.452240,85.340759 379.981628,81.426193 380.233582,77.493271 
	C380.581818,72.059113 380.706665,66.610703 381.049805,61.176140 
	C381.266174,57.749771 381.712982,54.338181 382.045319,50.918880 
	C383.080200,40.270180 384.194122,29.628183 385.107361,18.969019 
	C385.594818,13.279191 385.732117,7.559365 386.013733,1.426539 
	C393.994415,1.000000 401.988861,1.000000 409.987457,1.000000 
	C409.991638,137.232727 409.991638,273.465454 409.991638,410.000000 
	C345.312744,410.000000 280.625031,410.000000 215.439377,409.714600 
	C214.618118,409.251892 214.294785,409.074615 213.971466,408.897278 
z"/>
<path fill="#000000" opacity="1.000000" stroke="none" 
	d="
M30.175591,68.902954 
	C30.762230,78.097923 31.425976,87.288895 31.902597,96.489563 
	C32.136829,101.011185 31.701628,105.584656 32.172779,110.071289 
	C32.537518,113.544579 33.935314,116.898720 34.683273,120.347160 
	C35.029408,121.943001 34.921326,123.637360 34.912006,126.037247 
	C34.884354,130.127548 34.847748,133.475983 35.086292,136.804688 
	C35.232803,138.849243 35.800335,140.863602 36.178818,142.891525 
	C36.123241,145.051987 35.825142,147.239532 36.062813,149.367249 
	C36.550652,153.734528 37.368118,158.063873 37.970730,162.419769 
	C38.624695,167.146866 39.379112,171.872162 39.734379,176.624817 
	C40.044380,180.771896 39.654594,184.970398 39.947189,189.119873 
	C40.305191,194.196915 41.159267,199.237106 41.605740,204.310226 
	C42.274597,211.910217 42.797192,219.523483 43.339104,227.134140 
	C43.656475,231.591446 43.775269,236.065399 44.187630,240.512909 
	C44.911549,248.320755 45.759941,256.117615 46.622688,263.911743 
	C46.987991,267.211945 47.794598,270.483154 47.920227,273.785797 
	C48.161682,280.133514 47.941982,286.498260 48.154213,292.847870 
	C48.252792,295.797302 48.856812,298.737335 49.332775,301.665161 
	C50.502193,308.858826 51.984394,316.012726 52.842915,323.241760 
	C53.390476,327.852386 52.958206,332.571960 53.132317,337.236450 
	C53.304230,341.842072 53.643341,346.443024 53.988113,351.040100 
	C54.347340,355.829895 55.103504,360.611542 55.120613,365.398773 
	C55.135117,369.456390 57.194904,371.535675 61.433453,371.581818 
	C63.661690,371.606079 65.858978,372.868103 68.102005,373.448486 
	C74.053291,374.988251 80.072105,376.288086 85.972115,378.000244 
	C95.546600,380.778625 105.047890,383.809326 114.579788,386.734436 
	C122.141579,389.054962 129.567001,392.141174 137.296906,393.516174 
	C148.445221,395.499176 158.943588,399.346161 169.630829,402.728119 
	C175.048706,404.442627 180.500031,406.091858 186.019882,407.423920 
	C188.261795,407.964935 190.726196,407.584076 193.494232,408.136780 
	C193.932739,409.100555 193.966370,409.550293 194.000000,410.000000 
	C129.711823,410.000000 65.423645,410.000000 1.067734,410.000000 
	C1.067734,273.666687 1.067734,137.333344 1.072418,1.000005 
	C8.072213,1.000000 15.067325,1.000000 22.531219,1.000000 
	C23.977444,8.059855 24.984686,15.115767 25.919247,22.181293 
	C26.359570,25.510246 26.660320,28.857660 26.921513,32.968216 
	C26.537947,35.324238 25.941813,36.927277 26.033613,38.489899 
	C26.350697,43.887238 26.706617,49.297760 27.433031,54.650978 
	C28.082552,59.437553 29.241447,64.155006 30.175591,68.902954 
z"/>
<path fill="#EB8164" opacity="1.000000" stroke="none" 
	d="
M194.454102,410.000000 
	C193.966370,409.550293 193.932739,409.100555 193.819061,408.318604 
	C197.004959,408.468933 200.270905,408.951508 203.768433,409.717041 
	C200.969406,410.000000 197.938812,410.000000 194.454102,410.000000 
z"/>
<path fill="#F8D7CD" opacity="1.000000" stroke="none" 
	d="
M213.681427,408.926697 
	C214.294785,409.074615 214.618118,409.251892 214.970718,409.714600 
	C214.250000,410.000000 213.500000,410.000000 212.375000,410.000000 
	C212.463791,409.652008 212.927597,409.304047 213.681427,408.926697 
z"/>
<path fill="#EF652B" opacity="1.000000" stroke="none" 
	d="
M205.974274,75.803040 
	C205.980209,62.474182 206.092377,49.143978 205.922928,35.817352 
	C205.876205,32.143246 207.006500,30.916681 210.752319,30.925285 
	C256.236877,31.029758 301.721863,31.028559 347.206421,30.926699 
	C350.904907,30.918415 352.395905,32.041073 352.022583,35.776588 
	C351.067383,45.334301 350.228424,54.903698 349.357788,64.469772 
	C348.561859,73.215157 347.787201,81.962479 346.999969,90.708656 
	C345.723083,104.894821 344.414612,119.078224 343.173920,133.267548 
	C342.076904,145.813904 341.107452,158.371567 339.983887,170.915466 
	C338.787231,184.275238 337.443848,197.621826 336.225800,210.979767 
	C335.428162,219.727493 334.774231,228.488266 333.993927,237.237640 
	C332.743378,251.259384 331.394257,265.272461 330.174927,279.296814 
	C329.055328,292.174530 328.053741,305.062439 326.997131,317.945618 
	C326.319885,326.203308 325.772339,334.476257 324.812469,342.701019 
	C324.666992,343.947327 322.773407,345.604614 321.384155,345.998413 
	C301.081604,351.753632 280.731232,357.340576 260.384094,362.937836 
	C244.203796,367.388824 228.023499,371.840637 211.819595,376.204437 
	C206.395676,377.665161 206.012848,377.314209 206.000473,371.887817 
	C205.970490,358.725616 205.985336,345.563354 206.351013,331.789795 
	C234.945740,323.397491 263.140869,315.501587 291.428131,307.950653 
	C296.040588,306.719391 297.716095,304.754700 298.108582,299.983643 
	C301.137207,263.170441 304.461456,226.381485 307.712006,189.586609 
	C308.362091,182.227798 309.089386,174.875793 309.819092,167.116150 
	C301.108643,167.116150 292.977234,167.133942 284.845978,167.112885 
	C258.556396,167.044769 232.266800,166.962372 205.979965,166.424438 
	C205.980225,151.024155 205.977722,136.084915 206.433228,121.030731 
	C242.475052,120.915764 278.058868,120.915764 314.066406,120.915764 
	C315.500854,105.741478 316.881378,91.137703 318.306152,76.065933 
	C315.430237,76.065933 313.622711,76.065926 311.815216,76.065933 
	C286.347595,76.065964 260.879944,76.089798 235.412354,76.053970 
	C225.599564,76.040161 215.786957,75.890701 205.974274,75.803040 
z"/>
<path fill="#EBE9E8" opacity="1.000000" stroke="none" 
	d="
M205.033081,212.545258 
	C175.731888,212.619568 146.430695,212.695099 117.129501,212.766785 
	C112.991287,212.776917 108.853027,212.768204 104.048607,212.768204 
	C99.975151,167.235901 95.933548,122.059746 91.820358,76.083267 
	C129.646576,76.083267 166.872162,76.083267 204.556702,76.622986 
	C205.018173,91.660454 205.020691,106.158203 204.562073,120.750214 
	C183.723877,120.926430 163.346817,121.008369 142.696808,121.072784 
	C142.291077,121.361290 142.158295,121.667328 141.953644,122.417786 
	C143.107941,137.516479 144.334122,152.170761 145.600754,167.308380 
	C165.876648,167.308380 185.448151,167.308380 205.015259,167.757706 
	C205.018280,182.986450 205.025681,197.765854 205.033081,212.545258 
z"/>
<path fill="#FFFEFE" opacity="1.000000" stroke="none" 
	d="
M205.271240,212.664017 
	C205.025681,197.765854 205.018280,182.986450 205.254456,167.651352 
	C205.657776,167.025604 205.817505,166.955536 205.977219,166.885483 
	C232.266800,166.962372 258.556396,167.044769 284.845978,167.112885 
	C292.977234,167.133942 301.108643,167.116150 309.819092,167.116150 
	C309.089386,174.875793 308.362091,182.227798 307.712006,189.586609 
	C304.461456,226.381485 301.137207,263.170441 298.108582,299.983643 
	C297.716095,304.754700 296.040588,306.719391 291.428131,307.950653 
	C263.140869,315.501587 234.945740,323.397491 206.356323,331.354431 
	C205.805878,331.527893 205.619049,331.525421 205.190704,330.928864 
	C204.988541,315.100342 205.027893,299.865845 205.067261,284.631378 
	C205.219147,284.512177 205.371033,284.392975 206.145264,284.120789 
	C221.541245,280.004333 236.295853,275.967316 251.105011,272.141449 
	C253.953934,271.405457 255.178299,270.223969 255.424698,267.185089 
	C256.311554,256.247040 257.530334,245.336304 258.567780,234.409927 
	C259.236084,227.371246 259.806610,220.323257 260.443909,213.016968 
	C241.828842,213.016968 223.908112,213.016968 205.987381,213.016968 
	C205.828064,212.938904 205.668732,212.860840 205.271240,212.664017 
z"/>
<path fill="#EBEAE9" opacity="1.000000" stroke="none" 
	d="
M204.668518,284.501404 
	C205.027893,299.865845 204.988541,315.100342 204.929092,330.828278 
	C190.782303,327.571777 176.639420,323.881378 162.533188,320.055908 
	C146.962372,315.833221 131.402756,311.564026 115.907120,307.077301 
	C114.313255,306.615784 112.132942,304.626251 112.005165,303.187592 
	C110.077263,281.481476 108.443596,259.749146 106.764648,238.021164 
	C106.703842,237.234192 106.886101,236.428436 106.979935,235.344269 
	C121.569054,235.344269 135.974701,235.344269 151.075150,235.344269 
	C151.676010,241.515793 152.300049,247.726593 152.879257,253.941574 
	C153.296005,258.413452 153.828354,262.885223 153.973434,267.367889 
	C154.066330,270.238251 155.327011,271.354034 157.983231,272.044678 
	C173.435760,276.062531 188.845535,280.244751 204.668518,284.501404 
z"/>
<path fill="#FFFFFF" opacity="1.000000" stroke="none" 
	d="
M205.023209,120.655945 
	C205.020691,106.158203 205.018173,91.660454 205.019135,76.711456 
	C205.181091,76.183647 205.339600,76.107109 205.736176,75.916801 
	C215.786957,75.890701 225.599564,76.040161 235.412354,76.053970 
	C260.879944,76.089798 286.347595,76.065964 311.815216,76.065933 
	C313.622711,76.065926 315.430237,76.065933 318.306152,76.065933 
	C316.881378,91.137703 315.500854,105.741478 314.066406,120.915764 
	C278.058868,120.915764 242.475052,120.915764 206.195312,120.908287 
	C205.340652,120.819183 205.181931,120.737564 205.023209,120.655945 
z"/>
<path fill="#EF662B" opacity="1.000000" stroke="none" 
	d="
M205.988312,213.484497 
	C223.908112,213.016968 241.828842,213.016968 260.443909,213.016968 
	C259.806610,220.323257 259.236084,227.371246 258.567780,234.409927 
	C257.530334,245.336304 256.311554,256.247040 255.424698,267.185089 
	C255.178299,270.223969 253.953934,271.405457 251.105011,272.141449 
	C236.295853,275.967316 221.541245,280.004333 206.375595,283.945251 
	C205.985458,260.599121 205.987366,237.275558 205.988312,213.484497 
z"/>
<path fill="#E97554" opacity="1.000000" stroke="none" 
	d="
M30.510548,68.815697 
	C29.241447,64.155006 28.082552,59.437553 27.433031,54.650978 
	C26.706617,49.297760 26.350697,43.887238 26.033613,38.489899 
	C25.941813,36.927277 26.537947,35.324238 26.988016,33.371552 
	C27.921564,36.666035 28.976482,40.296204 29.390266,43.998032 
	C30.285049,52.003048 30.856649,60.044350 31.520090,68.074142 
	C31.536463,68.272316 31.080940,68.509468 30.510548,68.815697 
z"/>
<path fill="#EB866A" opacity="1.000000" stroke="none" 
	d="
M36.473343,142.990356 
	C35.800335,140.863602 35.232803,138.849243 35.086292,136.804688 
	C34.847748,133.475983 34.884354,130.127548 34.989975,126.453133 
	C37.457806,131.611191 38.948891,137.177856 36.473343,142.990356 
z"/>
<path fill="#ED9178" opacity="1.000000" stroke="none" 
	d="
M375.663330,119.178604 
	C375.685425,124.117073 375.333496,129.147354 374.907959,134.577240 
	C374.319275,134.631119 373.327301,134.230118 373.360016,133.947937 
	C373.928375,129.046753 374.622528,124.160179 375.663330,119.178604 
z"/>
<path fill="#E35027" opacity="1.000000" stroke="none" 
	d="
M204.562073,120.750214 
	C205.181931,120.737564 205.340652,120.819183 205.737305,121.023254 
	C205.977722,136.084915 205.980225,151.024155 205.979965,166.424438 
	C205.817505,166.955536 205.657776,167.025604 205.258850,167.202026 
	C185.448151,167.308380 165.876648,167.308380 145.600754,167.308380 
	C144.334122,152.170761 143.107941,137.516479 142.150757,122.317413 
	C142.666809,121.596573 142.850143,121.369141 142.969742,121.090317 
	C163.346817,121.008369 183.723877,120.926430 204.562073,120.750214 
z"/>
<path fill="#EF652B" opacity="1.000000" stroke="none" 
	d="
M142.696808,121.072784 
	C142.850143,121.369141 142.666809,121.596573 142.222626,121.872986 
	C142.158295,121.667328 142.291077,121.361290 142.696808,121.072784 
z"/>
</svg>
