<svg version="1.1" id="Layer_1" xmlns="http://www.w3.org/2000/svg" xmlns:xlink="http://www.w3.org/1999/xlink" x="0px" y="0px"
	 width="100%" viewBox="0 0 405 409" enable-background="new 0 0 405 409" xml:space="preserve">
<path fill="#000000" opacity="1.000000" stroke="none" 
	d="
M1.000000,145.000000 
	C1.000000,96.681358 1.000000,48.862709 1.000000,1.022033 
	C135.943848,1.022033 270.887726,1.022033 405.915771,1.022033 
	C405.915771,137.235275 405.915771,273.470612 405.915771,409.852966 
	C271.000122,409.852966 136.000076,409.852966 1.000000,409.852966 
	C1.000000,321.779022 1.000000,233.639511 1.000000,145.000000 
M53.013000,250.214218 
	C54.009487,259.504089 55.153847,268.781219 55.955540,278.087830 
	C56.593681,285.495941 56.590431,292.960541 57.270115,300.363495 
	C58.337650,311.990875 59.939018,323.570374 60.941250,335.202301 
	C61.817822,345.375793 62.180229,355.593567 62.752171,365.487274 
	C70.751389,367.788971 78.048004,369.951263 85.381271,371.981171 
	C92.838745,374.045441 100.375725,375.831299 107.798653,378.009155 
	C116.310303,380.506409 124.659058,383.580170 133.215317,385.898956 
	C145.329727,389.182098 157.632736,391.771942 169.737488,395.087616 
	C181.730698,398.372650 193.564270,402.237518 205.506348,405.715881 
	C207.025574,406.158356 208.868652,406.152405 210.405350,405.752838 
	C216.051392,404.284851 221.613754,402.498810 227.239731,400.949005 
	C245.477325,395.925018 263.764099,391.075775 281.962219,385.913483 
	C292.498993,382.924500 302.888062,379.418243 313.368683,376.227020 
	C325.510712,372.529877 337.680206,368.923035 351.028717,364.919830 
	C351.028717,357.652466 350.605072,350.016205 351.118225,342.443420 
	C352.139465,327.372162 353.654694,312.333923 355.012543,297.286285 
	C355.410797,292.872528 355.970612,288.473450 356.449127,284.066833 
	C357.634521,273.150757 358.979828,262.248871 359.956543,251.314133 
	C361.142914,238.032822 361.956818,224.718689 363.041901,211.427750 
	C364.298431,196.036652 365.750214,180.661270 366.964417,165.267014 
	C367.509491,158.355865 367.438934,151.392761 368.078979,144.493256 
	C369.212280,132.276688 370.791382,120.101768 371.952484,107.887413 
	C372.560883,101.487656 372.537781,95.030113 373.044617,88.618011 
	C374.287689,72.892258 375.633331,57.174225 377.028748,41.461174 
	C377.374725,37.565071 378.162018,33.709854 378.577301,29.817795 
	C379.161224,24.345993 379.587219,18.857340 380.144501,12.667927 
	C264.445160,12.667927 149.436554,12.667927 33.835510,12.667927 
	C34.235981,18.025347 34.561020,23.564293 35.080383,29.084959 
	C36.338955,42.463104 37.761124,55.826221 38.954182,69.209946 
	C39.293343,73.014656 38.846230,76.887138 39.146996,80.697983 
	C40.348495,95.921341 41.716671,111.131493 42.981625,126.349983 
	C43.133030,128.171478 42.895164,130.026855 43.066730,131.844925 
	C44.345970,145.401047 45.755779,158.945190 46.976192,172.506424 
	C47.787140,181.517685 48.325413,190.553146 49.035030,199.573898 
	C50.338551,216.144348 51.678444,232.711945 53.013000,250.214218 
z"/>
<path fill="#EACA32" opacity="1.000000" stroke="none" 
	d="
M53.008087,249.747467 
	C51.678444,232.711945 50.338551,216.144348 49.035030,199.573898 
	C48.325413,190.553146 47.787140,181.517685 46.976192,172.506424 
	C45.755779,158.945190 44.345970,145.401047 43.066730,131.844925 
	C42.895164,130.026855 43.133030,128.171478 42.981625,126.349983 
	C41.716671,111.131493 40.348495,95.921341 39.146996,80.697983 
	C38.846230,76.887138 39.293343,73.014656 38.954182,69.209946 
	C37.761124,55.826221 36.338955,42.463104 35.080383,29.084959 
	C34.561020,23.564293 34.235981,18.025347 33.835510,12.667927 
	C149.436554,12.667927 264.445160,12.667927 380.144501,12.667927 
	C379.587219,18.857340 379.161224,24.345993 378.577301,29.817795 
	C378.162018,33.709854 377.374725,37.565071 377.028748,41.461174 
	C375.633331,57.174225 374.287689,72.892258 373.044617,88.618011 
	C372.537781,95.030113 372.560883,101.487656 371.952484,107.887413 
	C370.791382,120.101768 369.212280,132.276688 368.078979,144.493256 
	C367.438934,151.392761 367.509491,158.355865 366.964417,165.267014 
	C365.750214,180.661270 364.298431,196.036652 363.041901,211.427750 
	C361.956818,224.718689 361.142914,238.032822 359.956543,251.314133 
	C358.979828,262.248871 357.634521,273.150757 356.449127,284.066833 
	C355.970612,288.473450 355.410797,292.872528 355.012543,297.286285 
	C353.654694,312.333923 352.139465,327.372162 351.118225,342.443420 
	C350.605072,350.016205 351.028717,357.652466 351.028717,364.919830 
	C337.680206,368.923035 325.510712,372.529877 313.368683,376.227020 
	C302.888062,379.418243 292.498993,382.924500 281.962219,385.913483 
	C263.764099,391.075775 245.477325,395.925018 227.239731,400.949005 
	C221.613754,402.498810 216.051392,404.284851 210.405350,405.752838 
	C208.868652,406.152405 207.025574,406.158356 205.506348,405.715881 
	C193.564270,402.237518 181.730698,398.372650 169.737488,395.087616 
	C157.632736,391.771942 145.329727,389.182098 133.215317,385.898956 
	C124.659058,383.580170 116.310303,380.506409 107.798653,378.009155 
	C100.375725,375.831299 92.838745,374.045441 85.381271,371.981171 
	C78.048004,369.951263 70.751389,367.788971 62.752171,365.487274 
	C62.180229,355.593567 61.817822,345.375793 60.941250,335.202301 
	C59.939018,323.570374 58.337650,311.990875 57.270115,300.363495 
	C56.590431,292.960541 56.593681,285.495941 55.955540,278.087830 
	C55.153847,268.781219 54.009487,259.504089 53.008087,249.747467 
M327.956238,298.218964 
	C329.026367,283.646820 329.986664,269.065582 331.194550,254.504883 
	C332.689911,236.478912 334.405579,218.471298 335.997009,200.453171 
	C336.960693,189.542480 337.860443,178.626175 338.804932,167.713760 
	C339.864197,155.476059 340.916656,143.237671 342.018005,131.003723 
	C343.119354,118.770271 344.306915,106.544563 345.402893,94.310638 
	C346.632050,80.590042 347.768616,66.861115 349.016296,53.142250 
	C349.374634,49.201969 347.730469,47.967430 343.843994,47.947067 
	C300.601196,47.720482 257.358459,47.415756 214.117966,46.931385 
	C209.269196,46.877071 207.905151,48.428158 207.910507,53.197361 
	C208.026779,156.838501 207.997162,260.479828 208.015015,364.121094 
	C208.015305,365.869019 208.255234,367.616913 208.424255,369.922974 
	C210.999344,369.377228 212.942841,369.094940 214.809296,368.549255 
	C229.652847,364.209595 244.467941,359.772217 259.318665,355.457458 
	C278.625153,349.848114 297.981323,344.408630 317.264648,338.721466 
	C324.981049,336.445740 324.578339,336.213013 325.066956,328.363312 
	C325.674774,318.599091 326.916016,308.874268 327.956238,298.218964 
M193.220703,91.592972 
	C193.141998,89.822113 193.063293,88.051262 192.964264,85.823174 
	C182.390930,85.823174 172.273300,86.098152 162.181549,85.706566 
	C157.175415,85.512306 155.749084,86.840233 155.763397,92.015152 
	C155.950470,159.645676 155.886398,227.276886 155.885452,294.907928 
	C155.885437,296.799255 155.885468,298.690582 155.885468,300.950378 
	C147.032913,299.179626 139.140686,297.279144 131.139572,296.150452 
	C127.677254,295.662018 127.136314,294.261902 127.184357,291.362579 
	C127.300270,284.368225 127.343742,277.366638 127.119873,270.377472 
	C127.072327,268.893066 125.961990,266.329712 125.002464,266.158112 
	C114.291969,264.242645 103.514915,262.699280 92.647087,261.039032 
	C92.457985,262.033508 92.230667,262.673615 92.229813,263.314056 
	C92.203606,282.970245 92.284386,302.627197 92.109863,322.281921 
	C92.080299,325.610657 93.995476,326.030670 96.300293,326.633942 
	C124.530724,334.023132 152.752304,341.446198 180.991058,348.803345 
	C184.779770,349.790436 188.650177,350.463928 193.220947,351.440369 
	C193.220947,264.716583 193.220947,178.643845 193.220703,91.592972 
z"/>
<path fill="#FFDE25" opacity="1.000000" stroke="none" 
	d="
M327.919983,298.675720 
	C326.916016,308.874268 325.674774,318.599091 325.066956,328.363312 
	C324.578339,336.213013 324.981049,336.445740 317.264648,338.721466 
	C297.981323,344.408630 278.625153,349.848114 259.318665,355.457458 
	C244.467941,359.772217 229.652847,364.209595 214.809296,368.549255 
	C212.942841,369.094940 210.999344,369.377228 208.424255,369.922974 
	C208.255234,367.616913 208.015305,365.869019 208.015015,364.121094 
	C207.997162,260.479828 208.026779,156.838501 207.910507,53.197361 
	C207.905151,48.428158 209.269196,46.877071 214.117966,46.931385 
	C257.358459,47.415756 300.601196,47.720482 343.843994,47.947067 
	C347.730469,47.967430 349.374634,49.201969 349.016296,53.142250 
	C347.768616,66.861115 346.632050,80.590042 345.402893,94.310638 
	C344.306915,106.544563 343.119354,118.770271 342.018005,131.003723 
	C340.916656,143.237671 339.864197,155.476059 338.804932,167.713760 
	C337.860443,178.626175 336.960693,189.542480 335.997009,200.453171 
	C334.405579,218.471298 332.689911,236.478912 331.194550,254.504883 
	C329.986664,269.065582 329.026367,283.646820 327.919983,298.675720 
M307.461700,194.932526 
	C292.023163,194.932526 276.584656,194.932526 261.053894,194.932526 
	C261.053894,172.054367 261.053894,149.860062 261.053894,126.985863 
	C280.214142,126.985863 298.935669,126.985863 317.536285,126.985863 
	C319.838623,112.998489 322.028564,99.693939 324.258972,86.143471 
	C289.582153,86.143471 255.552826,86.143471 221.285217,86.143471 
	C221.285217,137.871994 221.285217,189.268982 221.285217,241.182678 
	C242.503036,238.123718 263.389374,235.112549 284.131348,232.122192 
	C284.484985,232.992920 284.725098,233.296844 284.709564,233.587097 
	C283.804962,250.511093 282.865265,267.433228 281.968323,284.357605 
	C281.806671,287.408234 280.366882,288.989777 277.390442,289.979980 
	C259.905975,295.796875 242.514099,301.892395 225.021652,307.684479 
	C221.972992,308.693909 220.876205,310.066925 220.939026,313.295624 
	C221.139923,323.621490 221.013245,333.953735 221.013062,344.283539 
	C221.013016,346.506897 221.013062,348.730255 221.013062,351.011169 
	C222.735703,351.011169 223.589462,351.166870 224.366653,350.988647 
	C251.986725,344.654846 279.588257,338.239441 307.229706,332.000763 
	C310.269745,331.314636 310.741150,329.751556 310.789612,327.108032 
	C310.920685,319.957306 311.188660,312.805756 311.571777,305.663635 
	C312.604462,286.412994 313.762909,267.169037 314.798859,247.918549 
	C315.567383,233.637482 316.251099,219.351624 316.905792,205.064819 
	C317.054657,201.815872 316.927673,198.554291 316.927673,194.932495 
	C313.728302,194.932495 311.088715,194.932495 307.461700,194.932526 
z"/>
<path fill="#FFFFFE" opacity="1.000000" stroke="none" 
	d="
M193.220825,92.082047 
	C193.220947,178.643845 193.220947,264.716583 193.220947,351.440369 
	C188.650177,350.463928 184.779770,349.790436 180.991058,348.803345 
	C152.752304,341.446198 124.530724,334.023132 96.300293,326.633942 
	C93.995476,326.030670 92.080299,325.610657 92.109863,322.281921 
	C92.284386,302.627197 92.203606,282.970245 92.229813,263.314056 
	C92.230667,262.673615 92.457985,262.033508 92.647087,261.039032 
	C103.514915,262.699280 114.291969,264.242645 125.002464,266.158112 
	C125.961990,266.329712 127.072327,268.893066 127.119873,270.377472 
	C127.343742,277.366638 127.300270,284.368225 127.184357,291.362579 
	C127.136314,294.261902 127.677254,295.662018 131.139572,296.150452 
	C139.140686,297.279144 147.032913,299.179626 155.885468,300.950378 
	C155.885468,298.690582 155.885437,296.799255 155.885452,294.907928 
	C155.886398,227.276886 155.950470,159.645676 155.763397,92.015152 
	C155.749084,86.840233 157.175415,85.512306 162.181549,85.706566 
	C172.273300,86.098152 182.390930,85.823174 192.964264,85.823174 
	C193.063293,88.051262 193.141998,89.822113 193.220825,92.082047 
z"/>
<path fill="#FFFFFD" opacity="1.000000" stroke="none" 
	d="
M307.955414,194.932510 
	C311.088715,194.932495 313.728302,194.932495 316.927673,194.932495 
	C316.927673,198.554291 317.054657,201.815872 316.905792,205.064819 
	C316.251099,219.351624 315.567383,233.637482 314.798859,247.918549 
	C313.762909,267.169037 312.604462,286.412994 311.571777,305.663635 
	C311.188660,312.805756 310.920685,319.957306 310.789612,327.108032 
	C310.741150,329.751556 310.269745,331.314636 307.229706,332.000763 
	C279.588257,338.239441 251.986725,344.654846 224.366653,350.988647 
	C223.589462,351.166870 222.735703,351.011169 221.013062,351.011169 
	C221.013062,348.730255 221.013016,346.506897 221.013062,344.283539 
	C221.013245,333.953735 221.139923,323.621490 220.939026,313.295624 
	C220.876205,310.066925 221.972992,308.693909 225.021652,307.684479 
	C242.514099,301.892395 259.905975,295.796875 277.390442,289.979980 
	C280.366882,288.989777 281.806671,287.408234 281.968323,284.357605 
	C282.865265,267.433228 283.804962,250.511093 284.709564,233.587097 
	C284.725098,233.296844 284.484985,232.992920 284.131348,232.122192 
	C263.389374,235.112549 242.503036,238.123718 221.285217,241.182678 
	C221.285217,189.268982 221.285217,137.871994 221.285217,86.143471 
	C255.552826,86.143471 289.582153,86.143471 324.258972,86.143471 
	C322.028564,99.693939 319.838623,112.998489 317.536285,126.985863 
	C298.935669,126.985863 280.214142,126.985863 261.053894,126.985863 
	C261.053894,149.860062 261.053894,172.054367 261.053894,194.932526 
	C276.584656,194.932526 292.023163,194.932526 307.955414,194.932510 
z"/>
</svg>
