<?xml version="1.0" encoding="UTF-8"?>
<!DOCTYPE svg PUBLIC "-//W3C//DTD SVG 1.1//EN" "http://www.w3.org/Graphics/SVG/1.1/DTD/svg11.dtd">
<svg xmlns="http://www.w3.org/2000/svg" version="1.1" width="410px" height="408px" style="shape-rendering:geometricPrecision; text-rendering:geometricPrecision; image-rendering:optimizeQuality; fill-rule:evenodd; clip-rule:evenodd" xmlns:xlink="http://www.w3.org/1999/xlink">
<g><path style="opacity:1" fill="#f5f5f4" d="M -0.5,-0.5 C 136.167,-0.5 272.833,-0.5 409.5,-0.5C 409.5,127.167 409.5,254.833 409.5,382.5C 403.167,382.5 396.833,382.5 390.5,382.5C 390.5,389.167 390.5,395.833 390.5,402.5C 383.833,402.5 377.167,402.5 370.5,402.5C 370.5,395.833 370.5,389.167 370.5,382.5C 363.833,382.5 357.167,382.5 350.5,382.5C 350.5,389.167 350.5,395.833 350.5,402.5C 343.833,402.5 337.167,402.5 330.5,402.5C 330.5,395.833 330.5,389.167 330.5,382.5C 323.833,382.5 317.167,382.5 310.5,382.5C 310.821,377.305 310.487,372.305 309.5,367.5C 378.904,318.986 408.404,252.319 398,167.5C 394.175,144.523 386.675,122.856 375.5,102.5C 380.5,102.5 385.5,102.5 390.5,102.5C 390.5,95.8333 390.5,89.1667 390.5,82.5C 383.833,82.5 377.167,82.5 370.5,82.5C 370.5,75.8333 370.5,69.1667 370.5,62.5C 363.833,62.5 357.167,62.5 350.5,62.5C 350.5,55.8333 350.5,49.1667 350.5,42.5C 343.833,42.5 337.167,42.5 330.5,42.5C 330.5,35.8333 330.5,29.1667 330.5,22.5C 323.833,22.5 317.167,22.5 310.5,22.5C 310.5,15.8333 310.5,9.16667 310.5,2.5C 303.833,2.5 297.167,2.5 290.5,2.5C 290.5,9.16667 290.5,15.8333 290.5,22.5C 245.69,1.98457 199.357,-2.18209 151.5,10C 81.3955,32.4378 35.8955,78.9378 15,149.5C 0.933344,211.201 11.9333,267.867 48,319.5C 55.3008,328.635 63.1341,337.301 71.5,345.5C 70.5111,350.975 70.1778,356.642 70.5,362.5C 77.1667,362.5 83.8333,362.5 90.5,362.5C 90.5,369.167 90.5,375.833 90.5,382.5C 83.8333,382.5 77.1667,382.5 70.5,382.5C 70.5,389.167 70.5,395.833 70.5,402.5C 63.8333,402.5 57.1667,402.5 50.5,402.5C 50.5,395.833 50.5,389.167 50.5,382.5C 43.8333,382.5 37.1667,382.5 30.5,382.5C 30.5,375.833 30.5,369.167 30.5,362.5C 20.1667,362.5 9.83333,362.5 -0.5,362.5C -0.5,241.5 -0.5,120.5 -0.5,-0.5 Z"/></g>
<g><path style="opacity:1" fill="#edbc0f" d="M 290.5,22.5 C 326.577,40.9095 354.91,67.5762 375.5,102.5C 386.675,122.856 394.175,144.523 398,167.5C 408.404,252.319 378.904,318.986 309.5,367.5C 251.264,401.506 190.597,406.339 127.5,382C 106.927,372.56 88.2603,360.394 71.5,345.5C 63.1341,337.301 55.3008,328.635 48,319.5C 11.9333,267.867 0.933344,211.201 15,149.5C 35.8955,78.9378 81.3955,32.4378 151.5,10C 199.357,-2.18209 245.69,1.98457 290.5,22.5 Z"/></g>
<g><path style="opacity:1" fill="#fdfcfb" d="M 375.5,102.5 C 354.91,67.5762 326.577,40.9095 290.5,22.5C 290.5,15.8333 290.5,9.16667 290.5,2.5C 297.167,2.5 303.833,2.5 310.5,2.5C 310.5,9.16667 310.5,15.8333 310.5,22.5C 317.167,22.5 323.833,22.5 330.5,22.5C 330.5,29.1667 330.5,35.8333 330.5,42.5C 337.167,42.5 343.833,42.5 350.5,42.5C 350.5,49.1667 350.5,55.8333 350.5,62.5C 357.167,62.5 363.833,62.5 370.5,62.5C 370.5,69.1667 370.5,75.8333 370.5,82.5C 377.167,82.5 383.833,82.5 390.5,82.5C 390.5,89.1667 390.5,95.8333 390.5,102.5C 385.5,102.5 380.5,102.5 375.5,102.5 Z"/></g>
<g><path style="opacity:1" fill="#0c0801" d="M 107.5,255.5 C 110.287,256.477 113.287,256.81 116.5,256.5C 116.5,259.5 116.5,262.5 116.5,265.5C 113.5,265.5 110.5,265.5 107.5,265.5C 94.0301,262.529 86.1968,254.195 84,240.5C 83.3333,204.833 83.3333,169.167 84,133.5C 86.6972,121.623 93.8639,113.79 105.5,110C 170.5,109.333 235.5,109.333 300.5,110C 312.899,111.729 321.066,118.563 325,130.5C 325.667,167.5 325.667,204.5 325,241.5C 320.972,258.606 310.139,266.606 292.5,265.5C 292.5,262.5 292.5,259.5 292.5,256.5C 302.996,257.174 310.496,252.84 315,243.5C 315.667,206.167 315.667,168.833 315,131.5C 312.414,125.912 308.247,122.079 302.5,120C 237.167,119.333 171.833,119.333 106.5,120C 100.359,122.141 96.1926,126.307 94,132.5C 93.3333,169.167 93.3333,205.833 94,242.5C 96.4452,249.114 100.945,253.448 107.5,255.5 Z"/></g>
<g><path style="opacity:1" fill="#080500" d="M 263.5,152.5 C 271.415,151.873 276.915,155.206 280,162.5C 280.667,201.5 280.667,240.5 280,279.5C 276.315,288.513 269.815,291.347 260.5,288C 257.131,285.635 254.964,282.468 254,278.5C 253.333,239.833 253.333,201.167 254,162.5C 256.022,157.98 259.189,154.647 263.5,152.5 Z"/></g>
<g><path style="opacity:1" fill="#030200" d="M 180.5,185.5 C 187.424,184.878 192.591,187.545 196,193.5C 196.667,222.833 196.667,252.167 196,281.5C 189.562,292.073 181.896,293.073 173,284.5C 172.138,282.913 171.471,281.246 171,279.5C 170.333,251.167 170.333,222.833 171,194.5C 173.43,190.566 176.597,187.566 180.5,185.5 Z"/></g>
<g><path style="opacity:1" fill="#020100" d="M 222.5,205.5 C 229.609,205.3 234.776,208.3 238,214.5C 238.667,236.5 238.667,258.5 238,280.5C 232.536,291.548 225.036,293.215 215.5,285.5C 214.194,284.088 213.36,282.421 213,280.5C 212.333,258.5 212.333,236.5 213,214.5C 214.871,210.006 218.038,207.006 222.5,205.5 Z"/></g>
<g><path style="opacity:1" fill="#030200" d="M 137.5,233.5 C 145.65,232.257 151.483,235.257 155,242.5C 155.667,254.833 155.667,267.167 155,279.5C 150.603,290.187 143.436,292.687 133.5,287C 131.959,285.421 130.792,283.587 130,281.5C 129.333,268.167 129.333,254.833 130,241.5C 132.028,238.308 134.528,235.641 137.5,233.5 Z"/></g>
<g><path style="opacity:1" fill="#7b6108" d="M 107.5,255.5 C 110.833,255.5 114.167,255.5 117.5,255.5C 117.5,259.167 117.5,262.833 117.5,266.5C 113.958,266.813 110.625,266.479 107.5,265.5C 110.5,265.5 113.5,265.5 116.5,265.5C 116.5,262.5 116.5,259.5 116.5,256.5C 113.287,256.81 110.287,256.477 107.5,255.5 Z"/></g>
<g><path style="opacity:1" fill="#f8f8f7" d="M 71.5,345.5 C 88.2603,360.394 106.927,372.56 127.5,382C 190.597,406.339 251.264,401.506 309.5,367.5C 310.487,372.305 310.821,377.305 310.5,382.5C 317.167,382.5 323.833,382.5 330.5,382.5C 330.5,389.167 330.5,395.833 330.5,402.5C 337.167,402.5 343.833,402.5 350.5,402.5C 350.5,395.833 350.5,389.167 350.5,382.5C 357.167,382.5 363.833,382.5 370.5,382.5C 370.5,389.167 370.5,395.833 370.5,402.5C 377.167,402.5 383.833,402.5 390.5,402.5C 390.5,395.833 390.5,389.167 390.5,382.5C 396.833,382.5 403.167,382.5 409.5,382.5C 409.5,390.833 409.5,399.167 409.5,407.5C 272.833,407.5 136.167,407.5 -0.5,407.5C -0.5,392.5 -0.5,377.5 -0.5,362.5C 9.83333,362.5 20.1667,362.5 30.5,362.5C 30.5,369.167 30.5,375.833 30.5,382.5C 37.1667,382.5 43.8333,382.5 50.5,382.5C 50.5,389.167 50.5,395.833 50.5,402.5C 57.1667,402.5 63.8333,402.5 70.5,402.5C 70.5,395.833 70.5,389.167 70.5,382.5C 77.1667,382.5 83.8333,382.5 90.5,382.5C 90.5,375.833 90.5,369.167 90.5,362.5C 83.8333,362.5 77.1667,362.5 70.5,362.5C 70.1778,356.642 70.5111,350.975 71.5,345.5 Z"/></g>
</svg>