<svg version="1.1" id="Layer_1" xmlns="http://www.w3.org/2000/svg" xmlns:xlink="http://www.w3.org/1999/xlink" x="0px" y="0px"
	 width="100%" viewBox="0 0 410 408" enable-background="new 0 0 410 408" xml:space="preserve">
<path fill="#000000" opacity="1.000000" stroke="none" 
	d="
M245.000000,409.000000 
	C163.333328,409.000000 82.166664,409.000000 1.000000,409.000000 
	C1.000000,273.000000 1.000000,137.000000 1.000000,1.000000 
	C137.666672,1.000000 274.333344,1.000000 411.000000,1.000000 
	C411.000000,137.000000 411.000000,273.000000 411.000000,409.000000 
	C355.833344,409.000000 300.666656,409.000000 245.000000,409.000000 
M136.055054,386.562286 
	C136.986618,386.845703 137.931564,387.091553 138.847778,387.418030 
	C160.748016,395.221222 183.237732,399.611908 206.568787,398.978241 
	C213.332321,398.794586 220.134460,398.722626 226.836807,397.916718 
	C235.882156,396.829102 245.026489,395.768127 253.814072,393.485687 
	C278.171753,387.159088 300.829742,376.969025 321.232697,362.002930 
	C335.140167,351.801483 347.799408,340.213409 358.515991,326.771210 
	C370.816895,311.341736 380.748413,294.443481 388.120544,275.982361 
	C396.688538,254.526581 400.804688,232.252777 401.891724,209.358704 
	C402.250732,201.797836 401.575470,194.156311 400.940094,186.588013 
	C400.188141,177.630630 399.783997,168.526093 397.793274,159.813400 
	C392.420349,136.298141 383.560944,114.038605 370.230133,93.848419 
	C360.091034,78.492264 348.829834,63.888790 334.017273,52.651108 
	C322.907806,44.222782 311.926910,35.307213 299.777863,28.629841 
	C270.119019,12.328761 238.154404,3.910584 204.060074,5.052382 
	C194.640213,5.367847 185.182480,5.872001 175.846024,7.087646 
	C155.092438,9.789849 135.453918,16.426113 116.772575,25.721575 
	C103.011612,32.568752 90.432251,41.203220 78.852219,51.444225 
	C67.818275,61.202293 57.513802,71.534843 48.882324,83.464996 
	C39.250397,96.777939 31.062668,110.867363 24.859196,126.180069 
	C16.895897,145.836761 12.088985,166.134872 11.063338,187.265808 
	C10.586267,197.094696 10.877385,206.967987 11.036173,216.817657 
	C11.115668,221.748749 11.232960,226.752548 12.103746,231.584579 
	C15.416602,249.967819 19.874825,268.077087 28.022068,285.001251 
	C39.822792,309.514679 55.054356,331.440399 75.790352,349.488251 
	C93.689430,365.066925 113.239136,377.636536 136.055054,386.562286 
z"/>
<path fill="#EEBD0F" opacity="1.000000" stroke="none" 
	d="
M135.737244,386.322144 
	C113.239136,377.636536 93.689430,365.066925 75.790352,349.488251 
	C55.054356,331.440399 39.822792,309.514679 28.022068,285.001251 
	C19.874825,268.077087 15.416602,249.967819 12.103746,231.584579 
	C11.232960,226.752548 11.115668,221.748749 11.036173,216.817657 
	C10.877385,206.967987 10.586267,197.094696 11.063338,187.265808 
	C12.088985,166.134872 16.895897,145.836761 24.859196,126.180069 
	C31.062668,110.867363 39.250397,96.777939 48.882324,83.464996 
	C57.513802,71.534843 67.818275,61.202293 78.852219,51.444225 
	C90.432251,41.203220 103.011612,32.568752 116.772575,25.721575 
	C135.453918,16.426113 155.092438,9.789849 175.846024,7.087646 
	C185.182480,5.872001 194.640213,5.367847 204.060074,5.052382 
	C238.154404,3.910584 270.119019,12.328761 299.777863,28.629841 
	C311.926910,35.307213 322.907806,44.222782 334.017273,52.651108 
	C348.829834,63.888790 360.091034,78.492264 370.230133,93.848419 
	C383.560944,114.038605 392.420349,136.298141 397.793274,159.813400 
	C399.783997,168.526093 400.188141,177.630630 400.940094,186.588013 
	C401.575470,194.156311 402.250732,201.797836 401.891724,209.358704 
	C400.804688,232.252777 396.688538,254.526581 388.120544,275.982361 
	C380.748413,294.443481 370.816895,311.341736 358.515991,326.771210 
	C347.799408,340.213409 335.140167,351.801483 321.232697,362.002930 
	C300.829742,376.969025 278.171753,387.159088 253.814072,393.485687 
	C245.026489,395.768127 235.882156,396.829102 226.836807,397.916718 
	C220.134460,398.722626 213.332321,398.794586 206.568787,398.978241 
	C183.237732,399.611908 160.748016,395.221222 138.847778,387.418030 
	C137.931564,387.091553 136.986618,386.845703 135.737244,386.322144 
M327.100494,219.500031 
	C327.098389,193.003296 327.181763,166.506195 327.063049,140.009979 
	C326.988403,123.346184 315.082336,111.057816 298.467834,111.016449 
	C236.976135,110.863350 175.483658,110.875435 113.991882,111.011337 
	C97.996147,111.046684 85.549194,122.505524 85.320580,138.376541 
	C84.833389,172.197693 84.792915,206.036514 85.319954,239.856415 
	C85.596413,257.596344 101.256821,269.745209 118.389816,266.749664 
	C118.389816,263.884796 118.389816,261.003510 118.389816,258.110504 
	C117.600182,257.948944 117.125008,257.785889 116.643089,257.762634 
	C101.272049,257.020447 94.987770,250.510712 94.983780,235.263229 
	C94.975677,204.267136 94.968460,173.271011 94.988159,142.274933 
	C94.997307,127.891190 102.086090,120.837463 116.499710,120.833221 
	C152.328537,120.822685 188.157349,120.829170 223.986176,120.830070 
	C248.649734,120.830688 273.313446,120.781174 297.976807,120.859169 
	C308.864471,120.893593 317.073944,128.063690 317.147095,138.420822 
	C317.385986,172.247437 317.349365,206.077316 317.168762,239.904617 
	C317.121490,248.764282 310.798431,255.561752 302.001923,257.233093 
	C299.427856,257.722168 296.775116,257.797150 294.070343,258.070862 
	C294.070343,261.144928 294.070343,264.049469 294.070343,266.912018 
	C312.661438,269.007782 326.829315,256.704987 327.080170,238.497574 
	C327.162811,232.499435 327.097931,226.499268 327.100494,219.500031 
M255.283279,186.500107 
	C255.284393,216.500076 255.239883,246.500168 255.314529,276.499969 
	C255.336792,285.449829 260.859833,291.280060 268.828735,291.203369 
	C276.575836,291.128845 281.916656,285.286346 281.924133,276.656952 
	C281.955261,240.656982 281.957245,204.656967 281.921509,168.657013 
	C281.913147,160.208954 276.319122,154.130447 268.732239,154.082336 
	C261.141449,154.034195 255.505814,160.004150 255.313522,168.500809 
	C255.185349,174.164612 255.285385,179.833588 255.283279,186.500107 
M198.593430,231.500244 
	C198.590424,221.338104 198.714523,211.173843 198.544525,201.014496 
	C198.406311,192.753937 192.819046,187.030212 185.334045,187.042664 
	C177.888214,187.055069 172.112228,192.937531 172.083694,201.017105 
	C171.993103,226.672028 172.007309,252.327591 172.085754,277.982605 
	C172.104355,284.065155 175.559021,288.914001 180.708588,290.832886 
	C189.754150,294.203583 198.425186,287.864227 198.543289,277.479736 
	C198.713791,262.488342 198.591034,247.493576 198.593430,231.500244 
M235.287277,210.131439 
	C230.725342,206.778381 225.886261,206.013458 220.803040,208.805328 
	C215.771103,211.569046 213.782547,215.972229 213.810226,221.643219 
	C213.900482,240.132462 213.810822,258.622528 213.859070,277.112091 
	C213.881454,285.692261 219.280777,291.661102 226.893494,291.732910 
	C234.503357,291.804688 240.135696,285.797852 240.162064,277.334045 
	C240.220184,258.677948 240.404633,240.016479 239.983337,221.369720 
	C239.901688,217.755783 237.298340,214.198807 235.287277,210.131439 
M130.382080,269.463715 
	C130.399124,272.460327 130.257721,275.467865 130.463928,278.451385 
	C131.008865,286.335876 136.634964,291.809479 143.929443,291.735443 
	C151.260254,291.661041 156.901276,285.606476 156.970566,277.531281 
	C157.052002,268.041534 157.049438,258.550079 156.971130,249.060272 
	C156.903412,240.853607 151.507202,235.044296 143.995575,234.888046 
	C136.278320,234.727493 130.598206,240.528198 130.417023,248.995255 
	C130.278122,255.485794 130.384720,261.981598 130.382080,269.463715 
z"/>
<path fill="#080600" opacity="1.000000" stroke="none" 
	d="
M327.100494,220.000031 
	C327.097931,226.499268 327.162811,232.499435 327.080170,238.497574 
	C326.829315,256.704987 312.661438,269.007782 294.070343,266.912018 
	C294.070343,264.049469 294.070343,261.144928 294.070343,258.070862 
	C296.775116,257.797150 299.427856,257.722168 302.001923,257.233093 
	C310.798431,255.561752 317.121490,248.764282 317.168762,239.904617 
	C317.349365,206.077316 317.385986,172.247437 317.147095,138.420822 
	C317.073944,128.063690 308.864471,120.893593 297.976807,120.859169 
	C273.313446,120.781174 248.649734,120.830688 223.986176,120.830070 
	C188.157349,120.829170 152.328537,120.822685 116.499710,120.833221 
	C102.086090,120.837463 94.997307,127.891190 94.988159,142.274933 
	C94.968460,173.271011 94.975677,204.267136 94.983780,235.263229 
	C94.987770,250.510712 101.272049,257.020447 116.643089,257.762634 
	C117.125008,257.785889 117.600182,257.948944 118.389816,258.110504 
	C118.389816,261.003510 118.389816,263.884796 118.389816,266.749664 
	C101.256821,269.745209 85.596413,257.596344 85.319954,239.856415 
	C84.792915,206.036514 84.833389,172.197693 85.320580,138.376541 
	C85.549194,122.505524 97.996147,111.046684 113.991882,111.011337 
	C175.483658,110.875435 236.976135,110.863350 298.467834,111.016449 
	C315.082336,111.057816 326.988403,123.346184 327.063049,140.009979 
	C327.181763,166.506195 327.098389,193.003296 327.100494,220.000031 
z"/>
<path fill="#050400" opacity="1.000000" stroke="none" 
	d="
M255.283295,186.000183 
	C255.285385,179.833588 255.185349,174.164612 255.313522,168.500809 
	C255.505814,160.004150 261.141449,154.034195 268.732239,154.082336 
	C276.319122,154.130447 281.913147,160.208954 281.921509,168.657013 
	C281.957245,204.656967 281.955261,240.656982 281.924133,276.656952 
	C281.916656,285.286346 276.575836,291.128845 268.828735,291.203369 
	C260.859833,291.280060 255.336792,285.449829 255.314529,276.499969 
	C255.239883,246.500168 255.284393,216.500076 255.283295,186.000183 
z"/>
<path fill="#060400" opacity="1.000000" stroke="none" 
	d="
M198.593414,232.000244 
	C198.591034,247.493576 198.713791,262.488342 198.543289,277.479736 
	C198.425186,287.864227 189.754150,294.203583 180.708588,290.832886 
	C175.559021,288.914001 172.104355,284.065155 172.085754,277.982605 
	C172.007309,252.327591 171.993103,226.672028 172.083694,201.017105 
	C172.112228,192.937531 177.888214,187.055069 185.334045,187.042664 
	C192.819046,187.030212 198.406311,192.753937 198.544525,201.014496 
	C198.714523,211.173843 198.590424,221.338104 198.593414,232.000244 
z"/>
<path fill="#020100" opacity="1.000000" stroke="none" 
	d="
M235.572739,210.373489 
	C237.298340,214.198807 239.901688,217.755783 239.983337,221.369720 
	C240.404633,240.016479 240.220184,258.677948 240.162064,277.334045 
	C240.135696,285.797852 234.503357,291.804688 226.893494,291.732910 
	C219.280777,291.661102 213.881454,285.692261 213.859070,277.112091 
	C213.810822,258.622528 213.900482,240.132462 213.810226,221.643219 
	C213.782547,215.972229 215.771103,211.569046 220.803040,208.805328 
	C225.886261,206.013458 230.725342,206.778381 235.572739,210.373489 
z"/>
<path fill="#050400" opacity="1.000000" stroke="none" 
	d="
M130.382111,268.969360 
	C130.384720,261.981598 130.278122,255.485794 130.417023,248.995255 
	C130.598206,240.528198 136.278320,234.727493 143.995575,234.888046 
	C151.507202,235.044296 156.903412,240.853607 156.971130,249.060272 
	C157.049438,258.550079 157.052002,268.041534 156.970566,277.531281 
	C156.901276,285.606476 151.260254,291.661041 143.929443,291.735443 
	C136.634964,291.809479 131.008865,286.335876 130.463928,278.451385 
	C130.257721,275.467865 130.399124,272.460327 130.382111,268.969360 
z"/>
</svg>