<svg version="1.1" id="Layer_1" xmlns="http://www.w3.org/2000/svg" xmlns:xlink="http://www.w3.org/1999/xlink" x="0px" y="0px"
	 width="100%" viewBox="0 0 409 409" enable-background="new 0 0 409 409" xml:space="preserve">
<path fill="#000000" opacity="1.000000" stroke="none" 
	d="
M275.000000,410.000000 
	C183.361191,410.000000 92.222389,410.000000 1.041790,410.000000 
	C1.041790,273.736206 1.041790,137.472382 1.041790,1.104284 
	C137.222076,1.104284 273.444275,1.104284 409.833221,1.104284 
	C409.833221,137.333160 409.833221,273.666565 409.833221,410.000000 
	C365.139130,410.000000 320.319580,410.000000 275.000000,410.000000 
M106.182831,290.650665 
	C106.693024,290.878296 107.203217,291.105957 107.349243,291.825836 
	C108.849854,293.925690 110.350464,296.025543 112.171913,298.707703 
	C113.424828,299.490723 114.677742,300.273743 115.906883,301.111298 
	C115.906883,301.111298 115.915527,301.170166 116.237999,301.774811 
	C123.897072,309.968292 131.719055,317.603485 141.768982,323.370300 
	C150.101776,328.151764 158.545837,332.058044 167.469147,335.280273 
	C169.932770,336.169922 172.138992,337.954865 174.644943,338.511841 
	C183.523773,340.485229 192.421127,342.582031 201.426834,343.715668 
	C209.353119,344.713440 217.461288,345.024933 225.437485,344.620605 
	C231.488022,344.313904 237.493668,342.560974 243.453995,341.171448 
	C251.630585,339.265289 259.961487,337.693726 267.823242,334.860443 
	C275.045319,332.257690 281.778442,328.259155 288.619965,324.671478 
	C290.029022,323.932587 290.744049,321.682861 292.156708,321.169952 
	C298.687042,318.799011 303.375305,314.376495 307.661713,309.090607 
	C312.306976,303.362122 319.150116,299.783112 323.330383,293.462677 
	C325.471100,290.225891 328.395691,287.513123 330.602264,284.312775 
	C333.139008,280.633575 335.353485,276.722443 337.561035,272.828735 
	C339.939026,268.634277 342.401215,264.455383 344.338745,260.054871 
	C345.608673,257.170563 346.012573,253.904861 346.804077,250.809937 
	C348.914642,242.557220 351.719391,234.403793 352.918396,226.020691 
	C353.898804,219.166077 352.963623,212.037491 352.985107,204.095245 
	C353.329773,199.013107 354.356323,193.861755 353.849274,188.866058 
	C353.191437,182.384857 351.330109,176.023804 349.951019,169.618729 
	C349.366669,166.904785 349.057281,164.054932 347.987427,161.536850 
	C344.962250,154.416855 341.606689,147.437302 338.386597,140.399979 
	C337.972839,139.495743 337.724579,138.484344 337.169342,137.681976 
	C335.219208,134.863785 333.099060,132.162491 331.170898,129.330063 
	C327.493408,123.928001 325.029053,116.736359 319.995972,113.461784 
	C313.527985,109.253624 309.825134,102.728134 303.761108,98.221954 
	C298.587341,94.377319 293.535248,89.821609 287.964325,86.717239 
	C276.856232,80.527283 265.275940,75.025345 252.798584,71.908241 
	C250.298050,71.283554 247.625626,71.294830 245.167755,70.560226 
	C233.014175,66.927788 220.610703,66.360550 207.165009,67.058723 
	C203.415070,67.352409 199.608215,67.333275 195.926712,68.003067 
	C187.536285,69.529533 178.916656,70.562126 170.934021,73.351700 
	C162.738037,76.215828 155.324524,81.239891 147.320541,84.753723 
	C138.338882,88.696800 131.086868,94.918770 123.164680,101.475052 
	C122.137642,101.824295 120.859589,101.899590 120.127342,102.570549 
	C117.075684,105.366798 114.120720,108.279411 111.301399,111.308609 
	C110.779999,111.868820 111.049591,113.165237 110.698624,114.756165 
	C107.383377,119.170158 104.068123,123.584152 100.035439,128.375992 
	C90.941544,128.581802 81.841660,128.657272 72.757515,129.075012 
	C70.126030,129.196014 67.539680,130.298477 64.315346,130.807648 
	C63.642231,130.922958 62.759460,130.804260 62.328762,131.190140 
	C58.442993,134.671524 56.980572,139.161652 56.983852,144.283676 
	C57.010090,185.239899 57.067982,226.196320 56.929649,267.152039 
	C56.915497,271.341522 56.896004,275.047150 61.092121,277.675903 
	C61.221146,277.893036 61.411594,277.992279 62.016232,278.473053 
	C63.005627,279.024139 63.995018,279.575226 65.780136,280.072815 
	C68.225563,280.720184 70.649422,281.816071 73.120277,281.934906 
	C82.362900,282.379608 91.620903,282.504547 100.928963,283.502716 
	C102.588226,285.720764 104.247490,287.938782 106.182831,290.650665 
z"/>
<path fill="#D35332" opacity="1.000000" stroke="none" 
	d="
M352.877716,205.030365 
	C352.963623,212.037491 353.898804,219.166077 352.918396,226.020691 
	C351.719391,234.403793 348.914642,242.557220 346.804077,250.809937 
	C346.012573,253.904861 345.608673,257.170563 344.338745,260.054871 
	C342.401215,264.455383 339.939026,268.634277 337.561035,272.828735 
	C335.353485,276.722443 333.139008,280.633575 330.602264,284.312775 
	C328.395691,287.513123 325.471100,290.225891 323.330383,293.462677 
	C319.150116,299.783112 312.306976,303.362122 307.661713,309.090607 
	C303.375305,314.376495 298.687042,318.799011 292.156708,321.169952 
	C290.744049,321.682861 290.029022,323.932587 288.619965,324.671478 
	C281.778442,328.259155 275.045319,332.257690 267.823242,334.860443 
	C259.961487,337.693726 251.630585,339.265289 243.453995,341.171448 
	C237.493668,342.560974 231.488022,344.313904 225.437485,344.620605 
	C217.461288,345.024933 209.353119,344.713440 201.426834,343.715668 
	C192.421127,342.582031 183.523773,340.485229 174.644943,338.511841 
	C172.138992,337.954865 169.932770,336.169922 167.469147,335.280273 
	C158.545837,332.058044 150.101776,328.151764 141.768982,323.370300 
	C131.719055,317.603485 123.897072,309.968292 116.547020,301.397827 
	C145.655502,301.019806 174.455032,300.984070 203.254333,301.049347 
	C208.512726,301.061249 212.152039,298.986511 214.299149,293.890320 
	C215.033676,293.168671 215.515930,292.584351 216.348480,291.960083 
	C221.939957,289.292542 222.955673,284.482697 222.972382,279.324432 
	C223.051682,254.848587 223.048080,230.372452 223.537842,205.883255 
	C264.492828,205.871414 304.984039,205.887512 345.475128,205.837952 
	C347.942993,205.834930 350.410187,205.311600 352.877716,205.030365 
z"/>
<path fill="#FF906C" opacity="1.000000" stroke="none" 
	d="
M352.931396,204.562805 
	C350.410187,205.311600 347.942993,205.834930 345.475128,205.837952 
	C304.984039,205.887512 264.492828,205.871414 223.563919,205.831833 
	C223.126160,205.793579 223.126587,205.676376 223.083588,205.242554 
	C223.022858,182.704620 223.070221,160.600098 222.939850,138.496628 
	C222.908813,133.233536 221.976471,128.143387 216.043121,125.632645 
	C215.964523,124.899117 215.908722,124.481316 215.891937,123.592422 
	C215.949097,106.746132 215.894821,90.370262 216.044754,73.996262 
	C216.075821,70.602249 215.550812,68.575516 211.509354,68.934464 
	C210.421799,69.031044 209.217606,67.814369 208.066956,67.200531 
	C220.610703,66.360550 233.014175,66.927788 245.167755,70.560226 
	C247.625626,71.294830 250.298050,71.283554 252.798584,71.908241 
	C265.275940,75.025345 276.856232,80.527283 287.964325,86.717239 
	C293.535248,89.821609 298.587341,94.377319 303.761108,98.221954 
	C309.825134,102.728134 313.527985,109.253624 319.995972,113.461784 
	C325.029053,116.736359 327.493408,123.928001 331.170898,129.330063 
	C333.099060,132.162491 335.219208,134.863785 337.169342,137.681976 
	C337.724579,138.484344 337.972839,139.495743 338.386597,140.399979 
	C341.606689,147.437302 344.962250,154.416855 347.987427,161.536850 
	C349.057281,164.054932 349.366669,166.904785 349.951019,169.618729 
	C351.330109,176.023804 353.191437,182.384857 353.849274,188.866058 
	C354.356323,193.861755 353.329773,199.013107 352.931396,204.562805 
z"/>
<path fill="#BF391A" opacity="1.000000" stroke="none" 
	d="
M61.663467,277.973572 
	C61.411594,277.992279 61.221146,277.893036 61.098022,277.121277 
	C60.502583,274.718689 59.901241,272.870789 59.618561,270.957703 
	C69.381050,265.048859 78.731857,259.046448 88.310600,253.433014 
	C92.660240,250.883972 97.461533,249.105621 102.519379,247.010925 
	C107.970055,246.698639 112.959305,246.353134 118.237999,245.721313 
	C118.681618,242.289429 118.835800,239.143829 119.345879,235.957458 
	C132.624710,229.587204 144.208099,220.966446 157.029678,214.391739 
	C169.082870,208.211044 180.381577,200.575745 192.252823,194.015793 
	C197.494598,191.119263 203.330719,189.298340 208.928741,187.457474 
	C208.988159,193.624771 209.015839,199.323700 209.024445,205.489532 
	C208.963181,214.965424 208.920975,223.974380 208.457489,232.987488 
	C204.466568,234.041260 200.536957,234.455811 197.385056,236.242401 
	C175.123932,248.860672 152.981064,261.690582 130.955597,274.715302 
	C129.340591,275.670349 128.942673,278.683563 127.515457,280.804321 
	C120.006607,280.888214 112.959671,280.833527 105.916985,280.981628 
	C104.249603,281.016663 102.596542,281.732727 100.905853,282.287415 
	C100.874809,282.439301 100.873138,282.749420 100.873138,282.749390 
	C91.620903,282.504547 82.362900,282.379608 73.120277,281.934906 
	C70.649422,281.816071 68.225563,280.720184 65.295944,279.732788 
	C63.762329,278.919739 62.712898,278.446655 61.663467,277.973572 
z"/>
<path fill="#ED6E4A" opacity="1.000000" stroke="none" 
	d="
M207.615982,67.129623 
	C209.217606,67.814369 210.421799,69.031044 211.509354,68.934464 
	C215.550812,68.575516 216.075821,70.602249 216.044754,73.996262 
	C215.894821,90.370262 215.949097,106.746132 215.479935,123.570541 
	C210.248459,123.681664 205.468933,123.066963 200.687408,123.051056 
	C172.753357,122.958145 144.817780,123.133583 116.885345,122.902313 
	C110.977661,122.853394 105.675514,123.186295 101.559204,128.208817 
	C101.112190,128.088242 100.932533,128.043198 100.752876,127.998146 
	C104.068123,123.584152 107.383377,119.170158 111.181076,114.378662 
	C115.902542,110.098122 120.146736,106.200584 124.343552,102.252686 
	C124.427597,102.173630 123.958221,101.506271 123.747040,101.113373 
	C131.086868,94.918770 138.338882,88.696800 147.320541,84.753723 
	C155.324524,81.239891 162.738037,76.215828 170.934021,73.351700 
	C178.916656,70.562126 187.536285,69.529533 195.926712,68.003067 
	C199.608215,67.333275 203.415070,67.352409 207.615982,67.129623 
z"/>
<path fill="#A94327" opacity="1.000000" stroke="none" 
	d="
M214.046875,294.027649 
	C212.152039,298.986511 208.512726,301.061249 203.254333,301.049347 
	C174.455032,300.984070 145.655502,301.019806 116.385788,301.095520 
	C115.915527,301.170166 115.906883,301.111298 115.925507,300.742798 
	C113.940781,296.608307 113.348152,296.282684 111.851082,298.125397 
	C110.350464,296.025543 108.849854,293.925690 107.609558,291.487305 
	C107.869873,291.148804 108.034416,290.974396 108.334747,291.130920 
	C111.177879,295.333984 115.105301,294.036346 118.785973,294.031799 
	C150.539551,293.992615 182.293228,294.020081 214.046875,294.027649 
z"/>
<path fill="#D47257" opacity="1.000000" stroke="none" 
	d="
M59.299904,271.022858 
	C59.901241,272.870789 60.502583,274.718689 61.065941,276.955750 
	C56.896004,275.047150 56.915497,271.341522 56.929649,267.152039 
	C57.067982,226.196320 57.010090,185.239899 56.983852,144.283676 
	C56.980572,139.161652 58.442993,134.671524 62.328762,131.190140 
	C62.759460,130.804260 63.642231,130.922958 64.616943,130.919815 
	C64.918533,131.031982 64.988358,131.077698 64.920593,131.407623 
	C61.652893,134.931656 58.945053,138.214294 58.974728,143.233078 
	C59.114216,166.824036 59.066742,190.416092 59.061626,214.475342 
	C59.124802,233.636215 59.212353,252.329544 59.299904,271.022858 
z"/>
<path fill="#CB502E" opacity="1.000000" stroke="none" 
	d="
M100.394157,128.187073 
	C100.932533,128.043198 101.112190,128.088242 101.608795,128.493332 
	C101.947807,129.242065 101.969864,129.630768 101.685844,130.299500 
	C92.797615,130.720963 84.215607,130.872025 75.633240,130.999176 
	C72.085335,131.051758 68.536674,131.053070 64.988358,131.077698 
	C64.988358,131.077698 64.918533,131.031982 64.925583,130.991486 
	C67.539680,130.298477 70.126030,129.196014 72.757515,129.075012 
	C81.841660,128.657272 90.941544,128.581802 100.394157,128.187073 
z"/>
<path fill="#FADDD5" opacity="1.000000" stroke="none" 
	d="
M123.455856,101.294212 
	C123.958221,101.506271 124.427597,102.173630 124.343552,102.252686 
	C120.146736,106.200584 115.902542,110.098122 111.308807,114.061508 
	C111.049591,113.165237 110.779999,111.868820 111.301399,111.308609 
	C114.120720,108.279411 117.075684,105.366798 120.127342,102.570549 
	C120.859589,101.899590 122.137642,101.824295 123.455856,101.294212 
z"/>
<path fill="#993D25" opacity="1.000000" stroke="none" 
	d="
M100.901047,283.126068 
	C100.873138,282.749420 100.874809,282.439301 101.242081,282.306427 
	C103.107910,284.039154 104.606468,285.904785 106.065613,288.167480 
	C105.986382,289.095337 105.946571,289.626099 105.906761,290.156830 
	C104.247490,287.938782 102.588226,285.720764 100.901047,283.126068 
z"/>
<path fill="#D35332" opacity="1.000000" stroke="none" 
	d="
M112.011497,298.416565 
	C113.348152,296.282684 113.940781,296.608307 115.937386,300.715515 
	C114.677742,300.273743 113.424828,299.490723 112.011497,298.416565 
z"/>
<path fill="#D47257" opacity="1.000000" stroke="none" 
	d="
M61.839851,278.223328 
	C62.712898,278.446655 63.762329,278.919739 64.898087,279.759552 
	C63.995018,279.575226 63.005627,279.024139 61.839851,278.223328 
z"/>
<path fill="#A94327" opacity="1.000000" stroke="none" 
	d="
M106.044800,290.403748 
	C105.946571,289.626099 105.986382,289.095337 106.291031,288.225037 
	C106.555862,287.885437 107.014114,287.968018 107.136337,288.264465 
	C107.517174,289.365387 107.775795,290.169891 108.034416,290.974396 
	C108.034416,290.974396 107.869873,291.148804 107.791641,291.241211 
	C107.203217,291.105957 106.693024,290.878296 106.044800,290.403748 
z"/>
<path fill="#993D25" opacity="1.000000" stroke="none" 
	d="
M108.334747,291.130920 
	C107.775795,290.169891 107.517174,289.365387 107.603439,288.262482 
	C134.685364,287.963654 161.422546,288.007599 188.159317,287.920410 
	C192.773727,287.905365 197.386307,287.333679 202.237076,287.269287 
	C208.236130,288.362305 211.160294,283.738220 215.325089,281.296509 
	C215.727982,285.069733 215.863083,288.534882 215.998184,292.000000 
	C215.515930,292.584351 215.033676,293.168671 214.299149,293.890320 
	C182.293228,294.020081 150.539551,293.992615 118.785973,294.031799 
	C115.105301,294.036346 111.177879,295.333984 108.334747,291.130920 
z"/>
<path fill="#BE4A2B" opacity="1.000000" stroke="none" 
	d="
M216.348480,291.960083 
	C215.863083,288.534882 215.727982,285.069733 215.336609,280.877075 
	C215.375137,277.188538 215.909592,274.228882 215.926529,271.266296 
	C216.051132,249.470627 216.072311,227.674377 216.560211,205.881119 
	C219.038422,205.814743 221.082504,205.745560 223.126587,205.676376 
	C223.126587,205.676376 223.126160,205.793579 223.100067,205.845001 
	C223.048080,230.372452 223.051682,254.848587 222.972382,279.324432 
	C222.955673,284.482697 221.939957,289.292542 216.348480,291.960083 
z"/>
<path fill="#D76241" opacity="1.000000" stroke="none" 
	d="
M101.991920,130.019455 
	C101.969864,129.630768 101.947807,129.242065 101.876160,128.568863 
	C105.675514,123.186295 110.977661,122.853394 116.885345,122.902313 
	C144.817780,123.133583 172.753357,122.958145 200.687408,123.051056 
	C205.468933,123.066963 210.248459,123.681664 215.440918,124.041626 
	C215.908722,124.481316 215.964523,124.899117 216.013718,126.090958 
	C215.654358,130.249664 215.301620,133.634323 214.655746,136.853210 
	C210.915924,131.690857 206.178192,129.491623 199.658829,130.090240 
	C190.793732,130.064072 182.404800,130.068665 173.545807,130.049454 
	C149.381149,130.023575 125.686531,130.021515 101.991920,130.019455 
z"/>
<path fill="#E77E5D" opacity="1.000000" stroke="none" 
	d="
M214.948883,137.018997 
	C215.301620,133.634323 215.654358,130.249664 216.036499,126.406685 
	C221.976471,128.143387 222.908813,133.233536 222.939850,138.496628 
	C223.070221,160.600098 223.022858,182.704620 223.083588,205.242554 
	C221.082504,205.745560 219.038422,205.814743 216.461945,205.673706 
	C215.929535,205.463486 215.706421,205.061523 215.780518,204.592010 
	C215.877258,187.528915 215.983978,170.934799 215.876801,154.342056 
	C215.839493,148.565948 215.273438,142.793259 214.948883,137.018997 
z"/>
<path fill="#C54220" opacity="1.000000" stroke="none" 
	d="
M174.015854,130.073273 
	C182.404800,130.068665 190.793732,130.064072 199.855240,130.337006 
	C206.752808,133.442947 209.072205,138.469452 209.012436,145.075531 
	C208.886063,159.045929 208.925552,173.017822 208.897018,186.989105 
	C203.330719,189.298340 197.494598,191.119263 192.252823,194.015793 
	C180.381577,200.575745 169.082870,208.211044 157.029678,214.391739 
	C144.208099,220.966446 132.624710,229.587204 119.320694,235.490570 
	C118.643486,229.209991 118.347382,223.355545 118.513351,217.439468 
	C124.555550,217.345322 130.140656,217.427277 135.711609,217.184601 
	C136.839218,217.135483 137.913376,215.859451 139.183899,215.057739 
	C139.355606,214.966446 139.731522,215.066269 139.917435,215.316101 
	C140.485382,215.714142 140.867416,215.862350 141.404587,216.000763 
	C141.559723,215.990967 141.846298,216.111481 142.072937,216.370865 
	C143.253418,216.070770 144.207260,215.511292 145.513046,214.950928 
	C153.190155,211.120224 159.139709,206.308502 162.714081,198.264923 
	C167.260422,188.034042 162.260941,180.270752 157.949371,171.674164 
	C157.512146,168.845398 156.822723,166.854126 153.618713,169.020874 
	C153.398056,168.982452 152.972153,168.843643 152.826797,168.654297 
	C152.436646,168.243927 152.150299,168.115677 151.492615,168.067688 
	C149.406372,167.433136 147.649933,166.811096 145.882935,165.804657 
	C143.916550,164.611877 141.960724,163.803497 139.960037,162.637543 
	C137.884430,158.545273 140.786469,157.312607 143.206619,155.928802 
	C153.131165,150.254120 163.106201,144.667175 172.997009,138.934662 
	C174.937439,137.810028 176.586426,136.182587 177.792267,135.238998 
	C176.065308,132.876694 175.040573,131.474991 174.015854,130.073273 
z"/>
<path fill="#C5411F" opacity="1.000000" stroke="none" 
	d="
M59.618561,270.957703 
	C59.212353,252.329544 59.124802,233.636215 59.392365,214.406296 
	C63.171356,210.743073 66.249535,207.080612 70.091431,204.601913 
	C77.970139,199.518707 86.297180,195.135239 94.355339,190.322556 
	C96.932381,188.783432 99.243721,186.799423 101.748657,185.480927 
	C101.899773,206.287811 101.978867,226.632751 102.057953,246.977692 
	C97.461533,249.105621 92.660240,250.883972 88.310600,253.433014 
	C78.731857,259.046448 69.381050,265.048859 59.618561,270.957703 
z"/>
<path fill="#B83316" opacity="1.000000" stroke="none" 
	d="
M127.978920,280.739929 
	C128.942673,278.683563 129.340591,275.670349 130.955597,274.715302 
	C152.981064,261.690582 175.123932,248.860672 197.385056,236.242401 
	C200.536957,234.455811 204.466568,234.041260 208.495941,233.456787 
	C208.964966,238.722168 209.089310,243.525574 208.957947,248.321976 
	C208.732361,256.559662 208.347198,264.792999 207.873795,273.331238 
	C205.394150,278.505890 201.246811,280.847351 196.135132,280.865936 
	C173.416855,280.948517 150.697739,280.802979 127.978920,280.739929 
z"/>
<path fill="#632717" opacity="1.000000" stroke="none" 
	d="
M127.515457,280.804321 
	C150.697739,280.802979 173.416855,280.948517 196.135132,280.865936 
	C201.246811,280.847351 205.394150,278.505890 208.136658,273.590088 
	C209.950317,279.778992 206.018661,283.420288 201.999741,287.019104 
	C197.386307,287.333679 192.773727,287.905365 188.159317,287.920410 
	C161.422546,288.007599 134.685364,287.963654 107.481216,287.966064 
	C107.014114,287.968018 106.555862,287.885437 106.330444,287.827911 
	C104.606468,285.904785 103.107910,284.039154 101.273117,282.154541 
	C102.596542,281.732727 104.249603,281.016663 105.916985,280.981628 
	C112.959671,280.833527 120.006607,280.888214 127.515457,280.804321 
z"/>
<path fill="#7B301C" opacity="1.000000" stroke="none" 
	d="
M202.237076,287.269318 
	C206.018661,283.420288 209.950317,279.778992 208.291901,273.287018 
	C208.347198,264.792999 208.732361,256.559662 208.957947,248.321976 
	C209.089310,243.525574 208.964966,238.722168 208.917236,233.452637 
	C208.920975,223.974380 208.963181,214.965424 209.445251,205.484604 
	C211.825546,205.029007 213.765991,205.045258 215.706421,205.061523 
	C215.706421,205.061523 215.929535,205.463486 216.027802,205.670898 
	C216.072311,227.674377 216.051132,249.470627 215.926529,271.266296 
	C215.909592,274.228882 215.375137,277.188538 215.068787,280.568970 
	C211.160294,283.738220 208.236130,288.362305 202.237076,287.269318 
z"/>
<path fill="#8A3E29" opacity="1.000000" stroke="none" 
	d="
M215.780518,204.592010 
	C213.765991,205.045258 211.825546,205.029007 209.464325,205.017700 
	C209.015839,199.323700 208.988159,193.624771 208.928741,187.457474 
	C208.925552,173.017822 208.886063,159.045929 209.012436,145.075531 
	C209.072205,138.469452 206.752808,133.442947 200.331390,130.367767 
	C206.178192,129.491623 210.915924,131.690857 214.655746,136.853210 
	C215.273438,142.793259 215.839493,148.565948 215.876801,154.342056 
	C215.983978,170.934799 215.877258,187.528915 215.780518,204.592010 
z"/>
<path fill="#EFCAC0" opacity="1.000000" stroke="none" 
	d="
M102.519379,247.010925 
	C101.978867,226.632751 101.899773,206.287811 101.829124,185.017181 
	C101.852440,178.526855 101.749222,172.957352 101.978088,167.401550 
	C102.026031,166.237732 103.297379,165.124298 104.043266,164.247559 
	C104.108955,164.680450 104.136345,164.853439 104.080124,165.486786 
	C103.996506,192.200455 103.996506,218.453796 103.996506,244.884689 
	C108.329185,244.884689 112.132530,244.884689 116.186371,245.031677 
	C116.940765,245.454987 117.444656,245.731308 117.948547,246.007629 
	C112.959305,246.353134 107.970055,246.698639 102.519379,247.010925 
z"/>
<path fill="#D4765E" opacity="1.000000" stroke="none" 
	d="
M118.237991,245.721313 
	C117.444656,245.731308 116.940765,245.454987 116.216736,244.572647 
	C116.007408,235.193024 116.018219,226.419434 116.088341,217.703827 
	C116.147659,217.761795 116.452454,217.788300 116.840919,217.653931 
	C117.503349,217.513412 117.777306,217.507248 118.051270,217.501083 
	C118.347382,223.355545 118.643486,229.209991 118.964783,235.531342 
	C118.835800,239.143829 118.681618,242.289429 118.237991,245.721313 
z"/>
<path fill="#C84724" opacity="1.000000" stroke="none" 
	d="
M104.004959,163.987640 
	C103.297379,165.124298 102.026031,166.237732 101.978088,167.401550 
	C101.749222,172.957352 101.852440,178.526855 101.757095,184.555237 
	C99.243721,186.799423 96.932381,188.783432 94.355339,190.322556 
	C86.297180,195.135239 77.970139,199.518707 70.091431,204.601913 
	C66.249535,207.080612 63.171356,210.743073 59.416740,213.938721 
	C59.066742,190.416092 59.114216,166.824036 58.974728,143.233078 
	C58.945053,138.214294 61.652893,134.931656 64.920593,131.407623 
	C68.536674,131.053070 72.085335,131.051758 75.633240,130.999176 
	C84.215607,130.872025 92.797615,130.720963 101.685844,130.299500 
	C125.686531,130.021515 149.381149,130.023575 173.545807,130.049454 
	C175.040573,131.474991 176.065308,132.876694 177.792267,135.238998 
	C176.586426,136.182587 174.937439,137.810028 172.997009,138.934662 
	C163.106201,144.667175 153.131165,150.254120 143.206619,155.928802 
	C140.786469,157.312607 137.884430,158.545273 139.956055,162.641525 
	C139.996933,163.003067 139.988907,163.011124 139.521423,163.006256 
	C129.100174,163.001740 119.145981,162.955399 109.193047,163.046722 
	C107.460953,163.062592 105.734184,163.659241 104.004959,163.987640 
z"/>
<path fill="#000000" opacity="1.000000" stroke="none" 
	d="
M116.029022,217.645844 
	C116.018219,226.419434 116.007408,235.193024 115.966240,244.425659 
	C112.132530,244.884689 108.329185,244.884689 103.996506,244.884689 
	C103.996506,218.453796 103.996506,192.200455 104.536407,165.476746 
	C116.731178,165.042862 128.386047,165.079346 140.421814,165.072098 
	C142.499634,165.415268 144.196548,165.802155 145.893478,166.189056 
	C147.649933,166.811096 149.406372,167.433136 151.615936,168.291626 
	C152.370071,168.633255 152.671112,168.738449 152.972153,168.843643 
	C152.972153,168.843643 153.398056,168.982452 153.714447,169.358307 
	C155.338120,170.504181 156.645432,171.274185 157.952728,172.044189 
	C162.260941,180.270752 167.260422,188.034042 162.714081,198.264923 
	C159.139709,206.308502 153.190155,211.120224 145.344269,214.647247 
	C143.831146,214.933472 142.838715,215.522476 141.846298,216.111481 
	C141.846298,216.111481 141.559723,215.990967 141.233002,215.727753 
	C140.514709,215.331787 140.123108,215.199036 139.731522,215.066269 
	C139.731522,215.066269 139.355606,214.966446 138.708893,215.041534 
	C131.732559,215.088028 125.399887,214.954376 119.076447,215.138260 
	C118.068329,215.167557 117.101646,216.622086 116.034393,217.452026 
	C115.952980,217.486343 116.029022,217.645844 116.029022,217.645844 
M116.022552,205.861282 
	C116.288628,206.201660 116.550491,206.835526 116.821396,206.839401 
	C123.363541,206.933197 129.907211,207.002121 136.448563,206.917618 
	C136.970276,206.910904 137.477234,205.760193 138.751617,205.008438 
	C139.836380,204.676315 140.909149,204.296463 142.007904,204.019958 
	C148.310532,202.433945 153.641586,190.253616 150.266388,184.772400 
	C146.974869,179.427063 142.829269,175.139618 134.973694,175.011856 
	C129.976288,174.995148 124.973335,175.114731 119.983505,174.911758 
	C116.876213,174.785370 115.907372,176.000259 115.969330,179.002518 
	C116.147995,187.659836 116.106079,196.321701 116.022552,205.861282 
z"/>
<path fill="#F8E9E5" opacity="1.000000" stroke="none" 
	d="
M116.115807,217.417725 
	C117.101646,216.622086 118.068329,215.167557 119.076447,215.138260 
	C125.399887,214.954376 131.732559,215.088028 138.537170,215.132843 
	C137.913376,215.859451 136.839218,217.135483 135.711609,217.184601 
	C130.140656,217.427277 124.555550,217.345322 118.513351,217.439468 
	C117.777306,217.507248 117.503349,217.513412 116.809555,217.513458 
	C116.389732,217.507339 116.115807,217.417725 116.115807,217.417725 
z"/>
<path fill="#C84724" opacity="1.000000" stroke="none" 
	d="
M145.882935,165.804657 
	C144.196548,165.802155 142.499634,165.415268 140.408234,164.721344 
	C140.005463,163.946594 139.997192,163.478867 139.988907,163.011124 
	C139.988907,163.011124 139.996933,163.003067 140.000916,162.999084 
	C141.960724,163.803497 143.916550,164.611877 145.882935,165.804657 
z"/>
<path fill="#D76241" opacity="1.000000" stroke="none" 
	d="
M157.949371,171.674164 
	C156.645432,171.274185 155.338120,170.504181 153.935089,169.396729 
	C156.822723,166.854126 157.512146,168.845398 157.949371,171.674164 
z"/>
<path fill="#D4765E" opacity="1.000000" stroke="none" 
	d="
M142.072937,216.370865 
	C142.838715,215.522476 143.831146,214.933472 144.992340,214.648148 
	C144.207260,215.511292 143.253418,216.070770 142.072937,216.370865 
z"/>
<path fill="#D4765E" opacity="1.000000" stroke="none" 
	d="
M139.917435,215.316101 
	C140.123108,215.199036 140.514709,215.331787 141.077881,215.737549 
	C140.867416,215.862350 140.485382,215.714142 139.917435,215.316101 
z"/>
<path fill="#C84724" opacity="1.000000" stroke="none" 
	d="
M152.826797,168.654297 
	C152.671112,168.738449 152.370071,168.633255 151.945709,168.304123 
	C152.150299,168.115677 152.436646,168.243927 152.826797,168.654297 
z"/>
<path fill="#CC5637" opacity="1.000000" stroke="none" 
	d="
M139.521423,163.006256 
	C139.997192,163.478867 140.005463,163.946594 140.027344,164.765076 
	C128.386047,165.079346 116.731178,165.042862 104.620026,165.016418 
	C104.136345,164.853439 104.108955,164.680450 104.043259,164.247559 
	C105.734184,163.659241 107.460953,163.062592 109.193047,163.046722 
	C119.145981,162.955399 129.100174,163.001740 139.521423,163.006256 
z"/>
<path fill="#C54220" opacity="1.000000" stroke="none" 
	d="
M116.034393,217.452026 
	C116.115807,217.417725 116.389732,217.507339 116.421097,217.647827 
	C116.452454,217.788300 116.147659,217.761795 116.088341,217.703827 
	C116.029022,217.645844 115.952980,217.486343 116.034393,217.452026 
z"/>
<path fill="#C74625" opacity="1.000000" stroke="none" 
	d="
M135.874649,175.189819 
	C142.829269,175.139618 146.974869,179.427063 150.266388,184.772400 
	C153.641586,190.253616 148.310532,202.433945 142.007904,204.019958 
	C140.909149,204.296463 139.836380,204.676315 138.006653,205.128815 
	C131.199387,205.107956 125.137077,204.966705 119.021767,204.370239 
	C118.946632,198.421890 118.908585,192.928818 118.905785,187.435699 
	C118.900490,177.051941 118.910744,177.152573 129.466583,176.959732 
	C131.612671,176.920532 133.739136,175.807709 135.874649,175.189819 
z"/>
<path fill="#D87D65" opacity="1.000000" stroke="none" 
	d="
M135.424164,175.100845 
	C133.739136,175.807709 131.612671,176.920532 129.466583,176.959732 
	C118.910744,177.152573 118.900490,177.051941 118.905785,187.435699 
	C118.908585,192.928818 118.946632,198.421890 118.658936,204.424896 
	C117.616325,204.950470 116.883560,204.966125 116.150787,204.981781 
	C116.106079,196.321701 116.147995,187.659836 115.969330,179.002518 
	C115.907372,176.000259 116.876213,174.785370 119.983505,174.911758 
	C124.973335,175.114731 129.976288,174.995148 135.424164,175.100845 
z"/>
<path fill="#F8E9E5" opacity="1.000000" stroke="none" 
	d="
M116.086670,205.421539 
	C116.883560,204.966125 117.616325,204.950470 118.711929,204.880142 
	C125.137077,204.966705 131.199387,205.107956 137.626373,205.195145 
	C137.477234,205.760193 136.970276,206.910904 136.448563,206.917618 
	C129.907211,207.002121 123.363541,206.933197 116.821396,206.839401 
	C116.550491,206.835526 116.288628,206.201660 116.086670,205.421539 
z"/>
</svg>



