<svg version="1.1" id="Layer_1" xmlns="http://www.w3.org/2000/svg" xmlns:xlink="http://www.w3.org/1999/xlink" x="0px" y="0px"
	 width="100%" viewBox="0 0 409 409" enable-background="new 0 0 409 409" xml:space="preserve">
<path fill="#000000" opacity="1.000000" stroke="none" 
	d="
M410.000000,146.000000 
	C410.000000,234.333328 410.000000,322.166656 410.000000,410.000000 
	C273.666656,410.000000 137.333328,410.000000 1.000000,410.000000 
	C1.000000,273.666656 1.000000,137.333328 1.000000,1.000000 
	C137.333328,1.000000 273.666656,1.000000 410.000000,1.000000 
	C410.000000,49.166668 410.000000,97.333336 410.000000,146.000000 
M351.843506,61.026581 
	C350.367737,56.697170 349.837677,51.667637 347.244812,48.165218 
	C338.258759,36.027000 324.973358,29.655006 311.423889,24.236797 
	C289.694885,15.547727 266.726990,11.444477 243.624252,9.377064 
	C224.413269,7.657912 204.986221,8.281799 185.652802,8.022670 
	C166.594986,7.767235 147.865372,10.727352 129.164658,14.017606 
	C106.989197,17.919216 85.789246,24.538145 66.993782,37.218533 
	C57.195442,43.828999 50.081135,52.488369 51.991882,66.600517 
	C51.994545,159.074753 51.994637,251.548996 52.010265,344.023224 
	C52.010826,347.352325 52.164486,350.681458 52.330982,354.719910 
	C55.023422,363.270172 61.112728,369.129608 68.194298,373.957458 
	C90.172523,388.941071 115.341057,394.870758 141.073212,398.888214 
	C150.607330,400.376740 160.257523,401.205261 169.882065,402.007507 
	C179.533859,402.812042 189.219666,403.208527 199.832336,403.897430 
	C210.861389,403.257263 221.924713,402.965698 232.910583,401.886017 
	C245.764908,400.622711 258.568390,398.790985 271.364075,396.993561 
	C292.092194,394.081848 311.798767,387.837433 329.952301,377.380219 
	C339.923309,371.636505 349.127808,364.772064 350.952026,351.500336 
	C350.905029,351.335022 350.858032,351.169739 350.912354,350.177551 
	C350.961639,348.791290 351.010956,347.405060 351.649200,345.739960 
	C351.452148,344.819672 351.255066,343.899414 350.959412,342.049011 
	C350.992981,334.705658 351.026550,327.362274 351.699768,319.659210 
	C351.485779,318.099121 351.271820,316.539032 350.959717,314.099304 
	C350.993195,311.739166 351.026672,309.379059 351.699768,306.659210 
	C351.485779,305.099121 351.271790,303.539032 350.959717,301.150665 
	C351.009857,299.764740 351.059967,298.378784 351.863159,296.569305 
	C351.900665,236.582718 351.941742,176.596130 351.939728,116.609558 
	C351.939697,115.753113 351.400330,114.896690 350.970215,113.160538 
	C351.019379,111.084679 351.068512,109.008812 351.847107,106.493813 
	C351.808014,91.638817 351.768890,76.783813 351.843506,61.026581 
z"/>
<path fill="#0172C6" opacity="1.000000" stroke="none" 
	d="
M198.890564,403.783875 
	C189.219666,403.208527 179.533859,402.812042 169.882065,402.007507 
	C160.257523,401.205261 150.607330,400.376740 141.073212,398.888214 
	C115.341057,394.870758 90.172523,388.941071 68.194298,373.957458 
	C61.112728,369.129608 55.023422,363.270172 52.459969,353.988464 
	C52.723927,350.603302 52.976273,347.949615 52.976883,345.295868 
	C52.997410,255.972244 52.986477,166.648621 53.033710,77.325027 
	C53.034996,74.891708 53.625660,72.458702 54.123611,70.315231 
	C59.734421,80.780128 68.694153,87.060425 78.595406,92.089020 
	C102.995827,104.481361 129.361115,109.921860 156.257645,112.899178 
	C170.782150,114.506989 185.440125,114.909241 200.023499,116.332939 
	C199.991821,142.107544 199.974518,167.404587 199.598480,192.849167 
	C186.300156,196.075104 176.008041,202.881210 169.789062,214.851379 
	C162.038513,229.769516 160.941666,245.335449 166.758209,261.148315 
	C172.478928,276.700684 184.306107,285.227997 199.987457,289.492859 
	C199.974884,325.476227 199.990768,360.992615 199.918579,396.508850 
	C199.913651,398.934540 199.248611,401.358887 198.890564,403.783875 
M103.638329,288.014374 
	C114.256302,289.978943 124.851120,290.213745 135.230103,286.850494 
	C148.121857,282.673035 154.567215,273.140747 154.088699,259.616760 
	C153.786530,251.076645 149.702042,244.582520 142.760925,240.140854 
	C136.053940,235.849075 128.820221,232.389877 121.955559,228.332047 
	C116.452057,225.078827 114.285378,220.689453 115.384445,216.092514 
	C116.435188,211.697708 120.837944,208.418625 127.159485,208.892136 
	C133.188843,209.343750 139.135040,211.048126 145.081512,212.365555 
	C146.600006,212.701981 147.981140,213.658401 150.052368,214.621536 
	C150.052368,208.446350 150.187714,202.992096 149.931870,197.556229 
	C149.883881,196.536865 148.436844,195.004593 147.356735,194.701157 
	C135.102798,191.258728 122.727905,190.233276 110.563850,194.823898 
	C90.422531,202.425095 86.342102,226.436707 102.867569,240.262024 
	C106.519363,243.317154 110.974358,245.424576 115.106285,247.889969 
	C119.242210,250.357727 123.575836,252.520508 127.563263,255.202805 
	C131.005737,257.518524 132.511108,261.066803 131.489029,265.234619 
	C130.505753,269.244171 127.494720,271.405792 123.650391,271.997131 
	C120.405350,272.496246 116.839294,273.087372 113.792664,272.255646 
	C106.887589,270.370453 100.215157,267.633179 93.177406,265.146729 
	C93.177406,268.022156 93.177406,271.613678 93.177406,275.205231 
	C93.177414,285.006287 93.177414,285.006287 103.638329,288.014374 
z"/>
<path fill="#2787CF" opacity="1.000000" stroke="none" 
	d="
M199.957214,192.701630 
	C199.974518,167.404587 199.991821,142.107544 200.459244,116.201233 
	C213.222122,115.037148 225.572861,114.915443 237.839951,113.839737 
	C265.664856,111.399757 292.989563,106.456573 318.718079,94.978981 
	C331.350311,89.343666 342.980530,82.330574 349.799591,69.978790 
	C349.905212,78.255569 349.862854,86.032768 350.036621,93.805138 
	C350.128021,97.893250 350.597321,101.972923 350.963806,106.272400 
	C351.031616,106.488403 351.117645,106.932953 351.117645,106.932953 
	C351.068512,109.008812 351.019379,111.084679 350.988647,113.834976 
	C351.007050,114.509407 350.874298,114.971588 350.682831,115.339645 
	C350.327789,117.354210 350.021942,119.000656 350.021240,120.647224 
	C349.996552,177.303055 349.993164,233.958908 350.035706,290.614716 
	C350.037048,292.400391 350.554199,294.185638 350.903320,296.225830 
	C351.020569,296.651306 351.065308,296.822083 351.110077,296.992859 
	C351.059967,298.378784 351.009857,299.764740 350.798798,301.839569 
	C350.778625,304.025299 350.919373,305.522095 351.060120,307.018921 
	C351.026672,309.379059 350.993195,311.739166 350.798798,314.813904 
	C350.778625,317.025299 350.919373,318.522095 351.060120,320.018921 
	C351.026550,327.362274 350.992981,334.705658 350.818024,342.734039 
	C350.804504,344.285645 350.932373,345.152222 351.060242,346.018799 
	C351.010956,347.405060 350.961639,348.791290 350.779388,350.706482 
	C350.560852,351.532196 350.628937,351.789001 350.850677,352.005859 
	C349.127808,364.772064 339.923309,371.636505 329.952301,377.380219 
	C311.798767,387.837433 292.092194,394.081848 271.364075,396.993561 
	C258.568390,398.790985 245.764908,400.622711 232.910583,401.886017 
	C221.924713,402.965698 210.861389,403.257263 199.361450,403.840637 
	C199.248611,401.358887 199.913651,398.934540 199.918579,396.508850 
	C199.990768,360.992615 199.974884,325.476227 200.406723,289.441742 
	C205.438263,288.470459 208.542160,290.660095 211.354507,294.156006 
	C215.418610,299.207947 219.891556,303.935852 224.288513,308.711334 
	C225.246536,309.751862 226.602463,311.101013 227.805557,311.132111 
	C236.029480,311.344727 244.261520,311.243591 253.938095,311.243591 
	C244.402557,302.359772 235.955719,294.490234 227.200104,286.333038 
	C227.900925,285.848785 228.275497,285.494049 228.719971,285.296722 
	C246.355591,277.468811 253.787048,262.961487 255.558182,244.624664 
	C257.600098,223.484482 247.526825,204.034546 230.285522,196.007492 
	C220.532471,191.466721 210.323486,191.443741 199.957214,192.701630 
M291.642151,193.817093 
	C285.031677,193.817093 278.421204,193.817093 271.576172,193.817093 
	C271.576172,225.238617 271.576172,256.289764 271.576172,287.573914 
	C290.232269,287.573914 308.584778,287.573914 327.032288,287.573914 
	C327.032288,281.806213 327.032288,276.393097 327.032288,270.345886 
	C315.503387,270.345886 304.281433,270.345886 292.638763,270.345886 
	C292.638763,263.247711 292.666199,256.782318 292.633545,250.317261 
	C292.539398,231.673248 292.421051,213.029343 291.642151,193.817093 
z"/>
<path fill="#FCFDFC" opacity="1.000000" stroke="none" 
	d="
M349.741364,69.477203 
	C342.980530,82.330574 331.350311,89.343666 318.718079,94.978981 
	C292.989563,106.456573 265.664856,111.399757 237.839951,113.839737 
	C225.572861,114.915443 213.222122,115.037148 200.473633,115.723663 
	C185.440125,114.909241 170.782150,114.506989 156.257645,112.899178 
	C129.361115,109.921860 102.995827,104.481361 78.595406,92.089020 
	C68.694153,87.060425 59.734421,80.780128 54.121304,69.972656 
	C53.352234,68.099602 52.767601,66.858810 52.182964,65.618011 
	C50.081135,52.488369 57.195442,43.828999 66.993782,37.218533 
	C85.789246,24.538145 106.989197,17.919216 129.164658,14.017606 
	C147.865372,10.727352 166.594986,7.767235 185.652802,8.022670 
	C204.986221,8.281799 224.413269,7.657912 243.624252,9.377064 
	C266.726990,11.444477 289.694885,15.547727 311.423889,24.236797 
	C324.973358,29.655006 338.258759,36.027000 347.244812,48.165218 
	C349.837677,51.667637 350.367737,56.697170 351.447052,61.698822 
	C350.754852,63.959389 350.459106,65.547707 350.114014,67.430420 
	C349.956940,68.308945 349.849152,68.893074 349.741364,69.477203 
M294.689728,80.667511 
	C299.193542,78.520164 303.899200,76.711121 308.165558,74.165756 
	C324.893250,64.185806 324.799133,51.960377 307.987030,42.214966 
	C296.171967,35.366177 283.176666,31.747568 269.932648,28.995974 
	C240.755188,22.934031 211.240845,21.314983 181.543732,22.917362 
	C158.891235,24.139631 136.347275,26.639807 114.786476,34.042473 
	C106.078629,37.032215 97.448387,41.106247 89.852570,46.262657 
	C80.020691,52.937023 80.152649,63.294357 89.828720,70.242043 
	C95.937592,74.628387 103.213310,77.389648 110.639992,81.221718 
	C116.052414,82.841530 121.399544,84.737213 126.887939,86.035973 
	C160.210251,93.921265 194.020050,95.291359 228.044128,93.093163 
	C250.510269,91.641678 272.696655,88.518494 294.689728,80.667511 
z"/>
<path fill="#318DD1" opacity="1.000000" stroke="none" 
	d="
M52.087425,66.109268 
	C52.767601,66.858810 53.352234,68.099602 53.939178,69.682976 
	C53.625660,72.458702 53.034996,74.891708 53.033710,77.325027 
	C52.986477,166.648621 52.997410,255.972244 52.976883,345.295868 
	C52.976273,347.949615 52.723927,350.603302 52.417873,353.633789 
	C52.164486,350.681458 52.010826,347.352325 52.010265,344.023224 
	C51.994637,251.548996 51.994545,159.074753 52.087425,66.109268 
z"/>
<path fill="#AAB6C4" opacity="1.000000" stroke="none" 
	d="
M350.874329,114.971588 
	C350.874298,114.971588 351.007050,114.509407 351.059875,114.274826 
	C351.400330,114.896690 351.939697,115.753113 351.939728,116.609558 
	C351.941742,176.596130 351.900665,236.582718 351.486633,296.781067 
	C351.065308,296.822083 351.020569,296.651306 350.957916,295.760254 
	C350.959625,261.452789 351.000854,227.865585 350.991882,194.278366 
	C350.984802,167.842773 350.915802,141.407181 350.874329,114.971588 
z"/>
<path fill="#AEB9C7" opacity="1.000000" stroke="none" 
	d="
M350.163330,67.136024 
	C350.459106,65.547707 350.754852,63.959389 351.390198,62.149940 
	C351.768890,76.783813 351.808014,91.638817 351.482361,106.713379 
	C351.117645,106.932953 351.031616,106.488403 351.018066,105.798553 
	C351.010895,97.016899 351.115814,88.923500 350.985107,80.833900 
	C350.911316,76.264709 350.450043,71.701782 350.163330,67.136024 
z"/>
<path fill="#2477B8" opacity="1.000000" stroke="none" 
	d="
M351.379944,306.839050 
	C350.919373,305.522095 350.778625,304.025299 350.847839,302.253723 
	C351.271790,303.539032 351.485779,305.099121 351.379944,306.839050 
z"/>
<path fill="#2477B8" opacity="1.000000" stroke="none" 
	d="
M351.379944,319.839050 
	C350.919373,318.522095 350.778625,317.025299 350.847839,315.253723 
	C351.271820,316.539032 351.485779,318.099121 351.379944,319.839050 
z"/>
<path fill="#2477B8" opacity="1.000000" stroke="none" 
	d="
M351.354736,345.879395 
	C350.932373,345.152222 350.804504,344.285645 350.867310,343.199097 
	C351.255066,343.899414 351.452148,344.819672 351.354736,345.879395 
z"/>
<path fill="#2477B8" opacity="1.000000" stroke="none" 
	d="
M350.901367,351.753113 
	C350.628937,351.789001 350.560852,351.532196 350.728699,351.119904 
	C350.858032,351.169739 350.905029,351.335022 350.901367,351.753113 
z"/>
<path fill="#FBFDFE" opacity="1.000000" stroke="none" 
	d="
M199.598480,192.849167 
	C210.323486,191.443741 220.532471,191.466721 230.285522,196.007492 
	C247.526825,204.034546 257.600098,223.484482 255.558182,244.624664 
	C253.787048,262.961487 246.355591,277.468811 228.719971,285.296722 
	C228.275497,285.494049 227.900925,285.848785 227.200104,286.333038 
	C235.955719,294.490234 244.402557,302.359772 253.938095,311.243591 
	C244.261520,311.243591 236.029480,311.344727 227.805557,311.132111 
	C226.602463,311.101013 225.246536,309.751862 224.288513,308.711334 
	C219.891556,303.935852 215.418610,299.207947 211.354507,294.156006 
	C208.542160,290.660095 205.438263,288.470459 200.414215,288.974731 
	C184.306107,285.227997 172.478928,276.700684 166.758209,261.148315 
	C160.941666,245.335449 162.038513,229.769516 169.789062,214.851379 
	C176.008041,202.881210 186.300156,196.075104 199.598480,192.849167 
M199.214920,212.809509 
	C181.726669,221.101807 181.262314,256.706635 196.561844,267.031982 
	C197.240555,267.489990 198.013321,267.808655 199.238922,268.754578 
	C211.995819,273.957825 224.513245,270.111725 229.705292,258.502991 
	C235.272842,246.054718 235.069473,233.196152 228.651306,221.042679 
	C223.085846,210.503906 210.610489,207.177307 199.214920,212.809509 
z"/>
<path fill="#FAFCFE" opacity="1.000000" stroke="none" 
	d="
M103.227478,287.929565 
	C93.177414,285.006287 93.177414,285.006287 93.177406,275.205231 
	C93.177406,271.613678 93.177406,268.022156 93.177406,265.146729 
	C100.215157,267.633179 106.887589,270.370453 113.792664,272.255646 
	C116.839294,273.087372 120.405350,272.496246 123.650391,271.997131 
	C127.494720,271.405792 130.505753,269.244171 131.489029,265.234619 
	C132.511108,261.066803 131.005737,257.518524 127.563263,255.202805 
	C123.575836,252.520508 119.242210,250.357727 115.106285,247.889969 
	C110.974358,245.424576 106.519363,243.317154 102.867569,240.262024 
	C86.342102,226.436707 90.422531,202.425095 110.563850,194.823898 
	C122.727905,190.233276 135.102798,191.258728 147.356735,194.701157 
	C148.436844,195.004593 149.883881,196.536865 149.931870,197.556229 
	C150.187714,202.992096 150.052368,208.446350 150.052368,214.621536 
	C147.981140,213.658401 146.600006,212.701981 145.081512,212.365555 
	C139.135040,211.048126 133.188843,209.343750 127.159485,208.892136 
	C120.837944,208.418625 116.435188,211.697708 115.384445,216.092514 
	C114.285378,220.689453 116.452057,225.078827 121.955559,228.332047 
	C128.820221,232.389877 136.053940,235.849075 142.760925,240.140854 
	C149.702042,244.582520 153.786530,251.076645 154.088699,259.616760 
	C154.567215,273.140747 148.121857,282.673035 135.230103,286.850494 
	C124.851120,290.213745 114.256302,289.978943 103.227478,287.929565 
z"/>
<path fill="#F9FBFD" opacity="1.000000" stroke="none" 
	d="
M291.977173,194.101257 
	C292.421051,213.029343 292.539398,231.673248 292.633545,250.317261 
	C292.666199,256.782318 292.638763,263.247711 292.638763,270.345886 
	C304.281433,270.345886 315.503387,270.345886 327.032288,270.345886 
	C327.032288,276.393097 327.032288,281.806213 327.032288,287.573914 
	C308.584778,287.573914 290.232269,287.573914 271.576172,287.573914 
	C271.576172,256.289764 271.576172,225.238617 271.576172,193.817093 
	C278.421204,193.817093 285.031677,193.817093 291.977173,194.101257 
z"/>
<path fill="#2477B8" opacity="1.000000" stroke="none" 
	d="
M350.682861,115.339645 
	C350.915802,141.407181 350.984802,167.842773 350.991882,194.278366 
	C351.000854,227.865585 350.959625,261.452789 350.885437,295.505554 
	C350.554199,294.185638 350.037048,292.400391 350.035706,290.614716 
	C349.993164,233.958908 349.996552,177.303055 350.021240,120.647224 
	C350.021942,119.000656 350.327789,117.354210 350.682861,115.339645 
z"/>
<path fill="#2477B8" opacity="1.000000" stroke="none" 
	d="
M350.114014,67.430420 
	C350.450043,71.701782 350.911316,76.264709 350.985107,80.833900 
	C351.115814,88.923500 351.010895,97.016899 350.950256,105.582558 
	C350.597321,101.972923 350.128021,97.893250 350.036621,93.805138 
	C349.862854,86.032768 349.905212,78.255569 349.799591,69.978790 
	C349.849152,68.893074 349.956940,68.308945 350.114014,67.430420 
z"/>
<path fill="#B8D433" opacity="1.000000" stroke="none" 
	d="
M109.965637,80.879845 
	C103.213310,77.389648 95.937592,74.628387 89.828720,70.242043 
	C80.152649,63.294357 80.020691,52.937023 89.852570,46.262657 
	C97.448387,41.106247 106.078629,37.032215 114.786476,34.042473 
	C136.347275,26.639807 158.891235,24.139631 181.543732,22.917362 
	C211.240845,21.314983 240.755188,22.934031 269.932648,28.995974 
	C283.176666,31.747568 296.171967,35.366177 307.987030,42.214966 
	C324.799133,51.960377 324.893250,64.185806 308.165558,74.165756 
	C303.899200,76.711121 299.193542,78.520164 294.177948,80.390007 
	C292.059174,79.328194 290.516479,78.352394 288.835571,77.788300 
	C263.492065,69.283241 237.139511,67.048706 210.717682,66.291473 
	C195.320190,65.850189 179.750290,66.432251 164.468674,68.288567 
	C147.876846,70.304039 131.514572,74.258553 115.096367,77.585464 
	C113.239830,77.961662 111.668968,79.747620 109.965637,80.879845 
z"/>
<path fill="#81BB03" opacity="1.000000" stroke="none" 
	d="
M110.302818,81.050781 
	C111.668968,79.747620 113.239830,77.961662 115.096367,77.585464 
	C131.514572,74.258553 147.876846,70.304039 164.468674,68.288567 
	C179.750290,66.432251 195.320190,65.850189 210.717682,66.291473 
	C237.139511,67.048706 263.492065,69.283241 288.835571,77.788300 
	C290.516479,78.352394 292.059174,79.328194 293.824890,80.407944 
	C272.696655,88.518494 250.510269,91.641678 228.044128,93.093163 
	C194.020050,95.291359 160.210251,93.921265 126.887939,86.035973 
	C121.399544,84.737213 116.052414,82.841530 110.302818,81.050781 
z"/>
<path fill="#2888CF" opacity="1.000000" stroke="none" 
	d="
M199.916122,212.666718 
	C210.610489,207.177307 223.085846,210.503906 228.651306,221.042679 
	C235.069473,233.196152 235.272842,246.054718 229.705292,258.502991 
	C224.513245,270.111725 211.995819,273.957825 199.245911,268.125610 
	C199.495865,265.871735 199.946701,264.247131 199.949677,262.621765 
	C199.980179,245.970154 199.938004,229.318420 199.916122,212.666718 
z"/>
<path fill="#0575C7" opacity="1.000000" stroke="none" 
	d="
M199.565521,212.738113 
	C199.938004,229.318420 199.980179,245.970154 199.949677,262.621765 
	C199.946701,264.247131 199.495865,265.871735 198.997604,267.844452 
	C198.013321,267.808655 197.240555,267.489990 196.561844,267.031982 
	C181.262314,256.706635 181.726669,221.101807 199.565521,212.738113 
z"/>
</svg>



