<?xml version="1.0" standalone="no"?>
<!DOCTYPE svg PUBLIC "-//W3C//DTD SVG 20010904//EN"
 "http://www.w3.org/TR/2001/REC-SVG-20010904/DTD/svg10.dtd">
<svg version="1.0" xmlns="http://www.w3.org/2000/svg"
 width="824.000000pt" height="476.000000pt" viewBox="0 0 824.000000 476.000000"
 preserveAspectRatio="xMidYMid meet">

<g transform="translate(0.000000,476.000000) scale(0.100000,-0.100000)"
fill="#000000" stroke="none">
<path d="M2832 3127 c-2 -227 0 -787 4 -1245 l6 -832 31 -47 c94 -141 380
-260 764 -317 134 -20 675 -32 813 -18 159 17 260 33 255 42 -3 5 4 6 15 3 23
-6 200 36 200 47 0 5 10 6 22 2 16 -4 19 -2 13 8 -6 9 -4 11 4 6 16 -10 162
45 154 58 -3 5 -1 6 6 2 17 -11 137 60 194 113 96 89 87 -46 87 1348 -1 918
-3 1223 -12 1208 -39 -69 -126 -140 -240 -195 -42 -21 -74 -41 -70 -45 4 -5 1
-5 -6 -1 -16 9 -83 -15 -75 -27 3 -6 1 -7 -5 -3 -6 3 -64 -7 -129 -24 -65 -16
-126 -30 -136 -30 -10 0 -15 -4 -12 -10 3 -5 0 -7 -9 -4 -8 3 -63 -2 -123 -11
-248 -36 -647 -36 -910 0 -425 58 -739 192 -821 350 -16 33 -17 21 -20 -378z
m2555 261 c-2 -13 -4 -3 -4 22 0 25 2 35 4 23 2 -13 2 -33 0 -45z m-272 -138
c-3 -5 -12 -10 -18 -10 -7 0 -6 4 3 10 19 12 23 12 15 0z m-115 -40 c0 -5 -10
-10 -22 -9 -22 0 -22 1 -3 9 11 5 21 9 23 9 1 1 2 -3 2 -9z m377 -167 c-2 -16
-4 -3 -4 27 0 30 2 43 4 28 2 -16 2 -40 0 -55z m-1104 50 c-23 -2 -64 -2 -90
0 -26 2 -7 3 42 3 50 0 71 -1 48 -3z m47 -583 c0 -5 -4 -10 -9 -10 -6 0 -13 5
-16 10 -3 6 1 10 9 10 9 0 16 -4 16 -10z m-63 -35 c35 1 58 -2 52 -6 -15 -9
39 -21 54 -13 7 4 9 4 5 -1 -4 -4 12 -20 35 -35 23 -15 55 -41 71 -58 16 -17
33 -29 38 -26 5 3 8 2 7 -3 -4 -21 2 -34 13 -27 6 4 8 3 5 -3 -3 -5 5 -36 18
-69 14 -32 25 -69 25 -82 0 -13 3 -21 8 -19 4 3 7 -32 7 -78 0 -46 -4 -81 -9
-78 -5 3 -7 -8 -4 -25 2 -17 1 -29 -2 -27 -8 5 -45 -105 -41 -120 1 -5 -1 -7
-5 -3 -3 4 -22 -13 -41 -38 -19 -25 -59 -59 -90 -76 l-55 -31 103 -98 c57 -53
106 -95 109 -94 3 2 6 -4 7 -13 1 -15 -12 -17 -120 -15 -66 2 -124 6 -127 10
-3 5 -41 47 -83 94 -71 79 -81 87 -121 91 -64 8 -164 58 -215 109 -24 24 -58
73 -75 109 -30 62 -31 70 -31 195 0 125 1 133 31 195 60 126 167 210 291 227
42 6 45 8 23 15 -14 4 -7 4 15 0 22 -4 68 -7 102 -7z m600 -2 c-20 -2 -52 -2
-70 0 -17 2 0 4 38 4 39 0 53 -2 32 -4z m-1222 -17 l40 -12 3 -87 c1 -48 1
-87 0 -87 -2 0 -30 11 -63 25 -123 51 -235 26 -235 -51 0 -46 24 -69 129 -124
152 -82 201 -142 201 -247 -1 -101 -47 -170 -145 -215 -43 -20 -66 -23 -170
-23 -92 0 -131 4 -167 18 l-48 19 0 94 0 94 46 -29 c89 -57 228 -68 266 -21
25 31 23 76 -5 104 -13 13 -59 42 -104 65 -100 52 -155 99 -182 154 -26 55
-27 137 -2 193 22 49 89 108 145 128 51 18 234 20 291 2z m1275 -326 l0 -330
150 0 150 0 0 -80 0 -80 -245 0 -245 0 0 410 0 410 95 0 95 0 0 -330z m48 247
c2 -10 -3 -17 -12 -17 -10 0 -16 9 -16 21 0 24 23 21 28 -4z m-358 -522 c-7
-8 -17 -15 -22 -15 -11 0 14 29 26 30 5 0 3 -7 -4 -15z m-80 -125 c0 -5 -5
-10 -11 -10 -5 0 -7 5 -4 10 3 6 8 10 11 10 2 0 4 -4 4 -10z m-66 -65 c-4 -8
-15 -15 -26 -15 -17 0 -18 3 -8 15 7 8 19 15 26 15 8 0 11 -6 8 -15z m-27 -32
c-4 -3 -1 -13 6 -22 11 -14 10 -14 -5 -2 -16 12 -16 31 -1 31 4 0 3 -3 0 -7z
m486 -10 c-7 -2 -19 -2 -25 0 -7 3 -2 5 12 5 14 0 19 -2 13 -5z m280 0 c-7 -2
-19 -2 -25 0 -7 3 -2 5 12 5 14 0 19 -2 13 -5z m-1057 -60 c-11 -11 -17 4 -9
23 7 18 8 18 11 1 2 -10 1 -21 -2 -24z m21 0 c-3 -10 -5 -4 -5 12 0 17 2 24 5
18 2 -7 2 -21 0 -30z m28 7 c3 -5 1 -10 -4 -10 -6 0 -11 5 -11 10 0 6 2 10 4
10 3 0 8 -4 11 -10z m30 -29 c3 -5 1 -12 -5 -16 -5 -3 -10 1 -10 9 0 18 6 21
15 7z m-39 -70 c-14 -15 -16 -64 -19 -382 l-2 -364 -3 409 -2 409 21 -27 c20
-25 20 -28 5 -45z m374 41 c0 -5 -7 -9 -15 -9 -8 0 -12 4 -9 9 3 4 9 8 15 8 5
0 9 -4 9 -8z m660 -612 c0 -5 -5 -10 -11 -10 -5 0 -7 5 -4 10 3 6 8 10 11 10
2 0 4 -4 4 -10z m-60 -30 c-8 -5 -19 -10 -25 -10 -5 0 -3 5 5 10 8 5 20 10 25
10 6 0 3 -5 -5 -10z m-183 -76 c-3 -3 -12 -4 -19 -1 -8 3 -5 6 6 6 11 1 17 -2
13 -5z m-327 -44 c0 -5 -2 -10 -4 -10 -3 0 -8 5 -11 10 -3 6 -1 10 4 10 6 0
11 -4 11 -10z m177 4 c-3 -3 -12 -4 -19 -1 -8 3 -5 6 6 6 11 1 17 -2 13 -5z
m-170 -50 c-3 -3 -12 -4 -19 -1 -8 3 -5 6 6 6 11 1 17 -2 13 -5z m-484 -31
c-7 -2 -21 -2 -30 0 -10 3 -4 5 12 5 17 0 24 -2 18 -5z"/>
<path d="M4137 2303 c-22 -3 -28 -10 -27 -26 4 -49 -3 -71 -9 -29 l-6 43 -31
-30 c-51 -50 -68 -96 -72 -193 -5 -110 13 -170 68 -223 l40 -39 2 139 2 140 6
-140 5 -140 69 -3 c88 -4 132 22 169 100 23 48 50 199 30 171 -4 -6 -8 12 -8
41 0 62 -42 139 -91 168 -33 19 -101 29 -147 21z m216 -153 c-3 -12 -8 -19
-11 -16 -5 6 5 36 12 36 2 0 2 -9 -1 -20z m-54 -273 c8 -10 7 -14 -4 -14 -8 0
-15 6 -15 14 0 7 2 13 4 13 2 0 9 -6 15 -13z"/>
</g>
</svg>

